<?xml version="1.0" encoding="utf-8"?>
<!-- Generator: Adobe Illustrator 25.0.1, SVG Export Plug-In . SVG Version: 6.00 Build 0)  -->
<svg version="1.1" id="Capa_1" xmlns="http://www.w3.org/2000/svg" xmlns:xlink="http://www.w3.org/1999/xlink" x="0px" y="0px"
	 viewBox="0 0 50 50" style="enable-background:new 0 0 50 50;" xml:space="preserve">
<path d="M30.4,31.9L30.4,31.9c8.1-1.2,11.4-5.5,12.7-9c3.2-8.4-2.5-13.6-2.4-14.1c1.4-4.1-0.3-7.6-0.4-8c-1.7,0.6-1.5-0.7-7.8,3.1
	C32.4,4,32.3,4,32.3,4H32c-2.2-0.6-4.4-0.9-6.7-0.9c-2.2,0-4.4,0.3-6.6,0.9c-0.4,0-0.3,0.2-0.6-0.1l-0.9-0.5
	c-5.1-3.1-5.3-2.1-6.9-2.6c-0.1,0.4-1.7,3.8-0.4,8c0,0.1-0.1,0.3-0.1,0.4c-3,3.6-3.9,9.2-2.2,13.8c1.3,3.4,4.5,7.7,12.7,8.9l0,0
	c-0.8,1.2-1.9,2.1-2.2,4.4c-1.2,0.4-2.2,0.5-3.1,0.3c-1-0.3-1.7-0.9-2.4-2c-1.5-2.5-3.9-4.4-6.8-4.2L6.3,34c1.3-0.1,2.6,1.2,3.3,2.4
	c1.1,1.9,2.6,3.1,4.5,3.7c1.4,0.4,2.6,0.4,4,0.1V50h14.7V37.6C32.7,34.3,31.4,33.4,30.4,31.9z" style="fill:#20364b"/>
<path d="M-34.3,285v-4h-14.4C-44,282.5-39.2,283.8-34.3,285z" style="fill:#20364b"/>
<path d="M84.3,285c4.9-1.2,9.7-2.5,14.4-4H84.3V285z" style="fill:#20364b"/>
</svg>
