<?xml version="1.0" encoding="utf-8"?>
<!-- Generator: Adobe Illustrator 25.0.1, SVG Export Plug-In . SVG Version: 6.00 Build 0)  -->
<svg version="1.1" id="Capa_1" xmlns="http://www.w3.org/2000/svg" xmlns:xlink="http://www.w3.org/1999/xlink" x="0px" y="0px"
	 viewBox="0 0 300 300" style="enable-background:new 0 0 300 300;" xml:space="preserve">
<style type="text/css">
	.st0{fill:url(#SVGID_1_);}
	.st1{fill:#C91500;stroke:#FFFFFF;stroke-miterlimit:10;}
	.st2{fill:#F90606;stroke:#FFFFFF;stroke-miterlimit:10;}
	.st3{fill:#FF5B00;stroke:#FFFFFF;stroke-miterlimit:10;}
	.st4{fill:#FF8B00;stroke:#FFFFFF;stroke-miterlimit:10;}
</style>
<radialGradient id="SVGID_1_" cx="150.1824" cy="149.6832" r="21.4183" gradientTransform="matrix(1 0 0 -1 -3.888565e-03 300.0022)" gradientUnits="userSpaceOnUse">
	<stop  offset="0" style="stop-color:#F7931E"/>
	<stop  offset="0.47" style="stop-color:#FF4400"/>
	<stop  offset="1" style="stop-color:#C91500"/>
</radialGradient>
<polygon class="st0" points="128.8,150.3 150.2,128.9 171.6,150.3 150.2,171.7 "/>
<rect x="132.2" y="33.8" transform="matrix(0.7071 -0.7071 0.7071 0.7071 2.2956 133.5976)" class="st1" width="60.5" height="60.5"/>
<rect x="175.1" y="76.7" transform="matrix(0.7071 -0.7071 0.7071 0.7071 -15.4842 176.5074)" class="st2" width="60.5" height="60.5"/>
<rect x="218" y="119.6" transform="matrix(0.7071 -0.7071 0.7071 0.7071 -33.247 219.4102)" class="st3" width="60.5" height="60.5"/>
<rect x="175.1" y="162.5" transform="matrix(0.7071 -0.7071 0.7071 0.7071 -76.1598 201.6374)" class="st4" width="60.5" height="60.5"/>
<rect x="107.3" y="205.7" transform="matrix(0.7071 -0.7071 0.7071 0.7071 -126.5581 166.3973)" class="st1" width="60.5" height="60.5"/>
<rect x="64.4" y="162.8" transform="matrix(0.7071 -0.7071 0.7071 0.7071 -108.7801 123.4971)" class="st2" width="60.5" height="60.5"/>
<rect x="21.5" y="119.9" transform="matrix(0.7071 -0.7071 0.7071 0.7071 -91.0192 80.5899)" class="st3" width="60.5" height="60.5"/>
<rect x="64.4" y="77" transform="matrix(0.7071 -0.7071 0.7071 0.7071 -48.102 98.3608)" class="st4" width="60.5" height="60.5"/>
</svg>
