<?xml version="1.0" encoding="utf-8"?>
<!-- Generator: Adobe Illustrator 25.0.1, SVG Export Plug-In . SVG Version: 6.00 Build 0)  -->
<svg version="1.1" id="Capa_1" xmlns="http://www.w3.org/2000/svg" xmlns:xlink="http://www.w3.org/1999/xlink" x="0px" y="0px"
	 viewBox="0 0 50 50" style="enable-background:new 0 0 50 50;" xml:space="preserve">
<path d="M6.6,1.4c-3.5,0-5.8,2.3-5.8,5.3c0,3,2.2,5.3,5.6,5.3h0.1c3.6,0,5.8-2.4,5.8-5.3C12.3,3.7,10.1,1.4,6.6,1.4z" style="fill:#20364b"/>
<path d="M1.4,16.2h10.2V47H1.4V16.2z" style="fill:#20364b"/>
<path d="M36.7,15.5c-5.5,0-9.2,5.2-9.2,5.2v-4.5H17.3V47h10.2V29.8c0-0.9,0.1-1.8,0.3-2.5c0.7-1.8,2.4-3.7,5.2-3.7
	c3.7,0,5.2,2.8,5.2,7V47h10.2V29.4C48.5,19.9,43.5,15.5,36.7,15.5z" style="fill:#20364b"/>
</svg>
