<svg xmlns="http://www.w3.org/2000/svg" xmlns:xlink="http://www.w3.org/1999/xlink" viewBox="0 0 300 300"><defs><radialGradient id="a" cx="150.18" cy="150.31" r="21.42" gradientTransform="translate(150.27 -62.17) rotate(45)" gradientUnits="userSpaceOnUse"><stop offset="0" stop-color="#f7931e"/><stop offset="0.47" stop-color="#f40"/><stop offset="1" stop-color="#c91500"/></radialGradient></defs><rect x="135.03" y="135.17" width="30.29" height="30.29" transform="translate(-62.3 150.22) rotate(-45)" style="stroke:#fff;stroke-miterlimit:10;fill:url(#a)"/><rect x="132.18" y="33.79" width="60.48" height="60.48" transform="translate(2.29 133.6) rotate(-45)" style="fill:#c91500;stroke:#fff;stroke-miterlimit:10"/><rect x="175.08" y="76.7" width="60.48" height="60.48" transform="translate(-15.48 176.51) rotate(-45)" style="fill:#f90606;stroke:#fff;stroke-miterlimit:10"/><rect x="217.99" y="119.6" width="60.48" height="60.48" transform="translate(-33.25 219.41) rotate(-45)" style="fill:#ff5b00;stroke:#fff;stroke-miterlimit:10"/><rect x="175.08" y="162.51" width="60.48" height="60.48" transform="translate(-76.16 201.64) rotate(-45)" style="fill:#ff8b00;stroke:#fff;stroke-miterlimit:10"/><rect x="107.34" y="205.73" width="60.48" height="60.48" transform="translate(401.72 305.54) rotate(135)" style="fill:#c91500;stroke:#fff;stroke-miterlimit:10"/><rect x="64.43" y="162.82" width="60.48" height="60.48" transform="translate(298.14 262.63) rotate(135)" style="fill:#f90606;stroke:#fff;stroke-miterlimit:10"/><rect x="21.53" y="119.91" width="60.48" height="60.48" transform="translate(194.55 219.73) rotate(135)" style="fill:#ff5b00;stroke:#fff;stroke-miterlimit:10"/><rect x="64.43" y="77.01" width="60.48" height="60.48" transform="translate(237.46 116.14) rotate(135)" style="fill:#ff8b00;stroke:#fff;stroke-miterlimit:10"/></svg>