<svg xmlns="http://www.w3.org/2000/svg" viewBox="0 0 150 200"><polygon points="75.02 162.37 75.9 161.96 83.41 172.27 80.4 174.03 75.02 162.37 75.02 162.37" style="fill:#e96086;fill-rule:evenodd"/><path d="M138.45,132.3V116.72c-9-6.45-34.1-22.86-34.1-22.86l.72-1.68,33.38,9.06V84.06l-22-3.23,0-2.34L138.45,80V77.16l-22.16-.37v-25l22.16-2.32V39.79l-21.28,6.56-.48-1.23,21.76-10.61V31.57L82,58.12,38.38,120.77l37.26-17.5,2,3.9L25.22,139.7,11,160.19l34.88-18.66,12.66,4.74,9.42-8,29.14-25.9,15.2,2.66,3.62,5.16,11.27,17,10.38-.28.91-4.63ZM109.15,30.24h-7.81L89.47,47.3l19.68-17.06Z" style="fill:#efcc47;fill-rule:evenodd"/><path d="M138.45,132.3V116.72c-9-6.45-34.1-22.86-34.1-22.86l.72-1.68,33.38,9.06V84.06l-22-3.23,0-2.34L138.45,80V77.16l-22.16-.37V72.71H11v7.55l23.49,3.45,0,2.34L11,84.43v2.93l23.61.39v25L11,115.26v9.94l22.74-7,.47,1.23L11,130.74v2.92l64.67-30.39,2,3.9L11,148.54v11.65l34.88-18.66,12.66,4.74,9.42-8,29.14-25.9,15.2,2.66,3.62,5.16,11.27,17,10.38-.28.91-4.63Z" style="fill:#fcd9bc;fill-rule:evenodd"/><path d="M138.45,132.3V116.72c-9-6.45-34.1-22.86-34.1-22.86l.72-1.68,33.38,9.06V84.06l-22-3.23,0-2.34L138.45,80V77.16l-22.16-.37V72.71H80.76v54.13l16.31-14.49,15.2,2.66,3.62,5.16,11.27,17,10.38-.28.91-4.63Z" style="fill:#f1a049;fill-rule:evenodd"/><path d="M74.24,133.28l5.69,5.56L77,141,74,136.3h-.9l9,11.49-.67.44-6.09-6.09-4.35,2.68,5.48,13-2.47.94-2.09-6.72-1,.22L72.22,155l-5.38,3.43,2,6.84-.49.27L65.53,160l-1.34.37,6.35,9.73-3,1.58-5-13,7.5-7.79-1.09-7,4.94-3.46-2.42-2.49a14.76,14.76,0,0,0,.08-2.77c-.17.24,2.67-1.86,2.67-1.86Z" style="fill:#ed7d2e;fill-rule:evenodd"/><polygon points="98.32 145.64 96.1 150.41 89.41 143.11 88.94 143.41 93.57 150.03 92.13 161.7 90.55 161.44 89.36 155.43 79.72 149 79.36 149.44 85.68 155.58 83.63 163.5 92.41 174.58 95.25 172.21 87.59 166.6 89.51 164.56 94.85 169.57 100.53 165.35 98.31 149.71 102.93 147.79 98.32 145.64 98.32 145.64" style="fill:#561a26;fill-rule:evenodd"/><polygon points="102.87 131.56 93.42 141.9 105.93 151.47 107.46 149.62 101.08 140.33 104.51 137.43 102.87 131.56 102.87 131.56" style="fill:#266b77;fill-rule:evenodd"/><polygon points="62.18 172.5 105.03 172.5 87.36 181.81 62.18 172.5 62.18 172.5" style="fill:#fff;fill-rule:evenodd"/><polygon points="112.27 115.01 113.99 117.52 91.03 140.36 86.19 135.54 84.87 126.54 91.8 128.56 107.17 106.65 112.27 115.01 112.27 115.01" style="fill:#151514;fill-rule:evenodd"/><polygon points="66.51 139.47 72.53 141.4 73.93 140.43 72.67 138.63 72.67 136.3 60.95 127.8 58.55 130.17 66.51 139.47 66.51 139.47" style="fill:#9a9e25;fill-rule:evenodd"/><polygon points="55.44 119.37 57.85 133.46 66.51 139.47 67.93 138.25 59.38 129.8 60.51 128.81 69.41 136.3 72.65 136.3 76.86 131.85 78.17 129.39 55.44 119.37 55.44 119.37" style="fill:#ae6322;fill-rule:evenodd"/><path d="M67.93,20.21,84.06,32.8,57.58,79.69l-14-4.38,4.9-25s.06-21,.91-20.48,18.5-9.63,18.5-9.63Z" style="fill:#ef8d90;fill-rule:evenodd"/><path d="M67.93,20.21l8.39,6.55.82,3.73H61.83L49.65,46.77l-1.07-3c.09-6.11.31-14.29.85-14,.85.49,18.5-9.63,18.5-9.63Z" style="fill:#768930;fill-rule:evenodd"/><path d="M72.62,30.49V22.31L95,21.12l9,13.67-5.69,3.56s-25.64-7.84-25.67-7.86Z" style="fill:#561a26;fill-rule:evenodd"/><polygon points="95.07 23.64 90.41 28.56 81.24 28.56 81.24 33.74 98.52 38.21 103.74 31.68 95.07 23.64 95.07 23.64" style="fill:#a2223b;fill-rule:evenodd"/><polygon points="97.24 40.19 92.05 30.48 72.62 30.49 72.62 32.5 85.37 41.52 97.24 40.19 97.24 40.19" style="fill:#e96086;fill-rule:evenodd"/><polygon points="57.15 29.08 63.92 25.66 64.2 26.01 61.55 28.14 64.91 32.11 65.29 31.84 63.94 28.18 69.45 23.92 69.78 24.32 66.89 28.25 69.14 31.02 69.41 30.79 68.59 28.2 73.86 25.79 74.49 26.48 72.02 28.89 73.27 29.91 75.32 26.41 83.7 31.71 83.91 31.43 78.57 25.59 79.14 25.09 85.89 28.76 85.43 32.26 85.78 32.35 88.39 27.42 85.39 23.76 86.15 22.89 82.81 17.54 65.92 18.2 55.03 27.5 56.51 30.29 57.15 29.08 57.15 29.08" style="fill:#266b77;fill-rule:evenodd"/><polygon points="55.25 21.5 54.9 20.89 69.27 12.05 69.62 12.46 67.36 14.49 67.66 14.91 74.2 11.1 74.59 11.52 73.05 12.64 73.32 12.97 78.12 9.96 79.14 10.26 87.88 13.95 103.08 25.87 98.37 28.64 93.03 23.32 86.09 21.77 86.02 22.34 91.59 23.75 91.32 25.07 83.11 21.6 83.12 19.86 82.89 19.84 81.23 24.11 80.99 24.01 80.7 20.06 80.31 20.01 79.67 23.4 81.16 25.52 80.96 25.73 78.46 23.78 78.17 19.71 77.43 19.71 76.09 24.83 79.15 27.75 78.93 28.05 73.92 24.75 73.83 20.14 72.55 20.02 70.93 26.05 70.29 25.94 70.51 21.92 69.36 21.17 64.37 25.11 61.91 22.29 56.26 24.75 55.25 21.5 55.25 21.5" style="fill:#42233d;fill-rule:evenodd"/><polygon points="110.84 29.64 110.06 27.59 110.67 27.32 110.4 26.6 97.94 15.67 78.67 10.13 78.54 10.56 85.62 13.96 85.37 14.48 79.38 12.21 78.17 15.06 87.38 15.86 87.59 17.65 93.9 21.42 98.69 24.64 98.04 25.62 101.54 30.52 103.38 38.98 113.82 42.69 117.14 40.63 110.84 29.64 110.84 29.64" style="fill:#151514;fill-rule:evenodd"/><polygon points="123.67 62.3 123.37 60.42 120.39 57.59 120.21 54.29 119.13 53.63 119.19 53.16 120.28 53.66 119.54 45.79 118.38 45.07 118.51 44.7 119.52 45.26 119.49 42.49 111.11 28.47 110.45 28.82 115.96 40.5 113.12 42.01 107.67 24.66 96.13 16.58 95.8 16.94 105.96 25.22 105.4 34.79 102.56 34.79 108.27 64.05 115.59 68.45 123.67 62.3 123.67 62.3" style="fill:#151514;fill-rule:evenodd"/><polygon points="45.32 48.51 42.11 45.32 47.33 35.77 49.44 36.13 49.61 35.53 47.79 34.67 54.05 23.78 54.9 24.16 52.61 31.69 53.21 31.95 54.9 28.57 60.45 29.81 60.39 30.32 56.51 30.29 52.68 35.01 53.9 35.91 56.38 31.87 57.78 32.77 52.55 37.96 50.72 42.24 53.13 52.2 51.9 54.09 45.29 52.54 45.32 48.51 45.32 48.51" style="fill:#266b77;fill-rule:evenodd"/><polygon points="99.46 19.92 101.81 26 102.43 26 102.71 23.71 104.56 24.43 102.98 26.69 107.3 28.67 108.6 40.84 107.68 41.03 107.78 41.54 111.15 41.74 110.95 58.16 105.77 57.98 102.39 28.52 93.63 22.74 75.36 15.88 75.63 15.28 99.46 19.92 99.46 19.92" style="fill:#561a26;fill-rule:evenodd"/><polygon points="41.74 55.13 41.11 54.66 41.15 42.44 43.39 40.23 43.03 39.76 42.11 40.44 41.78 40.14 51.13 24.24 64.23 15.53 64.69 16.06 56.66 22.76 57.01 23.32 72.05 12.92 72.36 13.22 68.82 16.55 69.58 17.43 75.28 12.13 75.8 12.38 69.16 22.61 66.98 21.95 69.63 20.07 69.03 19.47 57.02 27.52 50.72 42.24 53.13 52.2 52.08 53.8 41.74 55.13 41.74 55.13" style="fill:#151514;fill-rule:evenodd"/><polygon points="56.42 28.91 55.08 32.06 52.68 35.01 53.54 35.65 50.72 42.24 53.13 52.2 52.08 53.8 51.17 53.92 45.29 52.54 45.32 48.51 42.11 45.32 47.33 35.77 49.44 36.13 49.61 35.53 47.79 34.67 54.05 23.78 54.9 24.16 52.61 31.69 53.21 31.95 54.9 28.57 56.42 28.91 56.42 28.91" style="fill:#561a26;fill-rule:evenodd"/><polygon points="40.43 60.27 40.43 59.26 42.89 58.04 42.64 57.37 39.9 59.15 39.72 58.88 46.06 47.14 45.48 46.58 43.5 48.77 41.99 47.45 47.38 42.07 50.46 44.97 49.14 46.35 49.65 46.77 50.99 45.63 51.44 46.19 47.35 51.97 47.75 52.28 50.81 49.7 52.71 52.79 49.04 58.7 49.44 59.04 52.18 55.9 53.53 57.33 48.72 60.65 50.16 69.76 46.87 74.83 39.1 66.88 40.43 60.27 40.43 60.27" style="fill:#842351;fill-rule:evenodd"/><polygon points="39.81 60.27 45.6 60.27 45.6 61.1 43.61 61.77 43.74 62.27 45.69 61.94 45.69 63.65 46.4 63.65 47.94 56.13 49.22 56.46 46.51 64.35 49.13 66.95 46.86 72.19 48.76 73.55 47.45 81.1 38.33 67.34 39.81 60.27 39.81 60.27" style="fill:#561a26;fill-rule:evenodd"/><polygon points="83.52 128.32 86.58 127.9 88.31 133.54 90.09 133.56 91.47 130.09 91.96 130.2 91.3 133.32 92.8 133.48 95.7 131.41 95.08 129.74 95.61 129.45 96.17 131.09 96.64 130.99 96.31 125.86 88.83 119.83 80.26 124.02 83.52 128.32 83.52 128.32" style="fill:#561a26;fill-rule:evenodd"/><polygon points="110.95 56.83 109.39 56.83 109.39 48.49 107.21 48.7 107.03 48.03 109.29 47.24 106 38.84 107.66 37.68 107.35 37.18 105.58 37.5 102.83 28.82 95.07 23.64 94.28 24.59 101.14 31.4 97.5 35.73 94.43 35.73 93.02 41.06 100.96 69 112.7 69.41 110.95 56.83 110.95 56.83" style="fill:#a74522;fill-rule:evenodd"/><polygon points="105.02 35.73 102.83 28.82 95.07 23.64 94.28 24.59 101.14 31.4 97.5 35.73 105.02 35.73 105.02 35.73" style="fill:#a2223b;fill-rule:evenodd"/><path d="M56.22,117.17l.11.59-1.47.55,3.43,6.31,7.39,1.63-.06.57-5.55-.66-.15,1,11.83,7.43L76.81,130l.44.58-3,2.74.66.64,1.6-1.69h3.74l1.94-2.6h3.17L85,127.24s-2.92-6.53-3-6.43-21.77-8-21.77-8l-4,4.36Z" style="fill:#6fadcf;fill-rule:evenodd"/><path d="M71.12,124l1.28,1.73-3.81,3,1.63,1.82L77,126.13h4.33l2.14-4.3S72.72,120.08,73,120.08,71.12,124,71.12,124Z" style="fill:#bbe2ee;fill-rule:evenodd"/><polygon points="103.76 116.32 104.8 118.21 101.57 118.95 103.5 126.45 101.15 127.31 99.08 125 98.61 125.37 99.93 127.74 94.94 128.93 94.12 132.59 93.23 132.63 92.8 125.1 90.46 124.01 89.98 124.82 91.94 125.58 90.46 130.99 89.6 131.06 86.94 122.34 87.29 117 101.08 110.44 103.76 116.32 103.76 116.32" style="fill:#a2223b;fill-rule:evenodd"/><polygon points="90.31 121.82 89.18 123 91.11 123.98 91.91 122.66 90.31 121.82 90.31 121.82" style="fill:#a5c332;fill-rule:evenodd"/><polygon points="96.36 114.64 92.59 121.9 88.54 119.67 95.93 114.45 96.36 114.64 96.36 114.64" style="fill:#a5c332;fill-rule:evenodd"/><polygon points="117.49 94.61 118.77 94.61 122.39 87.53 123.23 72.57 124.77 69.09 123.49 61.22 119.97 61.22 118.15 58.25 118.56 57.92 119.97 60.19 121.27 59.04 114.49 49.67 114.82 49.28 118.43 53.53 119.05 52.08 112.98 47.02 111.17 47.99 115.84 55.51 114.96 56.09 113.9 53.4 112.99 54.03 117.5 61.29 117.06 61.59 114.83 58.91 114.11 60.3 116.22 61.27 113.63 68.74 117.49 94.61 117.49 94.61" style="fill:#151514;fill-rule:evenodd"/><polygon points="117.49 94.61 118.77 94.61 122.39 87.53 123.22 72.71 122.04 72.71 122.04 82.02 119.44 92.23 117.69 92.23 117.25 92.99 117.49 94.61 117.49 94.61" style="fill:#561a26;fill-rule:evenodd"/><polygon points="38.43 77.5 38.33 72.32 36.8 64.85 38.81 60.27 41.32 60.27 43.13 62.67 41.11 64.09 41.34 64.42 43.84 63.84 45.66 67.09 43.86 68.27 44.29 69.11 46.22 68.4 46.22 74.07 47.33 75.4 46.54 82.63 40.98 82.69 39.83 80.34 38.43 77.5 38.43 77.5" style="fill:#a74522;fill-rule:evenodd"/><polygon points="39.55 70.57 38.45 70.27 38.16 63.25 40.61 63.25 41.79 65.52 39.55 70.57 39.55 70.57" style="fill:#561a26;fill-rule:evenodd"/><polygon points="46.22 73.26 46.22 74.07 47.33 75.4 46.54 82.63 40.98 82.69 40.61 81.95 40.61 73.26 46.22 73.26 46.22 73.26" style="fill:#842351;fill-rule:evenodd"/><path d="M39.63,79.63l-1.2-2.13,2-12.54h1l3.71,6.87-.94.82-3-1.61-1.78,2.44,2.38,7.72s4-.11,4,0,1.41,8.9,1.41,8.9l-5.74-1-1.93-9.46Z" style="fill:#fcd9bc;fill-rule:evenodd"/><path d="M46.12,82.73c.27,1.71.71,4.45,1,6.07v.86H44.82l-1.32-.23v-6.7Z" style="fill:#fff;fill-rule:evenodd"/><polygon points="39.55 70.56 40.45 64.96 41.49 64.96 45.2 71.83 44.26 72.65 42.37 71.64 42.51 71.33 39.55 70.56 39.55 70.56" style="fill:#efcc47;fill-rule:evenodd"/><polygon points="45.95 93.71 44.4 93.71 41.07 88.29 39.71 80.11 38.43 77.5 40.26 79.57 42.24 88.18 48.15 88.18 49.6 92.33 45.95 93.71 45.95 93.71" style="fill:#ed7d2e;fill-rule:evenodd"/><polygon points="113.69 77.38 113.97 78.07 113.44 78.26 113.44 78.26 113.44 78.26 109.33 79.71 100.54 69.8 106 65.66 110 68.2 110.95 68.2 110.95 56.83 111.7 56.83 115.92 69.46 113.69 77.38 113.69 77.38" style="fill:#561a26;fill-rule:evenodd"/><polygon points="46.87 74.83 44.09 74.83 43.58 80.19 45.36 80.87 45.34 81.28 44.28 81.42 46.13 90.22 47.94 90.04 48.02 90.38 45.78 92.72 47.65 103.7 50.95 103.35 50.98 103.67 48.24 105.12 54.55 117.17 58.41 117.17 65.38 112.24 48.86 74.77 46.87 74.83 46.87 74.83" style="fill:#9a9e25;fill-rule:evenodd"/><polygon points="59.18 112.07 61.27 113.55 62.43 113.18 62.55 113.42 58.41 117.18 59.2 118.27 61.82 114.92 63.85 117.23 60.87 121.6 56.74 120.94 56.56 121.47 61.63 123.96 68.32 122.34 68.67 123.88 62.28 124.4 62.28 124.86 70.65 125.92 73.23 124.15 73.23 106.4 68.41 105.27 59.18 112.07 59.18 112.07" style="fill:#efcc47;fill-rule:evenodd"/><path d="M52.48,103.27l3,3.21h1.38v.89h-3.7v.48l6.07,4.22,8.45-3.4.3.46-3.63,2.61.62,3.7h.42l.35-2.9s3.83-.11,3.83,0,13.84-1.26,13.84-1.26l.7-11.35L58.9,97.33l-6.42,5.94Z" style="fill:#efcc47;fill-rule:evenodd"/><path d="M67.75,112.5c.5,0,1,0,1.34,0h.45v0c.14,0,1.07-.06,2.38-.17L74.1,111l-.58-4.62H72.37l1.09,2.85-.91.39-1.16-2-4.1,2.7.66,1.47-.33.3-1.16-1.26L65.27,112l.22.52Z" style="fill:#842351;fill-rule:evenodd"/><polygon points="48.69 71.98 46.87 74.83 47.86 76.05 47.57 76.43 46.42 76.02 46.62 81.34 48.28 80.86 48.47 81.49 46.54 82.63 50.63 93.71 48.52 96.09 54.59 101.32 52.48 103.27 53.59 104.48 57.95 100.1 60.87 100.1 63.62 82.15 51.55 77.23 48.69 71.98 48.69 71.98" style="fill:#99d0e4;fill-rule:evenodd"/><polygon points="82.18 101.56 74.02 101.56 71.72 105.75 71.26 105.61 71.84 102.01 70.88 101.61 63.27 110.26 60.7 109.24 63.44 105.58 62.58 104.98 58.26 108.61 57.66 108.15 58.95 96.9 58.12 96.7 55.85 100.27 52.71 97.2 56.67 93.87 56.27 93.31 53.4 94.43 48.62 76.86 57.51 72.73 82.11 94.13 82.18 101.56 82.18 101.56" style="fill:#fff;fill-rule:evenodd"/><path d="M81.21,101.57H79.3l-.37,1.67h-.34l-.35-1.67H76l-1.3,5.31,1.45.36.17-4.15H77l.1,5.67h.49l1.85-5.31,1.48.49s-3.84,6.14-3.86,6.37S83,111.82,83,111.82l4-6-1.32-4.21L81.84,101l-.63.62Z" style="fill:#9a9e25;fill-rule:evenodd"/><polygon points="85.18 104.02 85.18 107.96 84.11 107.96 84.82 105.78 83.44 105.78 82.72 109.3 81.92 109.3 80.95 105.39 82.48 104.02 85.18 104.02 85.18 104.02" style="fill:#768930;fill-rule:evenodd"/><path d="M71.42,111,68,112.29l-5.28,9.78.5.59L67,119.17l1.12,1.18-3.43,1.92.3.51,4.19-1.5L71.93,125l2.6-1.78.24.27-2.23,3.36,1.28.69,2-4.62,5.81-.13.06.39-3.56.83L77.55,128l1.21.29.44-3.49.51,0,.45,4,4.91-.73-.52-4,.69-.17.9,2,2.16-.58-1-3s-4.33-1.25-4.21-1.23,5.69-5.23,5.69-5.23l-.55-4.18-15.89-1.23-1,.56Z" style="fill:#fcd9bc;fill-rule:evenodd"/><path d="M68.35,111l4.11,2.51-2.68,5,2.4,1.15.68-1.9,3.24-.64s11.6-1,11.58-1.1-1.17-4.09-1.1-3.9-15.91-1.43-15.91-1.43l-2.32.32Z" style="fill:#99d0e4;fill-rule:evenodd"/><polygon points="76.51 116.98 74.2 117.44 74.2 120.25 75.52 120.25 74.88 118.84 75.24 118.71 77.12 121.47 78.85 120.22 79.6 120.84 77.64 121.54 77.79 121.88 86.94 122.34 87.88 125.42 89.1 125.09 87.08 121.93 87.42 121.7 89.28 123.46 91.65 120.25 90.36 119.16 90.5 118.9 92.09 119.65 95.93 114.45 99.92 116.18 102.59 109.7 94.85 104.99 88.41 116.56 76.51 116.98 76.51 116.98" style="fill:#a74522;fill-rule:evenodd"/><path d="M85.73,112.36V115H75.81l-.87,3.26,5.75,1.25,2.8-3.17,6.7-.89s-1-3.61-1.15-3.8a19.21,19.21,0,0,0-3.31.69Z" style="fill:#c7ac2b;fill-rule:evenodd"/><path d="M117.49,93.55V96l-2.3,12.15-1.9-.11-.08.3,1.92.8-6.53,13.54-4.15-1.5,4.78-7.1-2-3-.35.18,1.12,2.49L101.1,118l.34,6.92-.57.13-3.48-6.79,1.91-4.61,8.7-10.34s6.68-11.16,7.15-11.14a11.07,11.07,0,0,1,2.34,1.42Z" style="fill:#561a26;fill-rule:evenodd"/><polygon points="87.72 112.83 88.42 114.64 80.05 116.28 79.69 118.52 79.33 118.51 78.83 116.52 75.22 117.23 74.9 118.41 83.2 121.36 83.78 117.28 84.95 117.6 83.7 121.52 87.03 121.52 86.44 117.2 87.29 117 87.29 119.56 88 119.56 95.16 113.53 93.48 112.55 95.4 111.27 94.2 109.94 87.72 112.83 87.72 112.83" style="fill:#768930;fill-rule:evenodd"/><path d="M80.2,100.34l5.14,3.22-2.11,6.06,7.65-.55s-.59-5.19-.09-5.36-5.58-4.61-5.58-4.61l-5,1.24Z" style="fill:#842351;fill-rule:evenodd"/><path d="M85.27,100.73l-1.32,2,1,.64-1.73,6.29,5.64-.41,1.95-.71c0-.38-.09-.92-.13-1.49l-3.32-6.29-.28-.22-1.82.23Z" style="fill:#b8702e;fill-rule:evenodd"/><polygon points="84.77 104.02 84.29 105.78 84.82 105.78 84.11 107.96 85.18 107.96 85.18 104.02 84.77 104.02 84.77 104.02" style="fill:#a74522;fill-rule:evenodd"/><polygon points="116.16 74.27 117.22 74.27 119.61 80.6 117.58 83.65 119.03 83.65 117.49 93.55 116.5 93.33 116.36 93.92 117.38 94.41 111.57 107.06 108.23 104.99 100.86 116.6 98.48 115.55 100.11 111.67 97.44 104.81 96.15 99.62 112.78 80.13 116.16 74.27 116.16 74.27" style="fill:#842351;fill-rule:evenodd"/><path d="M116.16,74.27h1.06l2.39,6.33-2,3.05H119l-1.54,9.9-1-.22-.14.59,1,.49-1.12,2.44-2.35-3.25s-3-.9-3.7-.21c-.29.31-.07-4.8.26-10.55l2.31-2.71,3.38-5.86Z" style="fill:#561a26;fill-rule:evenodd"/><polygon points="116.16 71.73 116.16 81.1 114.46 81.55 114.52 82.17 116.12 82.35 115.56 93.57 115.03 93.57 113.78 91.66 112.82 92.12 115 95.09 108 103.27 105.66 100.43 105.1 100.73 107.34 105.35 102.17 108.19 98.92 102.28 97.43 102.45 100.14 106.44 98.11 108.66 92.19 106.22 89.58 98.49 110.63 79.89 116.16 71.73 116.16 71.73" style="fill:#71642a;fill-rule:evenodd"/><polygon points="93.9 108.65 93.19 104.19 92.09 104.19 93.35 107.61 93.03 107.72 90.79 103.71 90.42 103.81 91.03 108.6 83.61 108.2 83.03 110.39 82.26 110.42 82.97 104.82 82.47 104.72 80.23 109.57 70.46 109.89 70.68 110.68 88.6 111.69 93.9 108.65 93.9 108.65" style="fill:#a74522;fill-rule:evenodd"/><polygon points="82.4 109.3 82.97 104.82 82.47 104.72 81.37 107.1 81.92 109.3 82.4 109.3 82.4 109.3" style="fill:#842351;fill-rule:evenodd"/><polygon points="93.31 97.88 92.27 101.95 96.31 106.71 97 106.34 95.67 104.34 97.1 103.91 98.71 108.08 97.5 109.23 85.37 110.59 85.28 110.2 90.34 108.06 87.99 103.76 87.57 103.9 88.95 107.17 87.59 107.61 85.7 101.56 83.72 101.56 86.6 87.6 95.52 89.5 93.31 97.88 93.31 97.88" style="fill:#151514;fill-rule:evenodd"/><polygon points="91.76 109.87 85.37 110.59 85.28 110.2 89.29 108.5 91.03 108.6 90.42 103.81 90.79 103.71 93.03 107.72 93.35 107.61 92.09 104.19 93.19 104.19 93.9 108.65 91.76 109.87 91.76 109.87" style="fill:#561a26;fill-rule:evenodd"/><polygon points="68.35 110.95 69.88 111.25 71.9 110.63 85.74 113.08 87.82 113.08 93.42 110.57 92.46 109.57 84.08 111.32 71.04 110.58 68.35 110.95 68.35 110.95" style="fill:#a74522;fill-rule:evenodd"/><polygon points="89.88 112.16 93.42 110.57 92.46 109.57 89.88 110.11 89.88 112.16 89.88 112.16" style="fill:#842351;fill-rule:evenodd"/><polygon points="68.35 110.95 69.56 111.7 71.42 111 73.58 111.63 85.74 112.58 85.74 110.97 84.08 111.32 71.04 110.58 68.35 110.95 68.35 110.95" style="fill:#e96086;fill-rule:evenodd"/><path d="M73.58,111.63l5,1.46h7.17v-1.46Zm12.75,1.46h1.14v-1.46H86.33v1.46Z" style="fill:#fff;fill-rule:evenodd"/><path d="M85.31,36.55l-7.9-5-.5.67,2.66,2.71-7-3.43L56,39.38l3.17,20.85-6.54,7.49s1,2.31,1,2.5,15.29-1,15.29-1,16.41-2.57,16.62-2.54-.21-30.18-.21-30.18Z" style="fill:#fff;fill-rule:evenodd"/><polygon points="52.66 79.97 51.05 77.93 51.55 77.23 47.27 69.39 48.15 68.92 52.03 76.89 52.68 76.94 53.48 79.59 52.66 79.97 52.66 79.97" style="fill:#842351;fill-rule:evenodd"/><polygon points="71.13 87.81 54.97 87.81 54.63 89.07 68.18 95.16 72.97 90.66 71.13 87.81 71.13 87.81" style="fill:#fcd9bc;fill-rule:evenodd"/><polygon points="67.81 83.63 71.87 85.97 65.58 101.66 66.42 102.14 74.81 92.79 77.24 94.06 79.91 80.44 67.81 83.63 67.81 83.63" style="fill:#fcd9bc;fill-rule:evenodd"/><path d="M67.8,83.63,71.87,86l-1.48,3.68h0l5.74-3.77s.9-3.5,1.33-4.79L67.8,83.63Z" style="fill:#d8e4ef;fill-rule:evenodd"/><polygon points="112.19 77.5 111.78 76.6 110.85 78.05 110.08 77.53 111.61 76.26 110.93 74.75 109.27 75.68 108.89 74.99 109.96 74.39 109.77 73.96 107.9 74.49 108.57 71.99 103.15 69.68 101.31 70.67 107.45 75.84 108.78 79.71 111.97 79.41 112.19 77.5 112.19 77.5" style="fill:#a74522;fill-rule:evenodd"/><polygon points="109.63 78.67 111.54 78.67 116.95 67.32 117.76 67.63 114.41 74.05 111.63 80.16 108.78 79.71 109.63 78.67 109.63 78.67" style="fill:#768930;fill-rule:evenodd"/><path d="M112.14,79.89v8.25h-.44l-1.29-1.32-.36.35,1.3,2.56-.43.36-3.3-1.32-.36.5,5.31,5-.85,1-3-3.82-4.35,3.66-.7,9.7-1,.27L99.77,101H92.51l1.59-6.14-5.41-6.27s7.8-5.42,7.74-7.14,13.27-1.92,13.27-1.92l2.44.41Z" style="fill:#b8702e;fill-rule:evenodd"/><path d="M93.25,85.07a20.09,20.09,0,0,0,2.62-2.53h6.9l-.24,6.68,4.66-6,2,4.24-6.41,3.15V97h-8V90.54H90.41l-1.72-2s1.71-1.19,3.53-2.63h0l2.57,2.62V85l-1.54,0Z" style="fill:#f1a049;fill-rule:evenodd"/><polygon points="56.11 65.95 54.78 67.72 57.06 68.88 56.94 69.2 53.77 69.42 52.94 67.64 52.62 67.72 52.78 70.34 59.23 70.87 59.23 72.63 61.95 71.03 56.11 65.95 56.11 65.95" style="fill:#a5c332;fill-rule:evenodd"/><path d="M81.05,100.76l-3.61-2.65h-2l-1.52-2.37,3.7-5.5L76,86.18l1.63-5.55-3.61-9.19H85.22l.93,6.64c.27,0,.48,0,.42,0s5.07,8.75,5.07,8.75L87.48,88.1l1.58,7-4.36,6.44H82.18L81,100.76Z" style="fill:#fff;fill-rule:evenodd"/><polygon points="80.6 99.93 76.65 95.99 79.9 92.86 79.91 77.36 86.05 76.24 84.19 71.44 78.2 72.65 78.67 90.36 75.32 93.68 76 98.11 77.97 98.95 80.2 100.34 80.6 99.93 80.6 99.93" style="fill:#fcd9bc;fill-rule:evenodd"/><path d="M85.21,89.57H83.75l-1.38-8.51,2.8-4,.35.65,3.28,2.61-3.59,9.25Zm1.06,1.6H84v1.9h2.32v-1.9Z" style="fill:#a5c332;fill-rule:evenodd"/><path d="M81.05,100.76l-1.17-.83h5.33V80.65h2.6v-.18c1.5,2.59,3.83,6.4,3.83,6.4l-2.49,3.7,2.37,5.1-6.82,5.9H82.18L81,100.76Zm4.78-23.61.15-.26,0,.26Z" style="fill:#561a26;fill-rule:evenodd"/><polygon points="79.53 99.93 85.21 99.93 85.21 89.57 87.36 89.57 87.36 93.07 85.54 93.07 86.8 98.5 84.7 101.56 82.14 101.56 79.53 99.93 79.53 99.93" style="fill:#a74522;fill-rule:evenodd"/><polygon points="76.07 98.14 75.45 98.11 73.94 95.73 77.1 91.03 76.04 86.18 77.67 80.63 76.11 76.64 79.02 75.89 79.02 91.11 76.28 93.24 76.28 96.82 80.6 99.93 79.54 99.93 77.97 98.95 76.07 98.14 76.07 98.14" style="fill:#a5c332;fill-rule:evenodd"/><polygon points="74.2 87.45 71.63 90.85 72.59 91.44 74.7 87.11 74.2 87.45 74.2 87.45" style="fill:#a5c332;fill-rule:evenodd"/><polygon points="84 35.73 94.84 35.73 105.57 55.66 100.37 61.86 101.29 63.14 106.25 62.72 110 68.2 105.27 68.2 105.02 67.94 101.45 68.2 87.67 60.76 84 35.73 84 35.73" style="fill:#a5c332;fill-rule:evenodd"/><polygon points="77.62 79.31 79.05 78.22 84.51 78.22 86.66 79.1 85.57 77.04 78.64 77.43 76.85 79.11 77.62 79.31 77.62 79.31" style="fill:#efcc47;fill-rule:evenodd"/><path d="M80.41,65.21V35.73H84l14.15,8.94-8.73,15.9,17.18,6.6-1.37,1s-19.37,3.77-19.69,3.77a8.14,8.14,0,0,0-1.63.71H77.69l-1,1.2-1.33-1.47-.43.61L63.57,71.12l-5-3.91,2.4-1.14,10.77,2.69,8.7-3.55Z" style="fill:#d8e4ef;fill-rule:evenodd"/><polygon points="56.34 75.33 55.66 75.14 54.43 79.59 52.37 79.6 52.66 79.97 54.21 80.37 54.12 80.7 54.6 82.48 55.09 82.45 54.6 80.68 55.42 80.55 55.69 81.46 56.75 81.46 57.09 79.59 55.23 79.59 56.56 74.48 56.97 74.28 56.34 75.33 56.34 75.33" style="fill:#b8702e;fill-rule:evenodd"/><path d="M93.37,73.7l-9.27-1H79l0,4.75L77,79s-.87-3.08-1.35-4.5l-2.06,1.31L73,73.31l3.17-5.84,3.45,1.1-.87,2.53.51.32L85.42,64l.59.16-.49,4.64,4.7,1.27,3.15,3.65Z" style="fill:#efcc47;fill-rule:evenodd"/><polygon points="60.14 75.6 60.14 79.22 70.03 84.92 74.98 82.06 76.74 82.55 77.72 79.71 74.19 73.44 60.17 75.06 60.14 75.6 60.14 75.6" style="fill:#d8e4ef;fill-rule:evenodd"/><polygon points="77.01 78.44 74.19 73.44 71.38 73.76 71.38 78.44 77.01 78.44 77.01 78.44" style="fill:#fcd9bc;fill-rule:evenodd"/><polygon points="75.74 79.91 76.25 79.91 76.31 79.91 76.31 80.94 74.78 80.94 74.78 79.91 75.74 79.91 75.74 79.91" style="fill:#768930;fill-rule:evenodd"/><polygon points="77.49 81.26 76.04 86.18 69.42 90.76 61.7 90.76 61.7 90.03 69.27 90.03 75.29 85.9 76.62 81.78 77.49 81.26 77.49 81.26" style="fill:#fff;fill-rule:evenodd"/><path d="M74,71.42h2.07l2-3,.33.15-1.8,5.12.68,4.57-.12.36-.75-.44S73,72,72.9,72.2,74,71.42,74,71.42Z" style="fill:#768930;fill-rule:evenodd"/><path d="M79,76.77l-1.89,1.69-.71-1.32-.45.24,1.25,2.47-.83,2.61.68.18.82-2.77-.4-.8L79,77.82s.5-.53.43-.57-.43-.48-.43-.48Z" style="fill:#768930;fill-rule:evenodd"/><path d="M79,76.77l-1.72,1.54h0L79.23,77l-.2-.23Z" style="fill:#fff;fill-rule:evenodd"/><polygon points="82.33 77.3 82.33 76.2 84.72 74.83 82.78 69.63 83.79 69.08 87.72 70.85 94.32 66.25 99.04 69.3 86.34 77.49 82.33 77.3 82.33 77.3" style="fill:#9a9e25;fill-rule:evenodd"/><polygon points="83.3 77.82 83.21 76.77 79.03 76.77 79.03 77.82 83.3 77.82 83.3 77.82" style="fill:#fff;fill-rule:evenodd"/><polygon points="60.14 75.6 60.14 76.62 63.62 78.33 63.88 77.91 61.54 76.17 61.54 74.94 60.17 75.06 60.14 75.6 60.14 75.6" style="fill:#efcc47;fill-rule:evenodd"/><polygon points="56.17 73.36 57.65 76.4 66.31 72.62 66.01 71.36 61.45 71.34 56.17 73.36 56.17 73.36" style="fill:#a5c332;fill-rule:evenodd"/><polygon points="73.96 77.6 73.96 79.12 69.12 83.39 66.26 81.31 69.38 79.12 69.38 76.89 62.78 76.89 62.78 75.02 71.45 74.12 73.96 77.6 73.96 77.6" style="fill:#99d0e4;fill-rule:evenodd"/><path d="M107.06,72.55l2.58,5.15,0,4.1-2,4.64s-2.48-.31-2.6-.41-1-12.92-1-12.92l3.13-.56Z" style="fill:#768930;fill-rule:evenodd"/><polygon points="108.08 79.57 107.12 79.57 107.12 80.65 108.72 80.65 108.72 79.85 108.37 79.85 108.08 79.57 108.08 79.57" style="fill:#842351;fill-rule:evenodd"/><polygon points="94.72 89.64 101.71 89.64 108.33 81.82 104.06 78.6 93.59 82.44 94.72 89.64 94.72 89.64" style="fill:#ef8d90;fill-rule:evenodd"/><polygon points="101.65 82.48 107.19 82.48 107.19 86.31 101.21 90.48 95.78 90.45 92.03 87.88 94.49 81.4 101.65 82.48 101.65 82.48" style="fill:#ef8d90;fill-rule:evenodd"/><polygon points="101.65 82.48 107.19 82.48 107.19 83.17 101.83 89.5 94.7 89.5 93.74 83.37 94.17 82.23 95.87 81.61 101.65 82.48 101.65 82.48" style="fill:#efcc47;fill-rule:evenodd"/><polygon points="60.86 71.14 56.17 73.36 56.61 74.27 61.51 71.3 60.86 71.14 60.86 71.14" style="fill:#561a26;fill-rule:evenodd"/><polygon points="102.22 82.48 94.83 82.48 94.83 89.81 90.37 87.44 89.14 78.35 96.57 77.71 102.22 82.48 102.22 82.48" style="fill:#f1a049;fill-rule:evenodd"/><polygon points="94.83 82.48 94.83 89.81 90.37 87.44 90.08 85.3 90.08 82.48 94.83 82.48 94.83 82.48" style="fill:#a5c332;fill-rule:evenodd"/><path d="M91.42,77.28l-1.49,1.87,3.72,4.34-2.35,4-1.84-.53-2.29-6.28s2.59-3.06,2.69-3,1.56-.31,1.56-.31Z" style="fill:#a74522;fill-rule:evenodd"/><polygon points="92.78 82.48 93.66 83.49 91.3 87.45 90.08 87.09 90.08 82.48 92.78 82.48 92.78 82.48" style="fill:#768930;fill-rule:evenodd"/><polygon points="85.22 76.77 85.22 70.71 86.7 70.71 85.68 73.98 86.01 74.18 91.14 68.85 95.68 69.57 95.79 69.26 93.38 68.73 93.93 67.92 97.23 68.85 103.2 66.18 105.24 68.16 101.59 70.83 87.11 78.21 85.22 76.77 85.22 76.77" style="fill:#842351;fill-rule:evenodd"/><polygon points="85.56 76.77 82.33 76.77 82.33 77.82 85.05 77.82 86.89 79.74 88.09 77.88 85.56 76.77 85.56 76.77" style="fill:#561a26;fill-rule:evenodd"/><polygon points="85.22 76.77 82.33 76.77 82.19 76.86 82.33 76.97 85.22 76.97 85.22 76.77 85.22 76.77" style="fill:#fff;fill-rule:evenodd"/><polygon points="55.57 66.67 56.11 65.95 61.4 68.69 63.55 67.61 64.04 68.47 61.69 69.03 61.96 69.5 66.46 68.24 75.57 72.08 75.53 74.89 74.65 74.89 71.17 72.05 63.45 70.38 59.1 69.65 55.57 66.67 55.57 66.67" style="fill:#a74522;fill-rule:evenodd"/><polygon points="61.03 71.28 55.57 66.67 55.83 66.34 59.52 68.71 59.74 68.42 58.22 67.36 59.2 66.9 61.56 70.03 65.56 68.93 65.65 69.18 64 69.96 64.12 70.19 66.37 68.98 73.72 72.21 72.72 73.85 66.11 70.96 61.03 71.28 61.03 71.28" style="fill:#561a26;fill-rule:evenodd"/><polygon points="58.54 67.21 59.2 66.9 60 67.97 58.54 67.21 58.54 67.21" style="fill:#a74522;fill-rule:evenodd"/><polygon points="87.11 78.21 85.56 76.77 91.14 70.63 100.92 68.98 107.23 72.28 106.51 73.41 91.06 75.92 87.81 78.99 87.11 78.21 87.11 78.21" style="fill:#151514;fill-rule:evenodd"/><polygon points="65.7 72.34 65.7 71.74 60.79 71.74 62.69 70.58 69.22 70.58 74.19 73.44 76.66 78.1 76.13 78.41 73.22 74.27 71.7 75.06 65.7 72.34 65.7 72.34" style="fill:#a74522;fill-rule:evenodd"/><polygon points="65.7 72.34 65.7 71.74 61.21 71.74 61.21 71.48 62.69 70.58 69.22 70.58 73.97 73.31 67.84 73.31 65.7 72.34 65.7 72.34" style="fill:#561a26;fill-rule:evenodd"/><polygon points="70.63 75.01 70.63 76.96 64.4 78.02 64.4 78.44 73.96 78.44 73.96 75.95 71.45 74.12 70.63 75.01 70.63 75.01" style="fill:#9a9e25;fill-rule:evenodd"/><polygon points="103.93 73.11 107.23 77.89 103.7 82.48 100.75 82.48 100.75 76.56 100.49 76.56 103.93 73.11 103.93 73.11" style="fill:#a74522;fill-rule:evenodd"/><polygon points="87.97 78.21 87.81 78 87.38 78.21 87.11 78.21 86.76 80.65 89.46 86.92 95.8 90.58 101.31 90.58 107.91 86.22 109.79 81.84 109.64 77.7 109.17 77.69 109.28 81.77 107.36 85.89 101.14 90.18 95.88 90.18 89.85 86.58 87.47 80.61 87.97 78.21 87.97 78.21" style="fill:#fff;fill-rule:evenodd"/><path d="M91.42,77.28l-.85,1-1.31.29.59-3,12.56-.9L102,79.47l-7.5.27a3.36,3.36,0,0,1,.35-.56l-3.45-1.9Z" style="fill:#ef8d90;fill-rule:evenodd"/><polygon points="91.42 77.28 90.38 78.59 89.26 78.59 89.85 75.64 93.58 75.37 93.58 78.47 91.42 77.28 91.42 77.28" style="fill:#a74522;fill-rule:evenodd"/><polygon points="101.75 81.4 94.49 81.4 92.82 78.59 90.38 78.59 91.42 77.28 93.58 78.47 94.87 79.18 100.75 79 100.75 78.09 102.18 76.85 102.94 77.17 102.78 77.69 104.06 78.6 101.75 81.4 101.75 81.4" style="fill:#fcd9bc;fill-rule:evenodd"/><polygon points="101.75 81.4 100.75 81.4 100.75 79 100.75 78.09 102.18 76.85 102.94 77.17 102.78 77.69 104.06 78.6 101.75 81.4 101.75 81.4" style="fill:#c7ac2b;fill-rule:evenodd"/><polygon points="104.24 76.53 102.57 78.77 94.36 78.58 94.36 78.01 100.75 77.14 100.75 75.16 103.65 74.42 104.24 76.53 104.24 76.53" style="fill:#768930;fill-rule:evenodd"/><polygon points="94.75 72.02 94.63 71.8 89.58 75.19 90.86 75.68 94.75 72.02 94.75 72.02" style="fill:#a74522;fill-rule:evenodd"/><polygon points="93.58 75.2 93.58 76.43 90.07 76.43 89.66 81.11 87.67 81.11 87.47 80.61 87.97 78.21 89.2 74.86 94.34 70.79 101.57 69.7 106.78 73.03 106.33 73.66 93.58 75.2 93.58 75.2" style="fill:#151514;fill-rule:evenodd"/><path d="M90.63,75.58l-.91-.77L94,72.31l.13.17s-3.53,3.1-3.51,3.1Z" style="fill:#561a26;fill-rule:evenodd"/><polygon points="95.12 71.75 95.12 71.09 101.59 70.83 106.69 73.16 104.76 75.82 102.97 73.57 95.12 71.75 95.12 71.75" style="fill:#a74522;fill-rule:evenodd"/><polygon points="63.96 72.49 60.44 72.69 57.31 76.55 57.63 76.84 60.62 75.36 62.41 75.36 63.96 72.49 63.96 72.49" style="fill:#561a26;fill-rule:evenodd"/><polygon points="97.64 71.86 103.24 72.14 105.31 75.09 103.17 77.97 102.39 77.41 103.71 75.58 103.02 75.11 100.57 76.47 99.3 76.47 97.64 71.86 97.64 71.86" style="fill:#561a26;fill-rule:evenodd"/><path d="M66.72,76.5h.43V74.66l.77-.62L66.4,75.26l.32,1.24Zm2.63,0,2.45-2L70,72.33l-1.88,1.51h2.47v1.64l-1.28,1Z" style="fill:#a74522;fill-rule:evenodd"/><polygon points="67.15 76.5 69.35 76.5 70.63 75.48 70.63 73.84 68.17 73.84 67.15 74.66 67.15 76.5 67.15 76.5" style="fill:#efcc47;fill-rule:evenodd"/><polygon points="66.92 76.5 64.3 76.5 61.26 74.73 63.16 72.78 65.61 73.36 66.92 76.5 66.92 76.5" style="fill:#9a9e25;fill-rule:evenodd"/><polygon points="66.92 76.5 64.3 76.5 62.78 75.61 62.78 74.03 65.89 74.03 66.92 76.5 66.92 76.5" style="fill:#fcd9bc;fill-rule:evenodd"/><polygon points="97.75 76.49 99.97 76.49 102.36 74.09 100.24 72.34 97.75 76.49 97.75 76.49" style="fill:#768930;fill-rule:evenodd"/><polygon points="97.75 76.49 99.97 76.49 100.75 75.71 100.75 73.71 99.42 73.71 97.75 76.49 97.75 76.49" style="fill:#efcc47;fill-rule:evenodd"/><polygon points="96.55 76.49 94.53 76.49 91.87 75.08 93.99 72.6 96.33 74.79 96.55 76.49 96.55 76.49" style="fill:#9a9e25;fill-rule:evenodd"/><polygon points="96.55 76.49 94.53 76.49 93.58 75.99 93.58 73.97 95.45 73.97 96.33 74.79 96.55 76.49 96.55 76.49" style="fill:#fcd9bc;fill-rule:evenodd"/><polygon points="64.09 73.24 64.12 74.86 66.05 76.5 67.79 76.5 69.66 74.76 69.66 72.95 70.09 72.95 72.31 75.05 72.31 76.27 73.96 76.27 73.96 75.65 69.67 72.02 62.66 72.59 60.07 74.74 61.23 75.2 63.29 73.24 64.09 73.24 64.09 73.24" style="fill:#151514;fill-rule:evenodd"/><path d="M94.26,73.23v1.29l2,2h2.16l1.76-2V73l.3-.19,2.43,2.2,1.08-.6L100.16,72l-5-.21-4.88,3.67,1.45.6,2.12-2.77a3.39,3.39,0,0,0,.45,0Z" style="fill:#151514;fill-rule:evenodd"/><polygon points="65.25 73.82 64.42 74.33 66.03 76.12 67.69 76.12 69.25 74.56 68.41 73.29 68 75.09 66.13 75.09 66.13 73.76 65.25 73.82 65.25 73.82" style="fill:#842351;fill-rule:evenodd"/><polygon points="66.73 76.12 67.69 76.12 68.61 75.19 68.08 74.77 68 75.09 66.13 75.09 66.13 74.87 65.74 75.29 66.73 76.12 66.73 76.12" style="fill:#a74522;fill-rule:evenodd"/><polygon points="95.53 73.97 94.85 74.44 96.43 76.08 98.06 76.08 99.82 74.27 99.21 72.85 98.31 75.15 96.33 75.15 96.31 73.94 95.53 73.97 95.53 73.97" style="fill:#842351;fill-rule:evenodd"/><polygon points="96.91 76.08 98.06 76.08 99.09 75.02 98.54 74.55 98.31 75.15 96.33 75.15 96.33 75.11 96.1 75.3 96.91 76.08 96.91 76.08" style="fill:#a74522;fill-rule:evenodd"/><path d="M95.4,73.67l.27.61,1.07-.57-.13-.28-1.21.24Zm1.69-.4h.25v.25h-.25v-.25Z" style="fill:#fff;fill-rule:evenodd"/><polygon points="99.09 75.02 98.76 74.74 97.82 76.08 98.06 76.08 99.09 75.02 99.09 75.02" style="fill:#fff;fill-rule:evenodd"/><path d="M65.09,73.46l.31.71,1.25-.66-.14-.33-1.42.28Zm2-.47h.31v.3h-.31V73Z" style="fill:#fff;fill-rule:evenodd"/><polygon points="68.61 75.19 68.29 74.94 67.46 76.12 67.69 76.12 68.61 75.19 68.61 75.19" style="fill:#fff;fill-rule:evenodd"/><polygon points="87.42 78.21 88.89 74.55 94.09 70.36 101.57 69.7 107.26 72.66 109.64 77.7 109.31 77.96 106.88 73.09 101.48 70.27 94.34 70.79 89.3 74.92 87.97 78.21 87.42 78.21 87.42 78.21" style="fill:#fff;fill-rule:evenodd"/><polygon points="107.39 79.26 108.37 79.26 108.37 80.23 107.39 80.23 107.39 79.26 107.39 79.26" style="fill:#fff;fill-rule:evenodd"/><polygon points="55.19 79.6 56.61 74.27 62.35 70.39 69.23 70.32 74.34 73.24 76.89 77.99 76.44 78.23 73.92 73.57 69.03 70.87 62.54 71.07 56.72 74.96 55.63 79.59 55.19 79.6 55.19 79.6" style="fill:#fff;fill-rule:evenodd"/><polygon points="88.27 79.51 89.32 79.51 89.32 80.55 88.27 80.55 88.27 79.51 88.27 79.51" style="fill:#fff;fill-rule:evenodd"/><polygon points="75.89 79.91 76.25 79.91 77.17 78.97 77.43 79.22 76.31 80.94 75.89 79.91 75.89 79.91" style="fill:#768930;fill-rule:evenodd"/><polygon points="108.22 79.71 109.33 79.71 109.33 80 108.07 80 108.22 79.71 108.22 79.71" style="fill:#fff;fill-rule:evenodd"/><polygon points="77.44 98.11 80.74 100.26 79.82 100.06 79.53 99.93 77.97 98.95 75.45 98.2 75.45 98.11 77.44 98.11 77.44 98.11" style="fill:#a74522;fill-rule:evenodd"/><polygon points="89.18 93.37 90.54 95.42 87.81 96.89 87.57 96.47 89.18 93.37 89.18 93.37" style="fill:#a74522;fill-rule:evenodd"/><polygon points="109.69 79.07 111.81 79.07 115.74 71.48 116.16 71.73 112.14 79.89 109.72 79.89 109.69 79.07 109.69 79.07" style="fill:#151514;fill-rule:evenodd"/><polygon points="68.35 110.95 70.14 108.84 71.52 110.27 84.24 110.9 97.52 107.23 98.28 108.47 93.85 112.78 93.11 112.33 94.55 111.55 94.35 111.07 87.82 113.08 87.72 112.83 92.19 110.39 92.09 110.03 84.08 111.32 71.04 110.58 68.75 111.21 68.35 110.95 68.35 110.95" style="fill:#151514;fill-rule:evenodd"/><polygon points="114.91 118.77 99.49 135.19 121 154.46 128.92 148.91 115.59 135.32 117.07 134.2 130.01 147 143.86 134.2 133.04 130.4 127.97 135.82 127.33 135.31 129.93 129.31 121.1 126.22 114.91 118.77 114.91 118.77" style="fill:#266b77;fill-rule:evenodd"/><polygon points="56.2 128.46 57.04 133.83 67.96 143.09 67.88 149.58 50.59 162.87 34.33 157.27 47.52 146.61 44.67 143.87 17.75 172.37 6.14 162.55 46.79 139.76 54.33 141.57 54.79 141.07 50.6 137.63 55.86 134.68 55.77 128.46 56.2 128.46 56.2 128.46" style="fill:#561a26;fill-rule:evenodd"/><polygon points="77.8 131.7 87.04 138.04 87.57 137.39 80.32 130.68 77.8 131.7 77.8 131.7" style="fill:#6fadcf;fill-rule:evenodd"/><polygon points="132.23 66.44 137.69 66.44 137.69 71.91 132.23 71.91 132.23 66.44 132.23 66.44" style="fill:#f1a049;fill-rule:evenodd"/><polygon points="12.97 104.78 17.98 104.78 17.98 109.79 12.97 109.79 12.97 104.78 12.97 104.78" style="fill:#fcd9bc;fill-rule:evenodd"/><polygon points="38.16 162.31 43.44 162.31 43.44 167.59 38.16 167.59 38.16 162.31 38.16 162.31" style="fill:#ed7d2e;fill-rule:evenodd"/><polygon points="131.6 150.28 134.87 150.28 134.87 153.56 131.6 153.56 131.6 150.28 131.6 150.28" style="fill:#9a9e25;fill-rule:evenodd"/><path d="M60.13,177.75l-1.25.23a3.37,3.37,0,0,0,.08-.63c0-1.09-.66-1.63-2-1.63-1,0-1.55.37-1.55,1.12,0,.56.58,1,1.73,1.44,2.24.77,3.35,1.9,3.35,3.41a2.66,2.66,0,0,1-.94,2.13,3.75,3.75,0,0,1-2.5.8q-3.46,0-3.46-2.68a4,4,0,0,1,0-.54l1.3-.28a4.19,4.19,0,0,0-.15,1q0,1.74,2,1.74c1.06,0,1.59-.42,1.59-1.25,0-.62-.63-1.17-1.9-1.63-1.83-.68-2.75-1.75-2.75-3.23a2.5,2.5,0,0,1,.92-2,3.59,3.59,0,0,1,2.41-.77c2,0,3.07.92,3.07,2.77Z" style="fill:#e95e85"/><polygon points="68.25 175.13 68.25 176.07 65.97 176.07 65.97 184.45 63.1 184.45 63.1 176.07 60.8 176.07 60.8 175.13 68.25 175.13 68.25 175.13" style="fill:#e95e85"/><polygon points="74.98 175.13 74.98 176.07 71.64 176.07 71.64 178.89 74.45 178.89 74.45 179.82 71.64 179.82 71.64 183.51 75.56 183.51 75.56 184.45 68.95 184.45 68.95 175.13 74.98 175.13 74.98 175.13" style="fill:#e95e85"/><polygon points="83.11 175.13 80.41 184.45 77.99 184.45 75.52 175.13 78.25 175.13 80.09 182.19 82.1 175.13 83.11 175.13 83.11 175.13" style="fill:#e95e85"/><polygon points="89.85 175.13 89.85 176.07 86.51 176.07 86.51 178.89 89.32 178.89 89.32 179.82 86.51 179.82 86.51 183.51 90.42 183.51 90.42 184.45 83.81 184.45 83.81 175.13 89.85 175.13 89.85 175.13" style="fill:#e95e85"/><path d="M96.08,175.14v6.25q0,1.4,0,1.8a1.46,1.46,0,0,1-.26.73,1.22,1.22,0,0,1-.64.44,4.06,4.06,0,0,1-1.2.13H92.73v-1.64l.32,0a.57.57,0,0,0,.4-.13.44.44,0,0,0,.17-.31,6.09,6.09,0,0,0,0-.72v-6.57Z" style="fill:#266b77"/><path d="M102.57,180.62a18.27,18.27,0,0,1-.07,2,2.2,2.2,0,0,1-.41,1.07,2.26,2.26,0,0,1-.94.75,3.78,3.78,0,0,1-2.73,0,2.25,2.25,0,0,1-1.4-1.8c0-.39-.06-1.06-.06-2V179c0-.94,0-1.61.06-2a2.21,2.21,0,0,1,.42-1.07,2.18,2.18,0,0,1,.94-.74,3.33,3.33,0,0,1,1.38-.26,3.61,3.61,0,0,1,1.35.24,2.22,2.22,0,0,1,1,.74,2.27,2.27,0,0,1,.43,1.07,18.56,18.56,0,0,1,.07,2v1.6Zm-2.44-3.07a2.87,2.87,0,0,0-.07-.84.27.27,0,0,0-.29-.18.32.32,0,0,0-.28.15,2,2,0,0,0-.1.87v4.36a3.84,3.84,0,0,0,.07,1,.27.27,0,0,0,.3.19.29.29,0,0,0,.31-.22,5.22,5.22,0,0,0,.06-1v-4.29Z" style="fill:#266b77"/><path d="M103.48,175.14h2.42a5.94,5.94,0,0,1,1.74.18,1.66,1.66,0,0,1,1,.72,3.18,3.18,0,0,1,.37,1.76,1.91,1.91,0,0,1-.26,1.14,1.79,1.79,0,0,1-1,.49,1.79,1.79,0,0,1,1.14.64,2.41,2.41,0,0,1,.3,1.35v.87a3.51,3.51,0,0,1-.21,1.4,1.16,1.16,0,0,1-.69.63,7.07,7.07,0,0,1-1.94.17h-2.81v-9.35Zm2.44,1.59v2.08h.24c.23,0,.38-.06.44-.18a2.76,2.76,0,0,0,.1-1,1.67,1.67,0,0,0-.08-.61.37.37,0,0,0-.21-.23,2.12,2.12,0,0,0-.49-.05Zm0,3.54v2.62a1,1,0,0,0,.64-.16,1.19,1.19,0,0,0,.14-.71v-.88a1.32,1.32,0,0,0-.12-.73,1.18,1.18,0,0,0-.66-.14Z" style="fill:#266b77"/><path d="M115.15,178H112.9v-.69a1.34,1.34,0,0,0-.09-.62.31.31,0,0,0-.29-.13.38.38,0,0,0-.33.18,1.09,1.09,0,0,0-.11.54,1.43,1.43,0,0,0,.13.7,1.78,1.78,0,0,0,.69.57,7.12,7.12,0,0,1,2,1.59,3.63,3.63,0,0,1,.43,2,3.37,3.37,0,0,1-.24,1.47,1.84,1.84,0,0,1-.9.8,3.65,3.65,0,0,1-1.56.32,3.54,3.54,0,0,1-1.66-.37,1.87,1.87,0,0,1-.91-.94,5,5,0,0,1-.21-1.63v-.61h2.26v1.14a1.55,1.55,0,0,0,.09.67.38.38,0,0,0,.34.15.39.39,0,0,0,.36-.19,1,1,0,0,0,.12-.56,1.84,1.84,0,0,0-.22-1.08,8,8,0,0,0-1.14-.85,12.25,12.25,0,0,1-1.2-.87,2.12,2.12,0,0,1-.49-.75,3.53,3.53,0,0,1-.19-1.23,3.45,3.45,0,0,1,.27-1.57,1.84,1.84,0,0,1,.89-.77,3.47,3.47,0,0,1,1.47-.28,3.94,3.94,0,0,1,1.62.3,1.75,1.75,0,0,1,.88.77,4.21,4.21,0,0,1,.21,1.58V178Z" style="fill:#266b77"/><polygon points="109.04 157.08 111.23 157.08 111.23 159.27 109.04 159.27 109.04 157.08 109.04 157.08" style="fill:#e95e85;fill-rule:evenodd"/><path d="M57.13,186.87V190h-.87v-2.35a1.58,1.58,0,0,1-.65.19v-.41a1.17,1.17,0,0,0,1-.55Zm14.49,0-.12.66H70l-.11.67a1.37,1.37,0,0,1,.77-.26,1.14,1.14,0,0,1,.8.29.93.93,0,0,1,.31.73,1,1,0,0,1-.35.79,1.45,1.45,0,0,1-.94.29c-.72,0-1.08-.25-1.08-.74a1.38,1.38,0,0,1,0-.26l.41-.09a1.48,1.48,0,0,0,0,.34c0,.31.16.47.49.47s.59-.28.59-.84c0-.4-.16-.59-.5-.59a.64.64,0,0,0-.53.31l-.36-.08.29-1.69Zm-9.07,2.33.41-.08a1.06,1.06,0,0,0,0,.24c0,.29.13.43.4.43a.39.39,0,0,0,.39-.22,2.94,2.94,0,0,0,.17-.88.89.89,0,0,1-.59.26.88.88,0,0,1-.67-.29,1.05,1.05,0,0,1-.26-.73,1.06,1.06,0,0,1,.32-.8,1.11,1.11,0,0,1,.83-.31c.88,0,1.31.53,1.31,1.59a1.72,1.72,0,0,1-.38,1.19,1.31,1.31,0,0,1-1,.44c-.59,0-.88-.22-.88-.66a1.28,1.28,0,0,1,0-.18Zm1.05-2.13c-.22,0-.33.29-.33.86s.09.7.29.7.37-.25.37-.75-.11-.81-.33-.81Zm15.12-.2-.12.66H77.13l-.12.67a1.37,1.37,0,0,1,.77-.26,1.14,1.14,0,0,1,.8.29.93.93,0,0,1,.31.73,1,1,0,0,1-.35.79,1.45,1.45,0,0,1-.94.29c-.72,0-1.08-.25-1.08-.74a1.38,1.38,0,0,1,0-.26L77,189a1.48,1.48,0,0,0,0,.34c0,.31.16.47.49.47s.6-.28.6-.84c0-.4-.17-.59-.51-.59a.64.64,0,0,0-.53.31l-.36-.08.29-1.69Zm7.19,1.63v.6H84.79v-.6Z" style="fill:#e95e85"/><path d="M94.08,189.24V190H91.76v-.44c.19-.21.41-.44.66-.67.55-.53.82-.93.82-1.21s-.14-.56-.44-.56-.54.22-.54.67a1.94,1.94,0,0,0,.08.45l-.48-.11a1.82,1.82,0,0,1,0-.35c0-.63.39-.94,1.16-.94a1.33,1.33,0,0,1,.82.24.76.76,0,0,1,.32.63c0,.29-.21.6-.63,1l-.28.22-.32.26-.14.11Zm5.93-2.41c.86,0,1.3.53,1.3,1.6S100.87,190,100,190s-1.31-.54-1.31-1.61.44-1.6,1.31-1.6Zm0,.24c-.24,0-.36.46-.36,1.36s.12,1.36.36,1.36.35-.45.35-1.36-.12-1.36-.35-1.36Zm7.58-.2V190h-.87v-2.35a1.58,1.58,0,0,1-.65.19v-.41a1.17,1.17,0,0,0,1-.55Zm7,0V190h-.87v-2.35a1.58,1.58,0,0,1-.65.19v-.41a1.17,1.17,0,0,0,1-.55Z" style="fill:#266b77"/><polygon points="55.71 78.96 57.44 78.96 57.44 80.69 55.71 80.69 55.71 78.96 55.71 78.96" style="fill:#fff;fill-rule:evenodd"/><polygon points="75.08 79.69 76.11 79.69 76.11 80.72 75.08 80.72 75.08 79.69 75.08 79.69" style="fill:#fff;fill-rule:evenodd"/></svg>