<svg xmlns="http://www.w3.org/2000/svg" viewBox="0 0 378.34 289.7"><path d="M373.94,222.4a87.44,87.44,0,0,1-13.11,26.38,56.33,56.33,0,0,1-17.43,15.3c-9.94,5.83-20.72,9.59-31.77,12.65a306.62,306.62,0,0,1-42.48,8.11c-7,.91-33.86,3-53.25,3.86s-44.53,1.29-69.43.8c-27.87-.56-53.11-3.07-76.6-11.24-17.44-6.06-35.49-19.78-39.62-24.75C21.87,244.31,16.59,237,12.64,230A95.51,95.51,0,0,1,4,210.1,74.42,74.42,0,0,1,.23,193.43a32.53,32.53,0,0,1,5.21-21.65,25.89,25.89,0,0,1,11.41-9.49c6-2.78,12.47-4.22,19-5.42,10-1.83,20.09-2.91,30-5a92,92,0,0,0,21.47-7.08,62.06,62.06,0,0,0,13.74-9.12c8.1-7.09,13.8-15.85,18.23-25.55a152.64,152.64,0,0,0,6.91-19.65,148.59,148.59,0,0,1,6.13-16.51,132.54,132.54,0,0,1,12.15-22.13A124.25,124.25,0,0,1,155,38.48a114.41,114.41,0,0,1,22.6-19.17,108.11,108.11,0,0,1,14.71-8A117.45,117.45,0,0,1,229.09.82,128.19,128.19,0,0,1,261,1.16c14.16,1.27,33.88,12,40.59,16.35s19.31,15.26,19.37,15.41c.19.5,18.54,16.15,30.86,42a281.86,281.86,0,0,1,15.43,39.62,278.61,278.61,0,0,1,8.52,34c1.28,7.08,2.62,20.51,2.62,36.47S376.57,213.76,373.94,222.4Z" style="fill:#444" id="svg-photo"/></svg>