<svg xmlns="http://www.w3.org/2000/svg" viewBox="0 0 384.98 310.63"><path d="M326.89,4.39c-42.06-24-110.7,55.47-178.55,121.71-54.34,53-8.23,40.5-45.36,38.41s-135.51-.61-92.15,41.77C53.4,247.89,207.15,327.8,270.49,307.34c59.87-19.35,70.92-104.46,75.25-144.42C349.9,124.61,367.84,27.81,326.89,4.39Z" style="fill:#fdc11f"/><path d="M138.07,105.49c11.29,0,21.84.24,31.15.44,6.48.15,12.17.28,17,.3v17.71a1.49,1.49,0,0,0,1.5,1.5,2,2,0,0,0,.35,0,269.56,269.56,0,0,1,63.83-8.22c36.93,0,69.25,9.26,93.48,26.78,21.06,15.23,34.75,36.33,37.57,57.89a59.46,59.46,0,0,1-11.09,43.85c-10.13,13.74-26.47,23.93-47.26,29.46-18.84,5-40,7.56-63,7.56-47.88,0-101.78-11.34-147.85-31.11-22.78-9.77-42.45-21-58.46-33.39C38.58,205.29,26.74,191.77,20.1,178c-8.27-17.1-9-31.28-2.18-42.15,7.34-11.71,23.7-20.12,48.61-25,18.46-3.62,41.86-5.38,71.54-5.38m0-1.5c-64.92,0-151.62,7.86-119.32,74.68,27.77,57.46,143,105.55,242.85,105.55,22.28,0,43.77-2.39,63.37-7.61,104.58-27.84,67.62-160.93-73.09-160.93-19.45,0-40.86,2.54-64.18,8.26V104.73c-11.75,0-29.66-.74-49.63-.74Z" style="fill:#fff"/></svg>