<svg xmlns="http://www.w3.org/2000/svg" xmlns:xlink="http://www.w3.org/1999/xlink" viewBox="0 0 825.44 747.2"><defs><filter id="b" x="360.74" y="-10197.1" width="31.18" height="32766" filterUnits="userSpaceOnUse" color-interpolation-filters="sRGB"><feFlood flood-color="#fff" result="bg"/><feBlend in="SourceGraphic" in2="bg"/></filter><mask id="a" x="360.74" y="-10197.1" width="31.18" height="32766" maskUnits="userSpaceOnUse"><g style="filter:url(#b)"/></mask><linearGradient id="c" x1="362.22" y1="391.04" x2="380.27" y2="357.97" gradientUnits="userSpaceOnUse"><stop offset="0" stop-color="#fff"/><stop offset="1"/></linearGradient><linearGradient id="d" x1="360.74" y1="365.2" x2="409.33" y2="365.2" gradientUnits="userSpaceOnUse"><stop offset="0" stop-color="#ff9f55"/><stop offset="1" stop-color="#ffd255"/></linearGradient><filter id="f" x="360.74" y="343.88" width="31.18" height="42.64" filterUnits="userSpaceOnUse" color-interpolation-filters="sRGB"><feFlood flood-color="#fff" result="bg"/><feBlend in="SourceGraphic" in2="bg"/></filter><mask id="e" x="360.74" y="343.88" width="31.18" height="42.64" maskUnits="userSpaceOnUse"><g style="mask:url(#a);filter:url(#f)"><path d="M391.92,386.52H366.68l-5.94-42.64H374.4s-4.9,38.48,17.52,42.64Z" style="mix-blend-mode:multiply;fill:url(#c)"/></g></mask><linearGradient id="g" x1="362.22" y1="391.04" x2="380.27" y2="357.97" gradientUnits="userSpaceOnUse"><stop offset="0" stop-color="#ffa155"/><stop offset="1" stop-color="#ffa155"/></linearGradient><linearGradient id="h" x1="368.35" y1="344.16" x2="380.03" y2="322.77" gradientUnits="userSpaceOnUse"><stop offset="0.01" stop-color="#e6e6e6"/><stop offset="1" stop-color="#ffdcc2"/></linearGradient><linearGradient id="i" x1="382.07" y1="344.08" x2="390.63" y2="328.39" xlink:href="#h"/><linearGradient id="j" x1="361.25" y1="344.08" x2="369.82" y2="328.39" xlink:href="#h"/><linearGradient id="k" x1="516.57" y1="348.57" x2="516.57" y2="266.17" xlink:href="#d"/><linearGradient id="l" x1="-8463.94" y1="388.32" x2="-8420.1" y2="388.32" gradientTransform="matrix(-1, 0, 0, 1, -7934.21, 0)" xlink:href="#d"/><linearGradient id="m" x1="-8417.39" y1="203.26" x2="-8375.57" y2="203.26" gradientTransform="matrix(-1, 0, 0, 1, -7934.21, 0)" xlink:href="#d"/></defs><polygon points="161.31 0 296.55 0.62 296.1 98.65 296 119.3 275.45 98.55 160.85 98.03 161.31 0" style="fill:#ffc655"/><path d="M218.36,53.21a10.33,10.33,0,1,0,10.36-10.3A10.32,10.32,0,0,0,218.36,53.21Z" style="fill:#fff"/><path d="M184.44,53.1A10.33,10.33,0,1,0,194.8,42.81,10.33,10.33,0,0,0,184.44,53.1Z" style="fill:#fff"/><path d="M251.51,53.32A10.33,10.33,0,1,0,261.87,43,10.33,10.33,0,0,0,251.51,53.32Z" style="fill:#fff"/><path d="M406.16,351.6c-2.78-1.85-6.62-1.41-9.28-.74l1-7H360.74l5.94,42.64h25.24l.55-4,.54-3.82a15,15,0,0,0,10-3.95c4-3.68,6.32-9.6,6.32-16.25C409.33,354.54,407.61,352.56,406.16,351.6Zm-5.88,20.17a10.8,10.8,0,0,1-6.71,2.86l2.7-19.37c2-.68,5.74-1.56,7.65-.29.34.22,1.36.9,1.36,3.54C405.28,364,403.46,368.86,400.28,371.77Z" style="fill:url(#d)"/><g style="mask:url(#e)"><path d="M391.92,386.52H366.68l-5.94-42.64H374.4s-4.9,38.48,17.52,42.64Z" style="fill:url(#g)"/></g><path d="M377.82,314.52s-7.81,2.6-4.92,9.54,7.87,11.31,3.18,19.82c0,0,8.67-5.22,4.63-13.89S374.2,318.86,377.82,314.52Z" style="fill:url(#h)"/><path d="M389,322.34s-5.73,1.91-3.61,7,5.77,8.3,2.33,14.54c0,0,6.37-3.83,3.4-10.19S386.36,325.52,389,322.34Z" style="fill:url(#i)"/><path d="M368.19,322.34s-5.72,1.91-3.6,7,5.77,8.3,2.33,14.54c0,0,6.36-3.83,3.39-10.19S365.54,325.52,368.19,322.34Z" style="fill:url(#j)"/><rect x="513.76" y="100.37" width="81.33" height="81.33" rx="12.87" style="fill:#e0e0e0;opacity:0.72"/><rect x="630.56" y="122.64" width="77.85" height="7.15" style="fill:#e0e0e0"/><rect x="618.77" y="147.6" width="134.59" height="7.15" style="fill:#e0e0e0"/><rect x="618.77" y="131.47" width="105.82" height="7.15" style="fill:#e0e0e0"/><rect x="618.77" y="163.73" width="58.67" height="7.15" style="fill:#e0e0e0"/><rect x="526.18" y="121.7" width="56.48" height="38.67" style="fill:#7abffa"/><polygon points="526.19 160.38 554.42 138.75 582.67 160.37 526.19 160.38" style="fill:#68b4f2"/><polygon points="582.66 121.7 554.42 145.79 526.18 121.71 582.66 121.7" style="fill:#a3d5ff"/><rect x="338.22" y="15.2" width="81.33" height="81.33" rx="12.87" style="fill:#e0e0e0;opacity:0.72"/><rect x="443.23" y="30.17" width="146.65" height="7.15" style="fill:#e0e0e0"/><rect x="443.23" y="62.42" width="190.33" height="7.15" style="fill:#e0e0e0"/><rect x="443.23" y="46.3" width="75.17" height="7.15" style="fill:#e0e0e0"/><rect x="443.23" y="78.55" width="108.53" height="7.15" style="fill:#e0e0e0"/><rect x="350.64" y="36.53" width="56.48" height="38.67" style="fill:#7abffa"/><polygon points="350.65 75.2 378.88 53.58 407.13 75.19 350.65 75.2" style="fill:#68b4f2"/><polygon points="407.12 36.52 378.88 60.62 350.64 36.53 407.12 36.52" style="fill:#a3d5ff"/><rect x="679.39" y="238.77" width="104.76" height="7.15" style="fill:#e0e0e0"/><rect x="679.39" y="271.02" width="146.05" height="7.15" style="fill:#e0e0e0"/><rect x="679.39" y="254.89" width="87.44" height="7.15" style="fill:#e0e0e0"/><rect x="679.39" y="287.15" width="59.74" height="7.15" style="fill:#e0e0e0"/><rect x="574.38" y="223.8" width="81.33" height="81.33" rx="12.87" style="fill:#e0e0e0;opacity:0.72"/><rect x="586.8" y="245.13" width="56.48" height="38.67" style="fill:#7abffa"/><polygon points="586.81 283.8 615.04 262.18 643.29 283.79 586.81 283.8" style="fill:#68b4f2"/><polygon points="643.28 245.12 615.04 269.21 586.8 245.13 643.28 245.12" style="fill:#a3d5ff"/><path d="M558.8,270.58,511.49,377.15,510.22,380a12.8,12.8,0,0,1-5.26-.54l1-2.35,46.86-105.54-68.28-73.42-10.24-2.23,1.07-4.91,11.78,2.56Z" style="fill:url(#k)"/><path d="M486,397.75h43.78a16.37,16.37,0,0,0-.48-2.66c-1.31-5.2-6.11-16.2-23.15-16.2s-19.81,11-20.16,16.2A16.17,16.17,0,0,0,486,397.75Z" style="fill:url(#l)"/><path d="M441.35,174.57l3,8.38,17.93,50.8a31.38,31.38,0,1,0-20.89-59.18Z" style="fill:url(#m)"/><path d="M512.59,377.16v2.34a11.2,11.2,0,0,1-2.37.51,12.8,12.8,0,0,1-5.26-.54l-.31-.11v-2.25H506l5.49,0Z" style="fill:#ffa855"/><path d="M486,397.75h43.78a16.37,16.37,0,0,0-.48-2.66H485.94A16.17,16.17,0,0,0,486,397.75Z" style="fill:#ffa555"/><path d="M441.35,174.57l3,8.38c10.47,8.25,26.7,22.51,34.58,37a31.38,31.38,0,0,0-37.54-45.42Z" style="fill:#ffa855"/><path d="M293.62,264.49s7.63-9.64,8.83-11.08,5.95-2.79,11.49-3.84,13.34.27,14,1a5.22,5.22,0,0,1,1.85,3.91,11.54,11.54,0,0,1-.89,5.19,6.77,6.77,0,0,1,.12,6.06,6,6,0,0,1-.81,6.06s1.4,3-.45,5.05a36.92,36.92,0,0,0-6.4,2.43c-1.64,1.06-11.66,3.17-21.49,3.58C299.84,282.89,290.58,279.81,293.62,264.49Z" style="fill:#eea886"/><polygon points="73.5 562.2 30.04 743.44 20.46 743.44 57.32 561.81 73.5 562.2" style="fill:#858585"/><polygon points="120.92 562.2 77.45 743.44 67.88 743.44 104.74 561.81 120.92 562.2" style="fill:#858585"/><polygon points="197.62 562.2 241.09 743.44 250.66 743.44 213.8 561.81 197.62 562.2" style="fill:#858585"/><path d="M238.75,564H51.46s-13-.3-21.78-39C19.85,481.55,0,336.34,0,336.34s5.27-13.51,87.6-11.78L235,515.86S240.07,546,238.75,564Z" style="fill:#e2d2ca"/><path d="M244.52,382.75s9.54-4.15,16.7-2.47,23.92,7.92,32.2,9,16.16,5.85,16,8.6-63.93,5-64.23-1.26S244.52,382.75,244.52,382.75Z" style="fill:#eea886"/><path d="M293.62,264.49s-12.46,8.19-12.74,10.71c-.44,4.15,2.12,17.05,2.43,16.87s18.79-9.31,18.79-9.31Z" style="fill:#eea886"/><path d="M293.36,712.58s16,9.54,23.31,13.09S352.21,730.3,355,733s1.74,11.11-2.95,12-39.06,3.87-50.52,1.16-32.92,1.75-37.66.12-1.62-27.22.23-33S293.36,712.58,293.36,712.58Z" style="fill:#292c47"/><path d="M293.11,701.75l.25,10.83s-21.5,4-29.26.67l.54-11.9Z" style="fill:#1c1e30"/><path d="M330.93,712.58s16.05,9.54,23.32,13.09,35.54,4.63,38.33,7.3,1.74,11.11-2.95,12-39.06,3.87-50.52,1.16-32.92,1.75-37.66.12-1.62-27.22.23-33S330.93,712.58,330.93,712.58Z" style="fill:#323657"/><path d="M330.69,701.75l.24,10.83s-21.49,4-29.25.67l.54-11.9Z" style="fill:#1c1e30"/><polygon points="204.41 449.57 179.99 445.31 196.27 404.32 204.41 449.57" style="fill:#24263d"/><path d="M131.25,458S254,484,273.1,492.16s30.64,11.49,32.07,15.56,31.36,198.66,31.36,198.66H295.84s-31.6-147-35.43-156.06-155.57-9.57-166.58-20.58-20.59-41.17-8.62-68.22S131.25,458,131.25,458Z" style="fill:#282b45"/><path d="M193.4,444.29S334.11,483.88,345.62,502c11.73,18.43-46.91,204.41-46.91,204.41H258.5s38.77-174.25,34-181.91-216.86-.24-177.36-63S193.4,444.29,193.4,444.29Z" style="fill:#282b45"/><path d="M178.77,248.74c5.29-2.75,22.95,3.28,28.17,11.4,12.13,18.88,35,42.22,35,42.22l51.11-43L303.32,285l-60.65,51.13a13.16,13.16,0,0,1-17.64-.62c-15.94-15.47-48.73-48-51.26-56.13C170.42,268.61,168.65,254,178.77,248.74Z" style="fill:#323657"/><path d="M161.48,139.36s24.41,4.07,24.65,45.47-15.47,45.32-39.25,39.26c-14.32-3.65-27.77-23.94-22.5-59.6S161.48,139.36,161.48,139.36Z" style="fill:#eea987"/><path d="M164.67,238.21s33.65,12.22,38.68,19.88,1.77,76.58-1.1,101.23-10.77,77.79-8.85,85l-78.27,17.23S90,370.09,89.28,355.49,70.13,272.92,79,267.41s47.39-27.05,47.39-27.05Z" style="fill:#eddad3"/><polygon points="115.13 461.52 111.3 447.4 193.57 431.38 193.4 444.29 115.13 461.52" style="fill:#1f2136"/><polygon points="156.06 437.95 175.56 433.88 175.56 449.32 156.06 453.87 156.06 437.95" style="fill:#4f558a"/><path d="M147.31,397.76c-.21,4-.47,8.13-.68,12.28l0,0c-2.79,45.42-6.93,93-6.93,93C133.93,507.81,61.44,491,61.44,491S70.36,478.86,79,445.28,80.85,379.56,71.88,325s-1.52-54.24-1.52-54.24l56-30.42c3.67,14,18.52,64.57,22,93.58C149.67,344.52,148.88,369.86,147.31,397.76Z" style="fill:#323657"/><path d="M165.22,238.31s16.31,42.13,23.23,85.11c7.06,43.82,6.71,123.15,14.36,125.09s5.29.64,5.29.64-1.43-47.93-2.13-63.82c-1.56-35.46,5.06-115.4,2-123.48S182.93,241.5,165.22,238.31Z" style="fill:#323657"/><path d="M163.88,231.69a20.53,20.53,0,0,0,.79,6.51s-4.3,16.78-38.29,2.15c0,0,6.71-25,0-46l38.29,23.76s-.47,3.78-.68,8.18C163.88,228.08,163.83,230,163.88,231.69Z" style="fill:#eea987"/><path d="M127.77,233.69s13.36,6.47,26.84,7.72l-6.57,14-21.66-15Z" style="fill:#d6c5bf"/><path d="M154.61,241.41s9.4-3.12,9.33-7.72l1.28,4.62-3.84,14.74Z" style="fill:#d6c5bf"/><path d="M183.21,163.31s6.83-14.65,1.88-25.4-17.87-6.29-23.77-5-17.08-11.8-36.86,4.15-13.89,32.72-5.11,52.66,9.84,21.48,9.84,21.48.07-20.24,2.45-23.83c2.81-4.22,13.08-6.42,13.08-6.42s-7.82-10.7-.16-14.69S168.08,169.64,183.21,163.31Z" style="fill:#16202e"/><path d="M134.67,176.78c-1-3.06-6.2-6.53-8.78-.8s4.15,15.8,7.82,15.8S137.06,183.8,134.67,176.78Z" style="fill:#eea987"/><path d="M154.61,241.41l4.91,8.44s-2.27,2.61-9.57,1.47Z" style="fill:#d44040"/><path d="M158.47,250.58s20.09,59.12,20.25,101.08-3.16,67-3.16,67L171.14,427l-6.47-7.55s4.57-121.86-13.3-167.9C151.37,251.5,157.72,248.47,158.47,250.58Z" style="fill:#d44040"/><path d="M76.58,267.41c14.7-6,29.93,14.36,38.07,34.71s23.69,57.36,23.69,57.36L247,377.09l1.53,20.66H121.75s-48.31-86.54-51.67-97.31S66,271.72,76.58,267.41Z" style="fill:#323657"/><rect x="210.05" y="397.75" width="358.38" height="12.35" style="fill:#e2d2ca"/><rect x="420.05" y="181.69" width="8.63" height="191.31" style="fill:#6e6760"/><path d="M441.22,397.75H505.8v-3.91H441.22c-3.37,0-5.79-.8-7.2-2.38a6.33,6.33,0,0,1-1.44-4.49l0-.12V303.28h-3.91v83.36a10.24,10.24,0,0,0,2.37,7.37C433.23,396.49,436.65,397.75,441.22,397.75Z" style="fill:#918880"/><path d="M348.69,390.9h72.69a0,0,0,0,1,0,0v.56a6.29,6.29,0,0,1-6.29,6.29h-66.4a0,0,0,0,1,0,0V390.9A0,0,0,0,1,348.69,390.9Z" transform="translate(770.07 788.65) rotate(180)" style="fill:#6e6760"/><rect x="531.17" y="410.1" width="10.19" height="335.4" transform="translate(1072.52 1155.6) rotate(180)" style="fill:#706865"/><rect x="237.13" y="410.1" width="10.19" height="335.4" transform="translate(484.45 1155.6) rotate(180)" style="fill:#706865"/><path d="M147.31,397.76c-.21,4-.47,8.13-.68,12.28l0,0s-14.13,1.87-26-3.51-20.14-46.32-20.72-48.47c1.21,2.36,20.2,39.65,24.86,39.65Z" style="fill:#1f2136"/><path d="M164,226.29c-.11,1.79-.16,3.67-.11,5.4-27,.42-27.43-15-27.43-15C140.65,227.87,164,226.29,164,226.29Z" style="fill:#a77860"/><rect x="305.03" y="247.26" width="41.05" height="3.47" transform="translate(-81.61 295.93) rotate(-43.99)" style="fill:#eb4747"/><polygon points="339.12 233.49 344.67 230.54 341.53 235.99 339.12 233.49" style="fill:#eea886"/><path d="M326.45,250.82s-14,3-13.95,5.54,1.48,3.35,1.48,3.35l-5.38,4.1s-2.25,4.86,3.11,5.9c0,0-2.53,4.32,2.78,4.65,0,0-.54,3.61,1.87,4.24s11.37-1.72,11.37-1.72,1.73-1.42.45-5.05a5.91,5.91,0,0,0,.81-6.06,6.45,6.45,0,0,0-.12-6.06s3.16-6-1-9.1A14.31,14.31,0,0,0,326.45,250.82Z" style="fill:#d69779"/><path d="M302.88,253.26s9.21,2.95,13.5,7c1,.93,1.75,2,1.29,3.4s-2.81,2.5-6.87,1.45-9.82-.33-9.82-.33S297.15,262.36,302.88,253.26Z" style="fill:#eea886"/><path d="M314.68,565.75s-8.6-53.68-9.05-55.86-9.21-10-51-23.7c0,0,46.5,9,58.69,17C322.68,509.29,314.68,565.75,314.68,565.75Z" style="fill:#12131f"/><path d="M489.77,397.75c4.59-1.91,12-23.59,15.57-34.82,1.27-4,2.05-6.65,2.05-6.65h-42c3.63,25.92,12.44,41.47,12.44,41.47Z" style="fill:#9e633a"/><path d="M493.14,343.37c0-1.51,6.74-7.83,10.11-11.95s-1.3-11.95-1.3-11.95c-15,6.22-12.44,23.9-12.44,23.9S493.14,344.87,493.14,343.37Z" style="fill:#97a43c"/><path d="M484.58,344h1.82s1.29-30.53-9.85-34.68-11.15-12.44-11.15-12.44-3.37,11.41,2.08,17.37,11.66,13,10.62,18.66S484.58,344,484.58,344Z" style="fill:#97a43c"/><path d="M505.34,362.93c1.27-4,2.05-6.65,2.05-6.65h-42c3.63,25.92,12.44,41.47,12.44,41.47h2.74C480.07,373.48,496.06,365.51,505.34,362.93Z" style="fill:#82522f"/><polygon points="507.38 343.37 465.08 343.37 462.68 356.28 509.1 356.28 507.38 343.37" style="fill:#c67b47"/></svg>