<svg xmlns="http://www.w3.org/2000/svg" viewBox="0 0 85.04 113.39"><polygon points="42.53 93.97 43.06 93.73 47.55 99.89 45.75 100.95 42.53 93.97 42.53 93.97" style="fill:#e96086;fill-rule:evenodd"/><path d="M42.06,76.59l3.41,3.32L43.73,81.2l-1.84-2.81h-.54l5.38,6.87-.4.26-3.64-3.64-2.61,1.61,3.28,7.79-1.47.56-1.26-4L40,88l.84,1.61-3.22,2,1.19,4.09-.29.15-1.68-3.31-.8.22,3.79,5.82-1.76.94-3-7.74,4.49-4.65-.65-4.22,2.95-2.07-1.45-1.49a9.47,9.47,0,0,0,0-1.65c-.1.14,1.59-1.11,1.59-1.11Z" style="fill:#ed7d2e;fill-rule:evenodd"/><polygon points="56.46 83.97 55.13 86.82 51.13 82.46 50.85 82.64 53.62 86.6 52.76 93.57 51.81 93.42 51.1 89.83 45.34 85.98 45.13 86.25 48.9 89.92 47.68 94.65 52.93 101.28 54.62 99.86 50.05 96.5 51.19 95.28 54.38 98.28 57.78 95.75 56.46 86.41 59.22 85.26 56.46 83.97 56.46 83.97" style="fill:#561a26;fill-rule:evenodd"/><polygon points="59.18 75.56 53.53 81.74 61.01 87.46 61.92 86.35 58.11 80.8 60.16 79.06 59.18 75.56 59.18 75.56" style="fill:#266b77;fill-rule:evenodd"/><polygon points="34.85 100.03 60.47 100.03 49.91 105.6 34.85 100.03 34.85 100.03" style="fill:#fff;fill-rule:evenodd"/><polygon points="64.8 65.67 65.83 67.17 52.1 80.81 49.21 77.94 48.42 72.56 52.56 73.77 61.75 60.67 64.8 65.67 64.8 65.67" style="fill:#151514;fill-rule:evenodd"/><polygon points="37.45 80.28 41.05 81.44 41.88 80.86 41.13 79.79 41.13 78.39 34.12 73.31 32.69 74.73 37.45 80.28 37.45 80.28" style="fill:#9a9e25;fill-rule:evenodd"/><polygon points="30.83 68.27 32.27 76.69 37.45 80.28 38.29 79.56 33.19 74.51 33.86 73.92 39.18 78.39 41.11 78.39 43.63 75.73 44.42 74.26 30.83 68.27 30.83 68.27" style="fill:#ae6322;fill-rule:evenodd"/><path d="M38.29,9l9.64,7.52-15.82,28-8.35-2.61L26.69,27s0-12.54.55-12.24S38.29,9,38.29,9Z" style="fill:#ef8d90;fill-rule:evenodd"/><path d="M38.29,9l5,3.92.49,2.22H34.65l-7.29,9.73-.63-1.76c.05-3.65.18-8.54.51-8.35C27.75,15.05,38.29,9,38.29,9Z" style="fill:#768930;fill-rule:evenodd"/><path d="M41.09,15.15v-4.9l13.37-.71,5.38,8.17-3.4,2.13L41.09,15.15Z" style="fill:#561a26;fill-rule:evenodd"/><polygon points="54.52 11.05 51.73 13.99 46.25 13.99 46.25 17.09 56.58 19.76 59.7 15.85 54.52 11.05 54.52 11.05" style="fill:#a2223b;fill-rule:evenodd"/><polygon points="55.81 20.94 52.71 15.14 41.09 15.15 41.09 16.34 48.72 21.74 55.81 20.94 55.81 20.94" style="fill:#e96086;fill-rule:evenodd"/><polygon points="31.85 14.3 35.9 12.26 36.07 12.47 34.48 13.74 36.49 16.11 36.72 15.95 35.91 13.76 39.2 11.22 39.4 11.46 37.67 13.8 39.02 15.46 39.18 15.33 38.69 13.77 41.84 12.33 42.22 12.75 40.74 14.19 41.49 14.8 42.71 12.71 47.72 15.87 47.85 15.71 44.65 12.21 45 11.92 49.03 14.11 48.75 16.2 48.97 16.26 50.52 13.31 48.73 11.12 49.18 10.6 47.19 7.4 37.09 7.8 30.59 13.36 31.47 15.02 31.85 14.3 31.85 14.3" style="fill:#266b77;fill-rule:evenodd"/><polygon points="30.72 9.77 30.5 9.41 39.09 4.12 39.3 4.37 37.95 5.58 38.13 5.83 42.04 3.55 42.28 3.8 41.35 4.47 41.51 4.67 44.38 2.87 44.99 3.05 50.22 5.26 59.3 12.38 56.49 14.04 53.3 10.86 49.15 9.93 49.11 10.27 52.43 11.11 52.28 11.9 47.37 9.83 47.37 8.79 47.23 8.78 46.24 11.33 46.1 11.27 45.93 8.91 45.69 8.88 45.31 10.91 46.2 12.18 46.08 12.3 44.59 11.13 44.42 8.7 43.97 8.7 43.17 11.76 45 13.5 44.87 13.69 41.87 11.71 41.82 8.95 41.06 8.89 40.09 12.49 39.7 12.43 39.84 10.02 39.15 9.57 36.17 11.93 34.69 10.24 31.32 11.72 30.72 9.77 30.72 9.77" style="fill:#42233d;fill-rule:evenodd"/><polygon points="63.94 14.64 63.48 13.41 63.84 13.25 63.68 12.82 56.23 6.29 44.71 2.97 44.63 3.23 48.87 5.26 48.72 5.58 45.14 4.22 44.41 5.92 49.92 6.4 50.05 7.47 53.81 9.72 56.68 11.65 56.29 12.23 58.39 15.16 59.48 20.22 65.72 22.44 67.71 21.21 63.94 14.64 63.94 14.64" style="fill:#151514;fill-rule:evenodd"/><polygon points="71.61 34.16 71.43 33.04 69.65 31.34 69.55 29.37 68.89 28.97 68.94 28.7 69.58 28.99 69.14 24.29 68.45 23.86 68.53 23.64 69.13 23.97 69.11 22.32 64.1 13.94 63.71 14.14 67 21.13 65.31 22.03 62.05 11.66 55.15 6.83 54.95 7.04 61.02 11.99 60.69 17.71 58.99 17.71 62.41 35.21 66.78 37.84 71.61 34.16 71.61 34.16" style="fill:#151514;fill-rule:evenodd"/><polygon points="24.78 25.91 22.86 24.01 25.98 18.3 27.24 18.52 27.34 18.16 26.25 17.64 29.99 11.13 30.51 11.36 29.13 15.86 29.5 16.02 30.51 14 33.82 14.74 33.79 15.04 31.47 15.02 29.18 17.85 29.91 18.38 31.39 15.97 32.23 16.51 29.1 19.61 28.01 22.17 29.45 28.12 28.71 29.25 24.76 28.32 24.78 25.91 24.78 25.91" style="fill:#266b77;fill-rule:evenodd"/><polygon points="57.14 8.83 58.55 12.46 58.91 12.46 59.09 11.09 60.19 11.52 59.24 12.88 61.83 14.06 62.6 21.33 62.06 21.45 62.12 21.75 64.13 21.87 64.01 31.68 60.91 31.58 58.89 13.97 53.66 10.51 42.73 6.41 42.9 6.05 57.14 8.83 57.14 8.83" style="fill:#561a26;fill-rule:evenodd"/><polygon points="22.64 29.87 22.26 29.59 22.28 22.28 23.63 20.96 23.41 20.69 22.86 21.09 22.66 20.91 28.25 11.41 36.08 6.2 36.36 6.52 31.56 10.52 31.76 10.86 40.76 4.64 40.94 4.82 38.82 6.81 39.28 7.34 42.69 4.17 42.99 4.32 39.03 10.43 37.73 10.04 39.31 8.91 38.95 8.56 31.77 13.37 28.01 22.17 29.45 28.12 28.82 29.08 22.64 29.87 22.64 29.87" style="fill:#151514;fill-rule:evenodd"/><polygon points="31.42 14.2 30.61 16.08 29.18 17.85 29.69 18.23 28.01 22.17 29.45 28.12 28.82 29.08 28.27 29.15 24.76 28.32 24.78 25.91 22.86 24.01 25.98 18.3 27.24 18.52 27.34 18.16 26.25 17.64 29.99 11.13 30.51 11.36 29.13 15.86 29.5 16.02 30.51 14 31.42 14.2 31.42 14.2" style="fill:#561a26;fill-rule:evenodd"/><polygon points="21.85 32.94 21.85 32.34 23.33 31.61 23.18 31.21 21.54 32.27 21.43 32.12 25.22 25.09 24.87 24.76 23.69 26.07 22.79 25.28 26.01 22.07 27.85 23.8 27.06 24.62 27.36 24.87 28.17 24.2 28.44 24.53 25.99 27.98 26.23 28.17 28.06 26.63 29.2 28.47 27 32.01 27.24 32.21 28.88 30.33 29.68 31.18 26.81 33.17 27.68 38.62 25.71 41.65 21.06 36.9 21.85 32.94 21.85 32.94" style="fill:#842351;fill-rule:evenodd"/><polygon points="21.48 32.94 24.95 32.94 24.95 33.44 23.76 33.84 23.84 34.14 25 33.94 25 34.97 25.43 34.97 26.35 30.47 27.11 30.67 25.49 35.39 27.06 36.94 25.7 40.07 26.83 40.88 26.05 45.39 20.6 37.17 21.48 32.94 21.48 32.94" style="fill:#561a26;fill-rule:evenodd"/><polygon points="47.61 73.62 49.44 73.37 50.47 76.74 51.54 76.75 52.37 74.68 52.66 74.74 52.26 76.61 53.16 76.7 54.89 75.47 54.52 74.47 54.84 74.3 55.17 75.28 55.46 75.22 55.26 72.15 50.79 68.55 45.66 71.05 47.61 73.62 47.61 73.62" style="fill:#561a26;fill-rule:evenodd"/><polygon points="64.01 30.89 63.08 30.89 63.08 25.9 61.77 26.03 61.66 25.63 63.01 25.16 61.05 20.14 62.04 19.44 61.85 19.14 60.8 19.33 59.16 14.14 54.52 11.05 54.05 11.62 58.15 15.69 55.97 18.28 54.13 18.28 53.29 21.46 58.04 38.16 65.06 38.41 64.01 30.89 64.01 30.89" style="fill:#a74522;fill-rule:evenodd"/><polygon points="60.46 18.28 59.16 14.14 54.52 11.05 54.05 11.62 58.15 15.69 55.97 18.28 60.46 18.28 60.46 18.28" style="fill:#a2223b;fill-rule:evenodd"/><path d="M31.3,67l.06.35-.88.33,2.05,3.77,4.42,1,0,.34-3.31-.39-.09.59,7.07,4.44,3-2.76.27.35-1.81,1.64.4.38,1-1h2.23l1.16-1.55H48.7L48.47,73s-1.74-3.91-1.76-3.85-13-4.78-13-4.78L31.3,67Z" style="fill:#6fadcf;fill-rule:evenodd"/><path d="M40.2,71,41,72l-2.27,1.79,1,1.09,4.05-2.61H46.3l1.28-2.57s-6.42-1-6.27-1A16.21,16.21,0,0,1,40.2,71Z" style="fill:#bbe2ee;fill-rule:evenodd"/><polygon points="59.71 66.45 60.33 67.58 58.4 68.02 59.55 72.51 58.15 73.02 56.91 71.64 56.63 71.86 57.42 73.28 54.44 73.98 53.95 76.17 53.41 76.19 53.16 71.7 51.76 71.05 51.47 71.53 52.65 71.98 51.76 75.22 51.25 75.26 49.66 70.05 49.87 66.86 58.11 62.93 59.71 66.45 59.71 66.45" style="fill:#a2223b;fill-rule:evenodd"/><polygon points="51.67 69.73 50.99 70.44 52.15 71.03 52.63 70.24 51.67 69.73 51.67 69.73" style="fill:#a5c332;fill-rule:evenodd"/><polygon points="55.29 65.44 53.03 69.78 50.61 68.45 55.03 65.33 55.29 65.44 55.29 65.44" style="fill:#a5c332;fill-rule:evenodd"/><polygon points="67.92 53.47 68.68 53.47 70.85 49.24 71.35 40.3 72.27 38.22 71.5 33.51 69.4 33.51 68.31 31.74 68.56 31.54 69.4 32.9 70.18 32.21 66.13 26.61 66.32 26.37 68.48 28.92 68.85 28.05 65.22 25.03 64.14 25.6 66.93 30.1 66.4 30.44 65.77 28.84 65.23 29.21 67.92 33.55 67.66 33.74 66.33 32.13 65.9 32.96 67.16 33.54 65.61 38.01 67.92 53.47 67.92 53.47" style="fill:#151514;fill-rule:evenodd"/><polygon points="67.92 53.47 68.68 53.47 70.85 49.24 71.34 40.38 70.64 40.38 70.64 45.95 69.08 52.05 68.04 52.05 67.77 52.5 67.92 53.47 67.92 53.47" style="fill:#561a26;fill-rule:evenodd"/><polygon points="20.66 43.24 20.6 40.15 19.69 35.68 20.89 32.94 22.39 32.94 23.47 34.38 22.26 35.23 22.4 35.43 23.9 35.08 24.98 37.02 23.91 37.72 24.16 38.23 25.32 37.8 25.32 41.2 25.98 41.99 25.51 46.31 22.18 46.35 21.49 44.94 20.66 43.24 20.66 43.24" style="fill:#a74522;fill-rule:evenodd"/><polygon points="21.33 39.1 20.67 38.92 20.5 34.73 21.96 34.73 22.67 36.09 21.33 39.1 21.33 39.1" style="fill:#561a26;fill-rule:evenodd"/><polygon points="25.32 40.71 25.32 41.2 25.98 41.99 25.51 46.31 22.18 46.35 21.96 45.9 21.96 40.71 25.32 40.71 25.32 40.71" style="fill:#842351;fill-rule:evenodd"/><path d="M21.38,44.52l-.72-1.28,1.21-7.49h.62l2.22,4.11-.57.48-1.8-1-1.06,1.46,1.42,4.62s2.42-.07,2.42,0,.84,5.32.84,5.32l-3.43-.61-1.15-5.65Z" style="fill:#fcd9bc;fill-rule:evenodd"/><path d="M25.26,46.37c.16,1,.42,2.66.58,3.63v.51H24.48l-.79-.14v-4Z" style="fill:#fff;fill-rule:evenodd"/><polygon points="21.33 39.09 21.87 35.75 22.49 35.75 24.71 39.86 24.14 40.34 23.01 39.74 23.1 39.56 21.33 39.09 21.33 39.09" style="fill:#efcc47;fill-rule:evenodd"/><polygon points="25.15 52.93 24.23 52.93 22.24 49.69 21.43 44.81 20.66 43.24 21.75 44.48 22.94 49.63 26.47 49.63 27.34 52.11 25.15 52.93 25.15 52.93" style="fill:#ed7d2e;fill-rule:evenodd"/><polygon points="65.65 43.17 65.81 43.59 65.5 43.7 65.5 43.7 65.5 43.7 63.04 44.57 57.79 38.64 61.05 36.17 63.44 37.69 64.01 37.69 64.01 30.89 64.45 30.89 66.98 38.44 65.65 43.17 65.65 43.17" style="fill:#561a26;fill-rule:evenodd"/><polygon points="25.71 41.65 24.04 41.65 23.74 44.85 24.8 45.26 24.79 45.51 24.16 45.59 25.26 50.84 26.34 50.74 26.39 50.94 25.05 52.34 26.17 58.9 28.14 58.69 28.16 58.88 26.53 59.75 30.3 66.96 32.6 66.96 36.77 64.01 26.89 41.61 25.71 41.65 25.71 41.65" style="fill:#9a9e25;fill-rule:evenodd"/><polygon points="33.07 63.91 34.31 64.79 35.01 64.57 35.08 64.71 32.6 66.96 33.07 67.61 34.64 65.61 35.85 66.99 34.07 69.6 31.61 69.21 31.5 69.52 34.52 71.01 38.53 70.05 38.73 70.96 34.92 71.28 34.92 71.56 39.92 72.19 41.46 71.13 41.46 60.52 38.58 59.84 33.07 63.91 33.07 63.91" style="fill:#efcc47;fill-rule:evenodd"/><path d="M29.06,58.65l1.76,1.92h.82v.53h-2.2v.29l3.63,2.52,5-2,.17.27-2.17,1.56.38,2.21h.25L37,64.19s2.28-.07,2.28,0,8.28-.76,8.28-.76l.41-6.78-15-1.56-3.84,3.56Z" style="fill:#efcc47;fill-rule:evenodd"/><path d="M38.18,64.16h1.08v0c.08,0,.64,0,1.42-.1l1.3-.81-.34-2.76H41l.65,1.7-.55.24-.69-1.17-2.45,1.62.39.87-.19.18-.69-.75-.71.64.13.31Z" style="fill:#842351;fill-rule:evenodd"/><polygon points="26.79 39.94 25.71 41.65 26.3 42.38 26.12 42.6 25.44 42.36 25.56 45.54 26.55 45.25 26.66 45.63 25.51 46.31 27.95 52.94 26.69 54.36 30.32 57.48 29.06 58.65 29.72 59.37 32.33 56.75 34.08 56.75 35.72 46.02 28.5 43.08 26.79 39.94 26.79 39.94" style="fill:#99d0e4;fill-rule:evenodd"/><polygon points="46.81 57.63 41.93 57.63 40.56 60.13 40.28 60.05 40.63 57.9 40.05 57.65 35.51 62.83 33.97 62.22 35.61 60.03 35.09 59.67 32.51 61.84 32.16 61.56 32.92 54.84 32.43 54.72 31.07 56.85 29.2 55.02 31.56 53.03 31.33 52.69 29.61 53.36 26.75 42.86 32.07 40.39 46.77 53.18 46.81 57.63 46.81 57.63" style="fill:#fff;fill-rule:evenodd"/><path d="M46.23,57.63H45.09l-.22,1h-.21l-.2-1H43.13l-.78,3.18.87.21.1-2.48h.41l.06,3.39h.3l1.1-3.17.89.29s-2.3,3.67-2.31,3.81a32.05,32.05,0,0,0,3.53.9l2.4-3.62-.78-2.51-2.31-.37-.38.37Z" style="fill:#9a9e25;fill-rule:evenodd"/><polygon points="48.6 59.1 48.6 61.45 47.96 61.45 48.39 60.15 47.56 60.15 47.14 62.25 46.66 62.25 46.08 59.91 46.99 59.1 48.6 59.1 48.6 59.1" style="fill:#768930;fill-rule:evenodd"/><path d="M40.38,63.27,38.32,64l-3.15,5.84.3.36,2.26-2.09.67.71-2,1.14.18.31,2.5-.9,1.65,2.25,1.56-1.07.14.17-1.33,2,.77.42L43,70.42l3.47-.08,0,.24-2.13.49L44,73.41l.72.18L45,71.5l.31,0,.26,2.39,2.94-.44-.31-2.38.41-.1.54,1.17,1.29-.35L49.89,70s-2.59-.75-2.52-.74,3.4-3.13,3.4-3.13l-.32-2.49-9.51-.74-.56.34Z" style="fill:#fcd9bc;fill-rule:evenodd"/><path d="M38.54,63.24,41,64.74l-1.6,3,1.43.69.41-1.13,1.94-.39s6.93-.57,6.92-.66-.7-2.44-.66-2.33-9.51-.85-9.51-.85l-1.39.19Z" style="fill:#99d0e4;fill-rule:evenodd"/><polygon points="43.42 66.84 42.04 67.12 42.04 68.8 42.83 68.8 42.45 67.95 42.66 67.88 43.79 69.53 44.82 68.78 45.27 69.15 44.09 69.57 44.19 69.77 49.66 70.05 50.22 71.89 50.95 71.69 49.74 69.8 49.94 69.67 51.05 70.72 52.47 68.8 51.7 68.14 51.78 67.99 52.73 68.44 55.03 65.33 57.41 66.37 59.01 62.49 54.38 59.67 50.54 66.59 43.42 66.84 43.42 66.84" style="fill:#a74522;fill-rule:evenodd"/><path d="M48.94,64.08v1.59H43l-.53,2,3.44.74,1.68-1.89,4-.53s-.63-2.16-.69-2.27a11.28,11.28,0,0,0-2,.41Z" style="fill:#c7ac2b;fill-rule:evenodd"/><path d="M67.92,52.84v1.43l-1.38,7.26-1.13-.06,0,.18,1.15.48L62.6,70.22l-2.48-.9L63,65.08,61.76,63.3l-.2.11.67,1.49-4.11,2.53.21,4.13-.34.08L55.9,67.58,57,64.83l5.21-6.18s4-6.67,4.27-6.66a6.63,6.63,0,0,1,1.4.85Z" style="fill:#561a26;fill-rule:evenodd"/><polygon points="50.12 64.36 50.54 65.44 45.54 66.43 45.33 67.76 45.11 67.76 44.81 66.57 42.65 66.99 42.46 67.7 47.42 69.46 47.77 67.02 48.47 67.21 47.72 69.56 49.71 69.56 49.35 66.97 49.87 66.86 49.87 68.39 50.29 68.39 54.57 64.78 53.56 64.19 54.72 63.43 54 62.63 50.12 64.36 50.12 64.36" style="fill:#768930;fill-rule:evenodd"/><path d="M45.63,56.9l3.07,1.92-1.26,3.62L52,62.11s-.35-3.1,0-3.2-3.34-2.75-3.34-2.75l-3,.74Z" style="fill:#842351;fill-rule:evenodd"/><path d="M48.66,57.13l-.79,1.17.61.38-1,3.76,3.37-.24L52,61.77c0-.23,0-.54-.07-.89l-2-3.76L49.74,57l-1.08.14Z" style="fill:#b8702e;fill-rule:evenodd"/><polygon points="48.36 59.1 48.07 60.15 48.39 60.15 47.96 61.45 48.6 61.45 48.6 59.1 48.36 59.1 48.36 59.1" style="fill:#a74522;fill-rule:evenodd"/><polygon points="67.12 41.31 67.75 41.31 69.18 45.1 67.97 46.92 68.84 46.92 67.92 52.84 67.32 52.71 67.25 53.06 67.85 53.35 64.38 60.91 62.38 59.67 57.98 66.62 56.56 65.98 57.53 63.67 55.94 59.56 55.16 56.47 65.1 44.82 67.12 41.31 67.12 41.31" style="fill:#842351;fill-rule:evenodd"/><path d="M67.12,41.31h.63l1.43,3.79L68,46.92h.87l-.92,5.92-.6-.13-.08.35.61.29-.67,1.46-1.4-1.94s-1.82-.54-2.21-.13c-.18.19,0-2.87.15-6.31l1.38-1.61,2-3.51Z" style="fill:#561a26;fill-rule:evenodd"/><polygon points="67.12 39.8 67.12 45.4 66.11 45.67 66.14 46.04 67.1 46.15 66.76 52.85 66.45 52.85 65.7 51.71 65.13 51.98 66.43 53.76 62.25 58.65 60.85 56.95 60.51 57.13 61.85 59.89 58.76 61.59 56.81 58.06 55.93 58.16 57.54 60.54 56.33 61.87 52.8 60.41 51.23 55.79 63.81 44.67 67.12 39.8 67.12 39.8" style="fill:#71642a;fill-rule:evenodd"/><polygon points="53.82 61.86 53.4 59.2 52.73 59.2 53.49 61.24 53.3 61.31 51.96 58.91 51.74 58.97 52.1 61.83 47.66 61.59 47.32 62.9 46.86 62.92 47.29 59.58 46.99 59.51 45.65 62.41 39.81 62.6 39.94 63.08 50.65 63.68 53.82 61.86 53.82 61.86" style="fill:#a74522;fill-rule:evenodd"/><polygon points="46.95 62.25 47.29 59.58 46.99 59.51 46.33 60.93 46.66 62.25 46.95 62.25 46.95 62.25" style="fill:#842351;fill-rule:evenodd"/><polygon points="53.46 55.42 52.84 57.86 55.26 60.7 55.67 60.48 54.88 59.28 55.73 59.03 56.69 61.52 55.97 62.21 48.72 63.02 48.66 62.79 51.69 61.51 50.29 58.94 50.03 59.02 50.86 60.98 50.05 61.24 48.92 57.63 47.73 57.63 49.45 49.28 54.79 50.42 53.46 55.42 53.46 55.42" style="fill:#151514;fill-rule:evenodd"/><polygon points="52.54 62.59 48.72 63.02 48.66 62.79 51.06 61.78 52.1 61.83 51.74 58.97 51.96 58.91 53.3 61.31 53.49 61.24 52.73 59.2 53.4 59.2 53.82 61.86 52.54 62.59 52.54 62.59" style="fill:#561a26;fill-rule:evenodd"/><polygon points="38.55 63.24 39.46 63.42 40.67 63.05 48.94 64.52 50.18 64.52 53.53 63.01 52.96 62.41 47.95 63.46 40.16 63.02 38.55 63.24 38.55 63.24" style="fill:#a74522;fill-rule:evenodd"/><polygon points="51.41 63.96 53.53 63.01 52.96 62.41 51.41 62.73 51.41 63.96 51.41 63.96" style="fill:#842351;fill-rule:evenodd"/><polygon points="38.55 63.24 39.27 63.69 40.38 63.27 41.67 63.65 48.94 64.22 48.94 63.25 47.95 63.46 40.16 63.02 38.55 63.24 38.55 63.24" style="fill:#e96086;fill-rule:evenodd"/><path d="M41.67,63.65l3,.86h4.28v-.86Zm7.62.86H50v-.86h-.68v.86Z" style="fill:#fff;fill-rule:evenodd"/><path d="M48.68,18.77l-4.72-3-.3.4,1.59,1.62-4.16-2.05-9.93,4.71,1.89,12.46L29.14,37.4s.61,1.38.6,1.49,9.13-.57,9.13-.57,9.81-1.53,9.94-1.52-.13-18-.13-18Z" style="fill:#fff;fill-rule:evenodd"/><polygon points="29.17 44.72 28.2 43.5 28.5 43.08 25.95 38.39 26.47 38.12 28.79 42.88 29.18 42.91 29.66 44.49 29.17 44.72 29.17 44.72" style="fill:#842351;fill-rule:evenodd"/><polygon points="40.21 49.41 30.55 49.41 30.35 50.16 38.44 53.8 41.31 51.11 40.21 49.41 40.21 49.41" style="fill:#fcd9bc;fill-rule:evenodd"/><polygon points="38.22 46.91 40.65 48.31 36.89 57.69 37.39 57.97 42.41 52.38 43.86 53.14 45.45 45 38.22 46.91 38.22 46.91" style="fill:#fcd9bc;fill-rule:evenodd"/><path d="M38.22,46.91l2.43,1.4-.89,2.2h0l3.43-2.26s.54-2.09.8-2.86l-5.77,1.52Z" style="fill:#d8e4ef;fill-rule:evenodd"/><polygon points="64.75 43.24 64.5 42.71 63.95 43.57 63.49 43.26 64.4 42.5 64 41.6 63 42.16 62.78 41.74 63.41 41.39 63.3 41.13 62.18 41.45 62.59 39.95 59.35 38.57 58.25 39.16 61.92 42.25 62.71 44.57 64.62 44.38 64.75 43.24 64.75 43.24" style="fill:#a74522;fill-rule:evenodd"/><polygon points="63.22 43.94 64.36 43.94 67.59 37.16 68.08 37.35 66.08 41.18 64.42 44.83 62.71 44.57 63.22 43.94 63.22 43.94" style="fill:#768930;fill-rule:evenodd"/><path d="M64.72,44.68v4.93h-.26l-.77-.79-.22.2.78,1.53-.26.22L62,50l-.22.3,3.18,3-.51.6-1.8-2.29-2.6,2.19-.42,5.8-.6.16-1.72-2.49H53l.94-3.67L50.7,49.84s4.67-3.24,4.63-4.27,7.93-1.14,7.93-1.14l1.46.25Z" style="fill:#b8702e;fill-rule:evenodd"/><path d="M53.43,47.77A11.39,11.39,0,0,0,55,46.25h4.13l-.14,4,2.78-3.62L63,49.17l-3.83,1.88v3.86H54.35V51H51.73l-1-1.2s1-.71,2.11-1.57h0l1.54,1.56V47.74l-.92,0Z" style="fill:#f1a049;fill-rule:evenodd"/><polygon points="31.23 36.34 30.43 37.4 31.8 38.09 31.72 38.28 29.83 38.41 29.33 37.35 29.14 37.4 29.24 38.97 33.09 39.28 33.09 40.34 34.72 39.38 31.23 36.34 31.23 36.34" style="fill:#a5c332;fill-rule:evenodd"/><path d="M46.13,57.15,44,55.57H42.79l-.91-1.42,2.21-3.28-1-2.43,1-3.32L42,39.62h6.67l.55,4c.17,0,.29,0,.26,0s3,5.23,3,5.23L50,49.58l.94,4.2-2.6,3.85H46.81l-.69-.48Z" style="fill:#fff;fill-rule:evenodd"/><polygon points="45.87 56.65 43.5 54.3 45.45 52.43 45.45 43.16 49.12 42.49 48.01 39.62 44.44 40.35 44.71 50.93 42.71 52.91 43.12 55.57 44.29 56.06 45.63 56.9 45.87 56.65 45.87 56.65" style="fill:#fcd9bc;fill-rule:evenodd"/><path d="M48.62,50.46h-.87l-.82-5.09L48.6,43l.21.39,2,1.56-2.15,5.53Zm.64.95H47.87v1.14h1.39V51.41Z" style="fill:#a5c332;fill-rule:evenodd"/><path d="M46.13,57.15l-.69-.5h3.18V45.13h1.56V45c.89,1.55,2.29,3.83,2.29,3.83L51,51.05l1.41,3.06-4.07,3.52H46.81l-.69-.48ZM49,43l.08-.15,0,.15Z" style="fill:#561a26;fill-rule:evenodd"/><polygon points="45.23 56.65 48.62 56.65 48.62 50.46 49.91 50.46 49.91 52.55 48.82 52.55 49.57 55.79 48.32 57.63 46.79 57.63 45.23 56.65 45.23 56.65" style="fill:#a74522;fill-rule:evenodd"/><polygon points="43.16 55.58 42.79 55.57 41.88 54.14 43.78 51.33 43.14 48.43 44.12 45.11 43.18 42.73 44.92 42.28 44.92 51.38 43.29 52.65 43.29 54.79 45.87 56.65 45.23 56.65 44.29 56.06 43.16 55.58 43.16 55.58" style="fill:#a5c332;fill-rule:evenodd"/><polygon points="42.04 49.19 40.51 51.22 41.08 51.58 42.34 48.99 42.04 49.19 42.04 49.19" style="fill:#a5c332;fill-rule:evenodd"/><polygon points="47.9 18.28 54.38 18.28 60.8 30.19 57.69 33.9 58.23 34.66 61.2 34.41 63.44 37.69 60.61 37.69 60.46 37.53 58.33 37.69 50.09 33.24 47.9 18.28 47.9 18.28" style="fill:#a5c332;fill-rule:evenodd"/><polygon points="44.09 44.33 44.94 43.67 48.2 43.67 49.49 44.2 48.84 42.97 44.69 43.2 43.63 44.21 44.09 44.33 44.09 44.33" style="fill:#efcc47;fill-rule:evenodd"/><path d="M45.75,35.9V18.28H47.9l8.46,5.34-5.22,9.51,10.27,3.94-.82.59S49,39.92,48.82,39.92a4.94,4.94,0,0,0-1,.43H44.13l-.63.71-.79-.88-.26.37-6.76-1.12-3-2.34,1.44-.68L40.55,38l5.2-2.12Z" style="fill:#d8e4ef;fill-rule:evenodd"/><polygon points="31.37 41.94 30.96 41.84 30.22 44.49 28.99 44.5 29.17 44.72 30.09 44.96 30.04 45.16 30.33 46.22 30.62 46.2 30.32 45.14 30.82 45.06 30.98 45.61 31.61 45.61 31.82 44.49 30.7 44.49 31.5 41.44 31.74 41.32 31.37 41.94 31.37 41.94" style="fill:#b8702e;fill-rule:evenodd"/><path d="M53.5,41,48,40.35H44.91l0,2.84-1.2.93s-.52-1.84-.81-2.69l-1.23.78-.34-1.47,1.89-3.49,2.07.65-.52,1.52.3.19,3.66-4.45.35.1L48.81,38l2.81.76L53.5,41Z" style="fill:#efcc47;fill-rule:evenodd"/><polygon points="33.64 42.11 33.64 44.27 39.55 47.68 42.51 45.97 43.56 46.26 44.15 44.56 42.03 40.81 33.66 41.78 33.64 42.11 33.64 42.11" style="fill:#d8e4ef;fill-rule:evenodd"/><polygon points="43.72 43.81 42.03 40.81 40.36 41.01 40.36 43.81 43.72 43.81 43.72 43.81" style="fill:#fcd9bc;fill-rule:evenodd"/><polygon points="42.96 44.68 43.27 44.68 43.3 44.68 43.3 45.3 42.39 45.3 42.39 44.68 42.96 44.68 42.96 44.68" style="fill:#768930;fill-rule:evenodd"/><polygon points="44.01 45.49 43.14 48.43 39.18 51.17 34.57 51.17 34.57 50.73 39.09 50.73 42.69 48.27 43.49 45.8 44.01 45.49 44.01 45.49" style="fill:#fff;fill-rule:evenodd"/><path d="M41.93,39.61h1.23l1.21-1.76.2.08L43.49,41l.41,2.73-.07.21-.45-.26s-2.06-3.7-2.12-3.6a4.94,4.94,0,0,0,.67-.47Z" style="fill:#768930;fill-rule:evenodd"/><path d="M44.93,42.81l-1.13,1L43.37,43l-.26.14.74,1.48-.49,1.56.4.11.49-1.66L44,44.18l.91-.74s.29-.32.26-.35a3.08,3.08,0,0,1-.26-.28Z" style="fill:#768930;fill-rule:evenodd"/><path d="M44.93,42.81l-1,.92h0l1.15-.79a.83.83,0,0,1-.12-.13Z" style="fill:#fff;fill-rule:evenodd"/><polygon points="46.9 43.12 46.9 42.47 48.33 41.65 47.17 38.54 47.77 38.21 50.12 39.27 54.07 36.52 56.89 38.34 49.3 43.24 46.9 43.12 46.9 43.12" style="fill:#9a9e25;fill-rule:evenodd"/><polygon points="47.48 43.44 47.43 42.81 44.93 42.81 44.93 43.44 47.48 43.44 47.48 43.44" style="fill:#fff;fill-rule:evenodd"/><polygon points="33.64 42.11 33.64 42.72 35.71 43.74 35.87 43.49 34.48 42.45 34.48 41.71 33.66 41.78 33.64 42.11 33.64 42.11" style="fill:#efcc47;fill-rule:evenodd"/><polygon points="31.27 40.77 32.15 42.59 37.33 40.33 37.15 39.58 34.42 39.56 31.27 40.77 31.27 40.77" style="fill:#a5c332;fill-rule:evenodd"/><polygon points="41.9 43.3 41.9 44.21 39.01 46.77 37.3 45.52 39.16 44.21 39.16 42.88 35.22 42.88 35.22 41.76 40.4 41.22 41.9 43.3 41.9 43.3" style="fill:#99d0e4;fill-rule:evenodd"/><path d="M61.68,40.29l1.54,3.08,0,2.45L62,48.59s-1.48-.19-1.55-.25-.63-7.72-.63-7.72l1.87-.33Z" style="fill:#768930;fill-rule:evenodd"/><polygon points="62.29 44.48 61.72 44.48 61.72 45.13 62.68 45.13 62.68 44.65 62.46 44.65 62.29 44.48 62.29 44.48" style="fill:#842351;fill-rule:evenodd"/><polygon points="54.31 50.5 58.49 50.5 62.44 45.83 59.89 43.9 53.63 46.2 54.31 50.5 54.31 50.5" style="fill:#ef8d90;fill-rule:evenodd"/><polygon points="58.45 46.22 61.76 46.22 61.76 48.51 58.19 51 54.94 50.98 52.7 49.45 54.17 45.57 58.45 46.22 58.45 46.22" style="fill:#ef8d90;fill-rule:evenodd"/><polygon points="58.45 46.22 61.76 46.22 61.76 46.63 58.55 50.42 54.29 50.42 53.72 46.75 53.98 46.07 54.99 45.7 58.45 46.22 58.45 46.22" style="fill:#efcc47;fill-rule:evenodd"/><polygon points="34.07 39.44 31.27 40.77 31.53 41.31 34.45 39.54 34.07 39.44 34.07 39.44" style="fill:#561a26;fill-rule:evenodd"/><polygon points="58.79 46.22 54.37 46.22 54.37 50.6 51.71 49.19 50.97 43.75 55.41 43.37 58.79 46.22 58.79 46.22" style="fill:#f1a049;fill-rule:evenodd"/><polygon points="54.37 46.22 54.37 50.6 51.71 49.19 51.53 47.91 51.53 46.22 54.37 46.22 54.37 46.22" style="fill:#a5c332;fill-rule:evenodd"/><path d="M52.34,43.11l-.89,1.12,2.22,2.6-1.41,2.36-1.1-.32L49.8,45.12s1.54-1.83,1.6-1.82.94-.19.94-.19Z" style="fill:#a74522;fill-rule:evenodd"/><polygon points="53.15 46.22 53.67 46.83 52.26 49.19 51.53 48.98 51.53 46.22 53.15 46.22 53.15 46.22" style="fill:#768930;fill-rule:evenodd"/><polygon points="48.63 42.81 48.63 39.19 49.51 39.19 48.9 41.14 49.1 41.26 52.17 38.07 54.88 38.51 54.95 38.32 53.51 38 53.83 37.52 55.81 38.07 59.38 36.48 60.6 37.66 58.41 39.26 49.76 43.67 48.63 42.81 48.63 42.81" style="fill:#842351;fill-rule:evenodd"/><polygon points="48.83 42.81 46.9 42.81 46.9 43.44 48.53 43.44 49.63 44.58 50.34 43.47 48.83 42.81 48.83 42.81" style="fill:#561a26;fill-rule:evenodd"/><polygon points="48.63 42.81 46.9 42.81 46.82 42.86 46.9 42.93 48.63 42.93 48.63 42.81 48.63 42.81" style="fill:#fff;fill-rule:evenodd"/><polygon points="30.9 36.77 31.23 36.34 34.39 37.98 35.68 37.33 35.97 37.84 34.57 38.18 34.72 38.46 37.41 37.71 42.86 40 42.84 41.69 42.31 41.69 40.23 39.99 35.62 38.99 33.01 38.55 30.9 36.77 30.9 36.77" style="fill:#a74522;fill-rule:evenodd"/><polygon points="34.17 39.53 30.9 36.77 31.06 36.57 33.27 37.99 33.4 37.81 32.49 37.18 33.07 36.91 34.48 38.78 36.88 38.12 36.93 38.27 35.94 38.74 36.02 38.87 37.36 38.15 41.75 40.08 41.15 41.06 37.21 39.33 34.17 39.53 34.17 39.53" style="fill:#561a26;fill-rule:evenodd"/><polygon points="32.68 37.09 33.07 36.91 33.55 37.54 32.68 37.09 32.68 37.09" style="fill:#a74522;fill-rule:evenodd"/><polygon points="49.76 43.67 48.83 42.81 52.16 39.14 58.02 38.15 61.79 40.12 61.35 40.8 52.12 42.3 50.18 44.13 49.76 43.67 49.76 43.67" style="fill:#151514;fill-rule:evenodd"/><polygon points="36.96 40.16 36.96 39.8 34.03 39.8 35.16 39.11 39.07 39.11 42.03 40.81 43.51 43.6 43.19 43.79 41.45 41.31 40.55 41.78 36.96 40.16 36.96 40.16" style="fill:#a74522;fill-rule:evenodd"/><polygon points="36.96 40.16 36.96 39.8 34.28 39.8 34.28 39.65 35.16 39.11 39.07 39.11 41.9 40.74 38.24 40.74 36.96 40.16 36.96 40.16" style="fill:#561a26;fill-rule:evenodd"/><polygon points="39.91 41.76 39.91 42.92 36.18 43.55 36.18 43.81 41.9 43.81 41.9 42.32 40.4 41.22 39.91 41.76 39.91 41.76" style="fill:#9a9e25;fill-rule:evenodd"/><polygon points="59.81 40.62 61.79 43.48 59.67 46.22 57.91 46.22 57.91 42.68 57.76 42.68 59.81 40.62 59.81 40.62" style="fill:#a74522;fill-rule:evenodd"/><polygon points="50.27 43.67 50.18 43.54 49.92 43.67 49.76 43.67 49.55 45.13 51.16 48.87 54.95 51.06 58.24 51.06 62.19 48.46 63.31 45.84 63.23 43.37 62.95 43.36 63.01 45.8 61.86 48.26 58.15 50.82 55 50.82 51.4 48.67 49.98 45.1 50.27 43.67 50.27 43.67" style="fill:#fff;fill-rule:evenodd"/><path d="M52.34,43.11l-.52.61L51,43.9l.35-1.77,7.51-.54-.23,2.83-4.49.16a1.66,1.66,0,0,1,.22-.33l-2.06-1.14Z" style="fill:#ef8d90;fill-rule:evenodd"/><polygon points="52.34 43.11 51.71 43.9 51.04 43.9 51.39 42.13 53.62 41.97 53.62 43.82 52.34 43.11 52.34 43.11" style="fill:#a74522;fill-rule:evenodd"/><polygon points="58.51 45.57 54.17 45.57 53.17 43.9 51.71 43.9 52.34 43.11 53.62 43.82 54.4 44.25 57.91 44.14 57.91 43.6 58.77 42.86 59.22 43.05 59.13 43.36 59.89 43.9 58.51 45.57 58.51 45.57" style="fill:#fcd9bc;fill-rule:evenodd"/><polygon points="58.51 45.57 57.91 45.57 57.91 44.14 57.91 43.6 58.77 42.86 59.22 43.05 59.13 43.36 59.89 43.9 58.51 45.57 58.51 45.57" style="fill:#c7ac2b;fill-rule:evenodd"/><polygon points="60 42.66 59 44 54.09 43.89 54.09 43.55 57.91 43.03 57.91 41.85 59.64 41.4 60 42.66 60 42.66" style="fill:#768930;fill-rule:evenodd"/><polygon points="54.33 39.97 54.26 39.83 51.23 41.86 52 42.16 54.33 39.97 54.33 39.97" style="fill:#a74522;fill-rule:evenodd"/><polygon points="53.62 41.87 53.62 42.6 51.53 42.6 51.28 45.4 50.09 45.4 49.98 45.1 50.27 43.67 51.01 41.66 54.08 39.23 58.4 38.58 61.52 40.57 61.25 40.95 53.62 41.87 53.62 41.87" style="fill:#151514;fill-rule:evenodd"/><path d="M51.86,42.1l-.54-.46,2.57-1.5.07.1-2.1,1.86Z" style="fill:#561a26;fill-rule:evenodd"/><polygon points="54.55 39.81 54.55 39.41 58.41 39.26 61.46 40.65 60.31 42.24 59.24 40.89 54.55 39.81 54.55 39.81" style="fill:#a74522;fill-rule:evenodd"/><polygon points="35.92 40.25 33.82 40.37 31.94 42.68 32.13 42.85 33.92 41.97 34.99 41.97 35.92 40.25 35.92 40.25" style="fill:#561a26;fill-rule:evenodd"/><polygon points="56.05 39.87 59.4 40.04 60.64 41.8 59.36 43.52 58.89 43.19 59.68 42.1 59.27 41.82 57.8 42.63 57.05 42.63 56.05 39.87 56.05 39.87" style="fill:#561a26;fill-rule:evenodd"/><path d="M37.57,42.64h.26V41.55l.46-.38-.91.74.19.73Zm1.57,0,1.47-1.16-1.06-1.33-1.12.91h1.48v1l-.77.6Z" style="fill:#a74522;fill-rule:evenodd"/><polygon points="37.83 42.64 39.14 42.64 39.91 42.04 39.91 41.05 38.43 41.05 37.83 41.55 37.83 42.64 37.83 42.64" style="fill:#efcc47;fill-rule:evenodd"/><polygon points="37.69 42.64 36.12 42.64 34.31 41.59 35.45 40.42 36.91 40.77 37.69 42.64 37.69 42.64" style="fill:#9a9e25;fill-rule:evenodd"/><polygon points="37.69 42.64 36.12 42.64 35.22 42.12 35.22 41.17 37.08 41.17 37.69 42.64 37.69 42.64" style="fill:#fcd9bc;fill-rule:evenodd"/><polygon points="56.12 42.64 57.44 42.64 58.88 41.2 57.61 40.16 56.12 42.64 56.12 42.64" style="fill:#768930;fill-rule:evenodd"/><polygon points="56.12 42.64 57.44 42.64 57.91 42.17 57.91 40.98 57.12 40.98 56.12 42.64 56.12 42.64" style="fill:#efcc47;fill-rule:evenodd"/><polygon points="55.4 42.64 54.19 42.64 52.61 41.8 53.87 40.31 55.27 41.62 55.4 42.64 55.4 42.64" style="fill:#9a9e25;fill-rule:evenodd"/><polygon points="55.4 42.64 54.19 42.64 53.62 42.34 53.62 41.13 54.75 41.13 55.27 41.62 55.4 42.64 55.4 42.64" style="fill:#fcd9bc;fill-rule:evenodd"/><polygon points="36 40.7 36.02 41.66 37.17 42.64 38.21 42.64 39.33 41.6 39.33 40.52 39.58 40.52 40.91 41.78 40.91 42.51 41.9 42.51 41.9 42.14 39.33 39.97 35.14 40.31 33.6 41.59 34.29 41.87 35.52 40.7 36 40.7 36 40.7" style="fill:#151514;fill-rule:evenodd"/><path d="M54,40.69v.77l1.18,1.18H56.5l1-1.19v-.9l.18-.11,1.45,1.31.65-.36-2.27-1.46-3-.12L51.63,42l.86.36,1.27-1.66a2.44,2.44,0,0,0,.27,0Z" style="fill:#151514;fill-rule:evenodd"/><polygon points="36.69 41.04 36.2 41.35 37.16 42.42 38.15 42.42 39.08 41.49 38.58 40.73 38.34 41.8 37.22 41.8 37.22 41.01 36.69 41.04 36.69 41.04" style="fill:#842351;fill-rule:evenodd"/><polygon points="37.58 42.42 38.15 42.42 38.7 41.86 38.38 41.61 38.34 41.8 37.22 41.8 37.22 41.67 36.99 41.92 37.58 42.42 37.58 42.42" style="fill:#a74522;fill-rule:evenodd"/><polygon points="54.79 41.13 54.38 41.42 55.33 42.4 56.3 42.4 57.36 41.31 56.99 40.47 56.45 41.84 55.27 41.84 55.26 41.11 54.79 41.13 54.79 41.13" style="fill:#842351;fill-rule:evenodd"/><polygon points="55.61 42.4 56.3 42.4 56.92 41.76 56.59 41.48 56.45 41.84 55.27 41.84 55.27 41.82 55.13 41.93 55.61 42.4 55.61 42.4" style="fill:#a74522;fill-rule:evenodd"/><path d="M54.71,41l.16.37.64-.34-.07-.17-.73.14Zm1-.24h.15v.16h-.15v-.16Z" style="fill:#fff;fill-rule:evenodd"/><polygon points="56.92 41.76 56.72 41.6 56.16 42.4 56.3 42.4 56.92 41.76 56.92 41.76" style="fill:#fff;fill-rule:evenodd"/><path d="M36.6,40.83l.18.43.75-.4-.09-.2-.84.17Zm1.18-.28H38v.18h-.18v-.18Z" style="fill:#fff;fill-rule:evenodd"/><polygon points="38.7 41.86 38.51 41.71 38.02 42.42 38.15 42.42 38.7 41.86 38.7 41.86" style="fill:#fff;fill-rule:evenodd"/><polygon points="49.95 43.67 50.82 41.48 53.93 38.98 58.4 38.58 61.8 40.35 63.23 43.37 63.03 43.52 61.58 40.6 58.35 38.92 54.08 39.23 51.07 41.7 50.27 43.67 49.95 43.67 49.95 43.67" style="fill:#fff;fill-rule:evenodd"/><polygon points="61.88 44.29 62.46 44.29 62.46 44.88 61.88 44.88 61.88 44.29 61.88 44.29" style="fill:#fff;fill-rule:evenodd"/><polygon points="30.68 44.5 31.53 41.31 34.96 38.99 39.07 38.95 42.13 40.7 43.65 43.54 43.38 43.68 41.87 40.9 38.95 39.28 35.07 39.4 31.59 41.73 30.94 44.49 30.68 44.5 30.68 44.5" style="fill:#fff;fill-rule:evenodd"/><polygon points="50.45 44.44 51.08 44.44 51.08 45.07 50.45 45.07 50.45 44.44 50.45 44.44" style="fill:#fff;fill-rule:evenodd"/><polygon points="43.05 44.68 43.27 44.68 43.82 44.13 43.97 44.27 43.3 45.3 43.05 44.68 43.05 44.68" style="fill:#768930;fill-rule:evenodd"/><polygon points="62.38 44.57 63.04 44.57 63.04 44.74 62.29 44.74 62.38 44.57 62.38 44.57" style="fill:#fff;fill-rule:evenodd"/><polygon points="43.98 55.57 45.95 56.85 45.4 56.73 45.23 56.65 44.29 56.06 42.79 55.62 42.79 55.57 43.98 55.57 43.98 55.57" style="fill:#a74522;fill-rule:evenodd"/><polygon points="50.99 52.73 51.81 53.95 50.18 54.83 50.03 54.58 50.99 52.73 50.99 52.73" style="fill:#a74522;fill-rule:evenodd"/><polygon points="63.25 44.18 64.52 44.18 66.87 39.65 67.12 39.8 64.72 44.67 63.27 44.67 63.25 44.18 63.25 44.18" style="fill:#151514;fill-rule:evenodd"/><polygon points="38.55 63.24 39.62 61.98 40.44 62.83 48.04 63.21 55.98 61.02 56.44 61.76 53.79 64.33 53.34 64.06 54.2 63.6 54.09 63.31 50.18 64.52 50.12 64.36 52.79 62.91 52.73 62.69 47.95 63.46 40.16 63.02 38.78 63.4 38.55 63.24 38.55 63.24" style="fill:#151514;fill-rule:evenodd"/><polygon points="66.38 67.92 57.16 77.73 70.02 89.24 74.75 85.93 66.78 77.81 67.67 77.14 75.4 84.79 83.68 77.14 77.21 74.87 74.18 78.1 73.8 77.8 75.36 74.22 70.08 72.36 66.38 67.92 66.38 67.92" style="fill:#266b77;fill-rule:evenodd"/><polygon points="31.28 73.71 31.79 76.91 38.31 82.45 38.27 86.33 27.93 94.27 18.21 90.93 26.09 84.55 24.39 82.91 8.3 99.95 1.36 94.08 25.66 80.46 30.16 81.54 30.44 81.24 27.94 79.19 31.08 77.42 31.03 73.71 31.28 73.71 31.28 73.71" style="fill:#561a26;fill-rule:evenodd"/><polygon points="44.19 75.64 49.72 79.43 50.03 79.04 45.7 75.03 44.19 75.64 44.19 75.64" style="fill:#6fadcf;fill-rule:evenodd"/><polygon points="20.5 93.94 23.65 93.94 23.65 97.09 20.5 97.09 20.5 93.94 20.5 93.94" style="fill:#ed7d2e;fill-rule:evenodd"/><polygon points="76.35 86.75 78.31 86.75 78.31 88.71 76.35 88.71 76.35 86.75 76.35 86.75" style="fill:#9a9e25;fill-rule:evenodd"/><path d="M33.63,103.16l-.75.14a1.4,1.4,0,0,0,0-.37c0-.65-.39-1-1.18-1-.62,0-.92.23-.92.67s.34.62,1,.86q2,.69,2,2a1.57,1.57,0,0,1-.57,1.27,2.21,2.21,0,0,1-1.49.48c-1.38,0-2.07-.53-2.07-1.6,0-.08,0-.19,0-.32l.78-.17a2.57,2.57,0,0,0-.09.61c0,.69.4,1,1.19,1,.63,0,1-.25,1-.75s-.38-.69-1.14-1c-1.09-.4-1.64-1-1.64-1.93a1.5,1.5,0,0,1,.55-1.21,2.13,2.13,0,0,1,1.44-.46q1.83,0,1.83,1.65Z" style="fill:#e95e85"/><polygon points="38.48 101.6 38.48 102.16 37.12 102.16 37.12 107.17 35.41 107.17 35.41 102.16 34.03 102.16 34.03 101.6 38.48 101.6 38.48 101.6" style="fill:#e95e85"/><polygon points="42.51 101.6 42.51 102.16 40.51 102.16 40.51 103.85 42.19 103.85 42.19 104.41 40.51 104.41 40.51 106.61 42.85 106.61 42.85 107.17 38.9 107.17 38.9 101.6 42.51 101.6 42.51 101.6" style="fill:#e95e85"/><polygon points="47.37 101.6 45.75 107.17 44.3 107.17 42.83 101.6 44.46 101.6 45.56 105.82 46.76 101.6 47.37 101.6 47.37 101.6" style="fill:#e95e85"/><polygon points="51.4 101.6 51.4 102.16 49.4 102.16 49.4 103.85 51.08 103.85 51.08 104.41 49.4 104.41 49.4 106.61 51.74 106.61 51.74 107.17 47.79 107.17 47.79 101.6 51.4 101.6 51.4 101.6" style="fill:#e95e85"/><path d="M55.12,101.6v3.74c0,.56,0,.92,0,1.08a.76.76,0,0,1-.16.43.7.7,0,0,1-.38.27,2.57,2.57,0,0,1-.72.07h-.72v-1h.19a.36.36,0,0,0,.24-.08.27.27,0,0,0,.1-.19,4.14,4.14,0,0,0,0-.42V101.6Z" style="fill:#266b77"/><path d="M59,104.88a11,11,0,0,1,0,1.19,1.33,1.33,0,0,1-.25.64,1.31,1.31,0,0,1-.56.45,2.12,2.12,0,0,1-.83.15,2.2,2.2,0,0,1-.8-.14,1.34,1.34,0,0,1-.84-1.08c0-.23,0-.63,0-1.21v-1c0-.56,0-1,0-1.19a1.41,1.41,0,0,1,.25-.64,1.36,1.36,0,0,1,.56-.44,2,2,0,0,1,.83-.16,2.09,2.09,0,0,1,.81.15,1.31,1.31,0,0,1,.57.44,1.38,1.38,0,0,1,.26.64,11.12,11.12,0,0,1,0,1.2v1Zm-1.46-1.83a1.73,1.73,0,0,0,0-.5.17.17,0,0,0-.17-.11.19.19,0,0,0-.17.09,1.22,1.22,0,0,0-.06.52v2.6a2.3,2.3,0,0,0,0,.6.16.16,0,0,0,.18.12.17.17,0,0,0,.18-.13,2.72,2.72,0,0,0,0-.63v-2.56Z" style="fill:#266b77"/><path d="M59.55,101.6H61a3.81,3.81,0,0,1,1,.11,1,1,0,0,1,.57.43,1.91,1.91,0,0,1,.22,1,1.09,1.09,0,0,1-.16.69,1,1,0,0,1-.6.29,1.13,1.13,0,0,1,.68.38,1.47,1.47,0,0,1,.18.81v.52a2,2,0,0,1-.13.84.66.66,0,0,1-.41.37,4.09,4.09,0,0,1-1.16.1H59.55V101.6Zm1.45,1v1.24h.14a.29.29,0,0,0,.27-.11,1.68,1.68,0,0,0,.06-.6,1,1,0,0,0,0-.37.22.22,0,0,0-.12-.13,1,1,0,0,0-.3,0Zm0,2.11v1.57a.63.63,0,0,0,.39-.1.71.71,0,0,0,.08-.42v-.53a.71.71,0,0,0-.08-.43.67.67,0,0,0-.39-.09Z" style="fill:#266b77"/><path d="M66.52,103.3H65.17v-.41a.87.87,0,0,0,0-.37.17.17,0,0,0-.17-.08.21.21,0,0,0-.2.11.63.63,0,0,0-.07.32,1,1,0,0,0,.08.42,1.17,1.17,0,0,0,.41.34,4.14,4.14,0,0,1,1.22,1,2.9,2.9,0,0,1,.11,2.07,1,1,0,0,1-.54.47,2.06,2.06,0,0,1-.93.19,2,2,0,0,1-1-.22,1,1,0,0,1-.54-.56,2.76,2.76,0,0,1-.13-1v-.37h1.35v.68a.88.88,0,0,0,.06.41.2.2,0,0,0,.2.09.22.22,0,0,0,.21-.12.6.6,0,0,0,.07-.33,1.07,1.07,0,0,0-.13-.65,4.49,4.49,0,0,0-.68-.51,7.1,7.1,0,0,1-.72-.52,1.4,1.4,0,0,1-.29-.45,2.12,2.12,0,0,1-.11-.73,2,2,0,0,1,.16-.94,1.15,1.15,0,0,1,.53-.46,2.12,2.12,0,0,1,.88-.17,2.37,2.37,0,0,1,1,.18,1,1,0,0,1,.52.47,2.34,2.34,0,0,1,.13.94v.22Z" style="fill:#266b77"/><polygon points="62.87 90.81 64.18 90.81 64.18 92.12 62.87 92.12 62.87 90.81 62.87 90.81" style="fill:#e95e85;fill-rule:evenodd"/><path d="M31.84,108.62v1.86h-.52v-1.4a.89.89,0,0,1-.39.11V109a.72.72,0,0,0,.58-.33Zm8.66,0-.07.39h-.88l-.07.4a.81.81,0,0,1,.46-.15.72.72,0,0,1,.48.17.57.57,0,0,1,.18.44.59.59,0,0,1-.21.47.89.89,0,0,1-.56.17c-.43,0-.65-.14-.65-.44a1.37,1.37,0,0,1,0-.16l.24,0a1.83,1.83,0,0,0,0,.21q0,.27.3.27c.23,0,.35-.16.35-.5s-.1-.35-.3-.35a.38.38,0,0,0-.32.19l-.21-.05.17-1ZM35.08,110l.24-.05a.86.86,0,0,0,0,.15c0,.17.08.25.24.25a.23.23,0,0,0,.23-.13,1.4,1.4,0,0,0,.1-.52.52.52,0,0,1-.35.15.51.51,0,0,1-.4-.17.63.63,0,0,1-.15-.44.65.65,0,0,1,.18-.48.71.71,0,0,1,.5-.18c.53,0,.79.32.79,1a1,1,0,0,1-.23.71.76.76,0,0,1-.62.26c-.35,0-.53-.13-.53-.39a.49.49,0,0,1,0-.11Zm.62-1.27c-.13,0-.19.17-.19.51s.05.42.17.42.22-.15.22-.45-.07-.48-.2-.48Zm9-.12-.07.39h-.88l-.07.4a.81.81,0,0,1,.46-.15.69.69,0,0,1,.48.17.58.58,0,0,1,.19.44.59.59,0,0,1-.21.47.9.9,0,0,1-.57.17c-.43,0-.64-.14-.64-.44a1.37,1.37,0,0,1,0-.16l.24,0a.82.82,0,0,0,0,.21c0,.18.09.27.29.27s.36-.16.36-.5-.1-.35-.3-.35a.41.41,0,0,0-.33.19l-.21-.05.17-1Zm4.3,1V110h-.67v-.36Z" style="fill:#e95e85"/><path d="M53.93,110v.44H52.54v-.26a4.8,4.8,0,0,1,.39-.4c.33-.32.49-.56.49-.73s-.08-.33-.26-.33-.32.14-.32.4a.78.78,0,0,0,0,.27l-.29-.06a1,1,0,0,1,0-.21q0-.57.69-.57a.77.77,0,0,1,.49.15.44.44,0,0,1,.19.37.78.78,0,0,1-.38.57l-.16.14-.19.15-.09.07Zm3.54-1.45c.51,0,.77.32.77,1s-.26,1-.77,1-.78-.32-.78-1,.26-1,.78-1Zm0,.15c-.15,0-.22.27-.22.81s.07.81.22.81.21-.27.21-.81-.07-.81-.21-.81Zm4.53-.12v1.86h-.52v-1.4a.89.89,0,0,1-.39.11V109a.7.7,0,0,0,.58-.33Zm4.21,0v1.86h-.52v-1.4a.89.89,0,0,1-.39.11V109a.7.7,0,0,0,.58-.33Z" style="fill:#266b77"/><polygon points="30.99 44.11 32.03 44.11 32.03 45.15 30.99 45.15 30.99 44.11 30.99 44.11" style="fill:#fff;fill-rule:evenodd"/><polygon points="42.57 44.55 43.19 44.55 43.19 45.17 42.57 45.17 42.57 44.55 42.57 44.55" style="fill:#fff;fill-rule:evenodd"/></svg>