<svg xmlns="http://www.w3.org/2000/svg" viewBox="0 0 517.49 475.73"><g style="opacity:0.8"><g style="opacity:0.5"><path d="M304,216.66c16.47,11.86,38.13,18.61,62.85,19.94,36.92,2,106,12.24,120.31,60.43,19.71,66.48-50.76,119.29-100.64,135.28S142.75,442.74,54.94,313.77c-78.57-115.41,86.2-271.93,169.79-241.4C297.24,98.85,238.9,169.7,304,216.66Z" style="fill:#ced3e6"/></g><g style="opacity:0.5"><ellipse cx="195" cy="47.48" rx="9.54" ry="6.03" transform="translate(5.34 113.1) rotate(-32.77)" style="fill:#ced3e6"/></g><path d="M513,303.1c-.86-1.68-3.33-2.18-5.85-1.12-4.29,1.81-6.28,6.92-1.84,8.51h0C510.51,310.82,514.47,306,513,303.1Z" style="fill:#ced3e6"/><ellipse cx="274.33" cy="9.02" rx="11.55" ry="7.84" transform="translate(36.05 145.25) rotate(-31.64)" style="fill:#ced3e6"/><g style="opacity:0.8"><path d="M504,280c-5.76,2.81-9.23,8.47-7.75,12.65s7.35,5.28,13.11,2.47,9.23-8.47,7.75-12.64S509.8,277.15,504,280Z" style="fill:#ced3e6"/></g><path d="M12.86,253c-.4-1.9-2.55-2.83-5.11-2.14C3.4,252,.39,257,4.08,259.42h0C8.81,260.64,13.55,256.28,12.86,253Z" style="fill:#ced3e6"/><path d="M10.08,227.21c-5.94,2-10.44,7.33-10.06,12s5.51,6.76,11.44,4.78,10.44-7.34,10.06-12S16,225.22,10.08,227.21Z" style="fill:#ced3e6"/><path d="M295.23,5.93c-3.14,2.33-4.21,5.83-2.39,7.82s5.82,1.7,9-.63,4.2-5.83,2.39-7.82S298.36,3.6,295.23,5.93Z" style="fill:#ced3e6"/></g><g style="opacity:0.8"><path d="M183.66,72.87c50.7-37.73,130.71-52.33,164.49-21.53q.89.81,1.77,1.65c47.13,45.12-41.42,117.13-12.32,168S449.15,266,462.24,343c11.76,69.22-149,210-280.5,78.75C76.52,316.8,32.37,185.44,183.66,72.87Z" style="fill:#ced3e6"/></g><ellipse cx="275.08" cy="414.24" rx="127.36" ry="7.77" style="fill:#ced3e6"/><path d="M256.49,171.37l-.16.76-.12.6-.21,1.15c-.13.75-.25,1.48-.36,2.21-.21,1.46-.39,2.89-.54,4.32-.32,2.86-.54,5.7-.68,8.53s-.17,5.66-.14,8.49.16,5.66.35,8.48.49,5.63.85,8.44c.2,1.41.37,2.81.61,4.21.11.7.22,1.4.34,2.1l.39,2.09c.12.7.28,1.39.42,2.09s.28,1.39.45,2.08c.32,1.38.63,2.77,1,4.15.18.68.35,1.37.54,2.06l.58,2.05.15.52.07.25.16.53c.14.49.3.91.46,1.34s.34.82.51,1.17.34.71.52,1l.27.48.26.45.27.44.27.4c.18.28.35.52.53.77a29.52,29.52,0,0,0,2.05,2.55c.67.75,1.33,1.41,2,2,1.29,1.24,2.54,2.29,3.77,3.28a88.45,88.45,0,0,0,7.29,5.15c4.8,3.07,9.57,5.72,14.37,8.21s9.61,4.79,14.45,7q3.65,1.63,7.3,3.2l3.67,1.55,1.86.76,1.91.76,8.38-18.94-1.62-.83-1.67-.87-3.36-1.75c-2.23-1.17-4.45-2.37-6.66-3.58-4.42-2.42-8.79-4.9-13-7.44-2.12-1.28-4.21-2.58-6.25-3.89s-4-2.66-5.91-4-3.66-2.74-5.19-4.08c-.76-.67-1.45-1.32-2-1.91a8.18,8.18,0,0,1-1-1.3s0,0,0,0h0l0,0,0,0,0,0a.72.72,0,0,1,.1.18c0,.06.09.17.13.27a4,4,0,0,1,.16.43l0,.12s0,0,0,0v-.05l-.05-.22-.1-.42-.39-1.7c-.13-.57-.23-1.15-.35-1.72-.25-1.14-.44-2.29-.65-3.44-.11-.57-.19-1.15-.28-1.73s-.19-1.15-.26-1.73c-.34-2.31-.6-4.64-.82-7s-.33-4.68-.43-7-.1-4.7-.06-7.05.13-4.69.29-7,.36-4.66.64-6.94c.14-1.14.3-2.27.48-3.37.08-.56.17-1.1.26-1.63l.14-.75.1-.54Z" style="fill:#ea9b7a"/><path d="M284.36,177.82l4.76,36.11c-7.11,4-13.85,6.83-20.05,8Z" style="fill:#a92f4b"/><path d="M274.25,233.63a.64.64,0,0,0,.3-.08,64.27,64.27,0,0,1,8.84-3.72.65.65,0,0,0,.41-.8.63.63,0,0,0-.8-.4,63.49,63.49,0,0,0-9.05,3.81.63.63,0,0,0,.3,1.19Z" style="fill:#d46a43"/><path d="M282.84,230a.63.63,0,0,0,.07-1.26c-2.63-.29-6.07-.31-6.22-.31h0a.64.64,0,0,0-.64.63.64.64,0,0,0,.63.64s3.53,0,6.09.3Z" style="fill:#d46a43"/><polygon points="351.31 378.19 357.88 388.91 370.39 383.38 364.71 371.85 351.31 378.19" style="fill:#ea9b7a"/><path d="M410,389.47l-47.31,20.94a7.11,7.11,0,0,1-1.79-2.35c-2.06-3.87-3.61-10.82-4.77-15.13-.13-.5-.26-1-.39-1.39a13.4,13.4,0,0,0-.59-1.7c-1.45-3.29,1.71-4,1.71-4,6.86,2.58,9.17-6.86,13.35-5.95,0,0,1.8.37,7.05,2.09s12.63,1.12,19.07,1c8.32-.18,11.61,1.87,12.89,3.72A4,4,0,0,1,410,389.47Z" style="fill:#faaf3a"/><path d="M410,389.47l-47.31,20.94a7.11,7.11,0,0,1-1.79-2.35l48.32-21.39A4,4,0,0,1,410,389.47Z" style="fill:#c77e2e"/><path d="M367.52,408.27l-1.41.63a11.35,11.35,0,0,0-.81-8.7,14.6,14.6,0,0,0-9.17-7.27c-.13-.5-.26-1-.39-1.39a15.88,15.88,0,0,1,10.66,8.1A12.57,12.57,0,0,1,367.52,408.27Z" style="fill:#c77e2e"/><path d="M377.7,385.11a.87.87,0,0,1-1-.26.86.86,0,0,1,.15-1.2l2.63-2a.85.85,0,1,1,1,1.35l-2.63,2Z" style="fill:#fff"/><path d="M373.67,383.94a.85.85,0,0,1-.87-1.45l2.63-2a.86.86,0,0,1,1.05,1.35l-2.63,2A.81.81,0,0,1,373.67,383.94Z" style="fill:#fff"/><path d="M381.41,385.51a.85.85,0,0,1-.87-1.45l2.64-2a.85.85,0,0,1,1.19.15.86.86,0,0,1-.15,1.2l-2.63,2A.81.81,0,0,1,381.41,385.51Z" style="fill:#fff"/><path d="M385.1,385.86a.86.86,0,0,1-.87-1.46l2.63-2a.86.86,0,1,1,1.05,1.35l-2.63,2A.87.87,0,0,1,385.1,385.86Z" style="fill:#fff"/><path d="M389,386a.86.86,0,0,1-1-.26.84.84,0,0,1,.15-1.19l2.63-2.05a.87.87,0,0,1,1.2.15.86.86,0,0,1-.16,1.2l-2.63,2A.62.62,0,0,1,389,386Z" style="fill:#fff"/><path d="M393.07,385.71a.85.85,0,0,1-.87-1.45l2.63-2a.86.86,0,0,1,1.05,1.35l-2.63,2A.81.81,0,0,1,393.07,385.71Z" style="fill:#fff"/><path d="M321.94,274.72c-4.39-4.32-39-14-62-7.56A29.88,29.88,0,0,0,262.17,297c30.23,4.94,47.1,15.11,47.1,15.11s10.72,24.77,17.09,33.86,21,38,21,38l22-9.4S333.89,286.49,321.94,274.72Z" style="fill:#39393b"/><path d="M345,378.46a.69.69,0,0,0,.24,0l21.54-9a.64.64,0,0,0,.34-.83.62.62,0,0,0-.83-.34l-21.53,8.95a.63.63,0,0,0-.35.83A.65.65,0,0,0,345,378.46Z" style="fill:#585859"/><path d="M348.6,376.65a.59.59,0,0,0,.23,0,.63.63,0,0,0,.36-.82c-.05-.11-4.55-11.36-15.06-27.31s-21.36-42.62-21.47-42.89a.64.64,0,0,0-1.18.47c.11.27,11.08,27.17,21.59,43.12s14.9,27,14.94,27.08A.64.64,0,0,0,348.6,376.65Z" style="fill:#585859"/><polygon points="295.77 380.08 297.43 392.54 311.11 392.54 310.58 379.71 295.77 380.08" style="fill:#ea9b7a"/><path d="M344.86,414.15H293.13a7.05,7.05,0,0,1-.68-2.88c-.33-4.37,1.07-11.36,1.75-15.76.08-.51.15-1,.21-1.43a14,14,0,0,0,.15-1.8c0-3.59,3.19-3,3.19-3,5.23,5.13,11.16-2.57,14.62,0,0,0,1.49,1.06,5.6,4.76s11.09,6.13,17,8.62c7.68,3.21,9.85,6.42,10.28,8.62A4.08,4.08,0,0,1,344.86,414.15Z" style="fill:#faaf3a"/><path d="M344.86,414.15H293.13a7.05,7.05,0,0,1-.68-2.88h52.84A4.08,4.08,0,0,1,344.86,414.15Z" style="fill:#c77e2e"/><path d="M298.4,414.15h-1.53a11.36,11.36,0,0,0,2.78-8.29,14.6,14.6,0,0,0-5.45-10.35c.08-.51.15-1,.21-1.43a15.85,15.85,0,0,1,6.47,11.72A12.57,12.57,0,0,1,298.4,414.15Z" style="fill:#c77e2e"/><path d="M317.09,397.08a.85.85,0,0,1-.2-1.68l3.23-.8a.85.85,0,0,1,.41,1.65l-3.23.81Z" style="fill:#fff"/><path d="M313.88,394.39a.85.85,0,0,1-.2-1.68l3.23-.8a.84.84,0,0,1,1,.62.85.85,0,0,1-.62,1l-3.23.81Z" style="fill:#fff"/><path d="M320.32,399a.85.85,0,0,1-.2-1.68l3.23-.8a.85.85,0,0,1,.41,1.65l-3.23.8Z" style="fill:#fff"/><path d="M323.56,400.77a.85.85,0,0,1-.21-1.68l3.23-.81a.85.85,0,1,1,.41,1.66l-3.23.8Z" style="fill:#fff"/><path d="M327.08,402.44a.86.86,0,0,1-.83-.65.85.85,0,0,1,.62-1l3.24-.81a.85.85,0,0,1,.41,1.66l-3.24.8A.64.64,0,0,1,327.08,402.44Z" style="fill:#fff"/><path d="M330.9,403.86a.85.85,0,0,1-.2-1.68l3.23-.8a.85.85,0,0,1,.41,1.65l-3.23.8A.76.76,0,0,1,330.9,403.86Z" style="fill:#fff"/><path d="M192.11,277c0,.21.06.41.08.6a3.24,3.24,0,0,0,.31.24,72.41,72.41,0,0,0,27,12.59l1,.24c1.64.38,3.29.7,4.93,1,2.23.37,4.46.66,6.68.85,1.95.17,3.9.27,5.82.31a71.58,71.58,0,0,0,22.77-3l.76-.24a47,47,0,0,0,5-2l.71-.34c1-.48,1.9-1,2.79-1.52-.14-3.19-.18-7-.15-11.09,0-.34,0-.68,0-1,.05-5.68.23-11.81.45-17.41,0-.27,0-.53,0-.79.12-2.93.26-5.71.39-8.19,0-.26,0-.53,0-.78.11-2.09.22-4,.32-5.48,0-.39.05-.78.08-1.16l.06-.89h0c.08-1.08.17-2.13.26-3.17.14-1.66.3-3.27.47-4.83.2-1.79.41-3.52.63-5.2s.5-3.53.77-5.21.6-3.51.91-5.16c1.11-5.83,2.36-10.82,3.61-15.14.09-.29.18-.58.26-.87.51-1.72,1-3.31,1.51-4.81.11-.33.22-.65.32-1,2.78-8.25,5.08-13.23,5.12-16.57.08-6.95-5-9.18-10.3-12l-.75-.4c-.89-.48-1.78-1-2.65-1.54a12.66,12.66,0,0,1-1.08-.72c-.25-.17-.49-.35-.72-.52a15.74,15.74,0,0,1-5.14-6.53l-20-4.22a28.15,28.15,0,0,1-5.13,1.85l-.94.24c-.37.09-.77.18-1.18.25q-.37.09-.78.15l-.62.11A38.13,38.13,0,0,1,229,154l-.77,0-.54,0a13.72,13.72,0,0,0-4.88.63h0c-.3.1-.59.2-.89.32-6.5,2.6-11.62,10.38-14.94,22.33-.92,3.32-1.83,6.55-2.71,9.72l-.28,1-.57,2.07h0c-.07.25-.13.5-.2.75-.68,2.46-1.34,4.87-2,7.26h0c-.06.25-.13.51-.2.76h0c0,.14-.07.27-.11.4l-.36,1.4a226.46,226.46,0,0,0-5.26,25.1c-.25,1.73-.47,3.46-.66,5.2,0,.42-.09.89-.14,1.42,0,.09,0,.19,0,.29s0,.36-.05.55l0,.28c-.32,3.15-.74,7.52-1.14,12.32,0,.26-.05.51-.06.77C192.28,257.79,191.46,271.11,192.11,277Z" style="fill:#df615c"/><path d="M253.07,167c-8-1.69-12.32-11.69-12.5-12.13a.57.57,0,1,1,1.05-.44c0,.1,4.43,10.28,12.15,11.53s10.61-4.35,10.73-4.59a.57.57,0,0,1,.77-.24.58.58,0,0,1,.25.77,11.27,11.27,0,0,1-11.94,5.2Z" style="fill:#a92f4b"/><path d="M245,273.43c-7.53-1.59-15.3-5.45-23.06-11.52a100.74,100.74,0,0,1-17.73-18.09.58.58,0,0,1,.13-.8.58.58,0,0,1,.8.13A99.59,99.59,0,0,0,222.62,261c9.67,7.54,24.45,15.5,40,10.54a.57.57,0,0,1,.35,1.09A34.77,34.77,0,0,1,245,273.43Z" style="fill:#a92f4b"/><path d="M249.46,267.69h0c-11.71-2.67-18-20.35-18.27-21.1a.57.57,0,0,1,.35-.73.56.56,0,0,1,.73.35c.06.18,6.35,17.83,17.44,20.36a.57.57,0,0,1-.24,1.12Z" style="fill:#a92f4b"/><path d="M271.09,239.73a17.33,17.33,0,0,1-3.9-3.65c-2.61-3.4-3-6.88-1-9.8l1.1-1.61c4-5.88,4.45-6.49,4.1-16.16A8.83,8.83,0,0,1,274,201.4a9.66,9.66,0,0,1,4.11-2.15c-.09.29-.17.58-.26.87a8.53,8.53,0,0,0-3.33,1.85,8.05,8.05,0,0,0-2.3,6.51c.36,9.92-.16,10.68-4.23,16.62l-1.1,1.61c-2.4,3.53-.43,7.1,1,8.91a16.2,16.2,0,0,0,3.35,3.21h0Z" style="fill:#a92f4b"/><path d="M194.42,233.5a15.07,15.07,0,0,0,4.51,1.79,10.1,10.1,0,0,0,9.43-2.54,7.64,7.64,0,0,0,.51-10.61c-3-3.41-1.7-5.22-.08-7.52s3.59-5.08,1.52-10a10,10,0,0,0-5.44-5.78,10.26,10.26,0,0,0-3.6-.72c-.06.25-.13.51-.2.76a9.75,9.75,0,0,1,3.52.67,9.3,9.3,0,0,1,5,5.37c1.9,4.55.2,7-1.44,9.29s-3.26,4.61.12,8.46a6.81,6.81,0,0,1-.47,9.57C205,235,200,236,194.5,232.67c0,.18,0,.36-.05.55Z" style="fill:#a92f4b"/><path d="M243,223.19c-5-4.82-3.41-8.54-1.58-12.83,1.74-4.11,3.71-8.77.41-15.21l-.21-.39a6.05,6.05,0,0,0-11.39,2.32c-.38,4.64-2.65,10.35-6.57,16.49a14.29,14.29,0,0,0-1.49,13.14c2.17,5.76,7.83,10.71,12.74,12.81a15.17,15.17,0,0,0,1.8.65,8.73,8.73,0,0,0,9.94-3.79C248.91,232.51,247.54,227.58,243,223.19Zm3,12.8a7.94,7.94,0,0,1-9.05,3.45c-5.06-1.47-11.69-6.74-14-13A13.38,13.38,0,0,1,224.31,214a55.68,55.68,0,0,0,4.3-8,28.6,28.6,0,0,0,2.39-8.84,5.2,5.2,0,0,1,4.21-4.76,5.2,5.2,0,0,1,5.75,2.73l.2.38c3.14,6.12,1.32,10.41-.43,14.56-1.85,4.37-3.6,8.49,1.75,13.68C246.74,227.87,248.06,232.45,246,236Z" style="fill:#a92f4b"/><path d="M270.2,193.53c-4.48-1.94-7.74-6.17-7.67-8.66a1.39,1.39,0,0,1,1-1.41c5.59-2,7.86-5.68,8.7-13.93a6.09,6.09,0,0,1,2.33-4.49l.19-.13-.75-.4a6.85,6.85,0,0,0-2.53,5c-.8,7.89-2.95,11.36-8.2,13.28a2.17,2.17,0,0,0-1.46,2.11c-.08,2.74,3.24,7.27,8.13,9.38a13.92,13.92,0,0,0,2.57.82,12.06,12.06,0,0,0,7.1-.61c.11-.33.21-.65.32-1A11.71,11.71,0,0,1,270.2,193.53Z" style="fill:#a92f4b"/><path d="M252.12,177.67a8.23,8.23,0,0,0-6.59-4.61,4.76,4.76,0,0,0-5.12,2.59c-1.25,2.51.34,4,1.87,5.38,1.75,1.61,3.56,3.28,2.61,6.76s0,6.14,2.41,7.48a5.15,5.15,0,0,0,1.47.55,4.16,4.16,0,0,0,4-1.09C256.51,190.65,254.36,182.1,252.12,177.67Zm.06,16.55a3.78,3.78,0,0,1-4.51.38c-2.09-1.16-2.86-3.63-2-6.61,1.07-3.93-1.09-5.92-2.83-7.52-1.57-1.45-2.7-2.49-1.71-4.48a4,4,0,0,1,4.37-2.17,7,7,0,0,1,.78.11,7.72,7.72,0,0,1,5.2,4.08C253.59,182.26,255.68,190.42,252.18,194.22Z" style="fill:#a92f4b"/><path d="M264,211.6a9.28,9.28,0,0,0-8.25-8c-2.51-.22-4.23.67-5,2.59-1,2.67.81,4.62,2.61,6.51,2.11,2.22,4.09,4.31,1.83,7.6-2,2.83-2.36,5.23-1.12,6.55a2.92,2.92,0,0,0,1.62.87,8.42,8.42,0,0,0,5.68-1.39c1.4-.82,2.22-2.46,2.64-4.48A32.32,32.32,0,0,0,264,211.6Zm-3,14c-2.65,1.56-5.26,1.84-6.35.66s-.55-3.08,1.19-5.6c2.61-3.79.21-6.32-1.91-8.55-1.7-1.8-3.31-3.49-2.44-5.71.62-1.62,2-2.3,4.19-2.11.32,0,.64.08.95.14A8.36,8.36,0,0,1,261,207a8.67,8.67,0,0,1,2.2,4.71C264.2,219.24,263.4,224.19,261,225.62Z" style="fill:#a92f4b"/><path d="M270.26,255.34c-3.46-1.15-4.77.8-6.26,3-1.32,2-2.83,4.22-6.27,5-4.2,1-7.92-1.74-9.42-4.93-1.12-2.39-1.29-5.72,1.61-7.9a5,5,0,0,0,2.22-3.1c.2-1.52-.84-2.86-1.85-4.16-1.31-1.69-2.56-3.28-1.6-5.33a4.8,4.8,0,0,1,4.18-2.83,7.15,7.15,0,0,1,2,.15,13,13,0,0,1,7.71,5.81,14.18,14.18,0,0,0,8,6.05c0-.26,0-.52.05-.78a13.37,13.37,0,0,1-7.42-5.69c-2.69-4.09-6.79-6.57-10.45-6.3a5.54,5.54,0,0,0-4.82,3.27c-1.15,2.47.35,4.41,1.68,6.12,1,1.23,1.86,2.39,1.7,3.59a4.24,4.24,0,0,1-1.92,2.59c-2.73,2.05-3.43,5.44-1.84,8.83a9.82,9.82,0,0,0,6.65,5.4,8.26,8.26,0,0,0,3.63-.05c3.74-.88,5.4-3.35,6.74-5.35,1.49-2.22,2.52-3.76,5.59-2.65Z" style="fill:#a92f4b"/><path d="M231.36,246.82c0-.16.3-3.9-1.86-6.11a5.69,5.69,0,0,0-4.61-1.55c-3.9.24-5.61-1.09-7.59-2.63a15.75,15.75,0,0,0-5-2.89,5,5,0,0,0-6.39,3.13,5.74,5.74,0,0,0,3.24,7.5,12.7,12.7,0,0,0,7.82.82c2.1-.31,3.62-.52,5.14,1.2a9.61,9.61,0,0,0,4.94,3.15,4.55,4.55,0,0,0,2.08,0,3.08,3.08,0,0,0,2.23-2.56S231.35,246.84,231.36,246.82Zm-2.44,1.87c-1.75.47-4.32-.73-6.25-2.91a4.48,4.48,0,0,0-2.52-1.55,9.48,9.48,0,0,0-3.3.1,11.88,11.88,0,0,1-7.4-.75,5,5,0,0,1-2.84-6.54,4.28,4.28,0,0,1,5.44-2.68,15.13,15.13,0,0,1,4.78,2.77c2,1.57,3.91,3.05,8.11,2.8a4.88,4.88,0,0,1,4,1.31c1.84,1.89,1.67,5.21,1.65,5.5A2.33,2.33,0,0,1,228.92,248.69Z" style="fill:#a92f4b"/><path d="M199.16,259.69c1.87-1.22,4.2-2.72,3.87-6.8a6.63,6.63,0,0,0-2.43-4.81c-2.12-1.73-5.15-2.18-7.32-2.26,0,.26-.05.51-.07.77a17.24,17.24,0,0,1,2.95.34,9.38,9.38,0,0,1,4,1.74,5.92,5.92,0,0,1,2.16,4.28c.29,3.62-1.65,4.88-3.53,6.1-2,1.32-4,2.57-1.52,6.61s1.43,8.39-.91,10.35a4.61,4.61,0,0,1-4.2,1c0,.21,0,.41.08.61a3.55,3.55,0,0,0,.31.23,5.29,5.29,0,0,0,4.3-1.21c2.59-2.17,3.7-7,1.07-11.34C195.81,261.86,197.14,261,199.16,259.69Z" style="fill:#a92f4b"/><path d="M259.16,283.78c-1.63-1.58-4-2.21-7.1-1.87a11.7,11.7,0,0,0-7.42,3.56c-2.19,2-3.52,3.23-9.95-1-6.93-4.52-12.61-4-15-1.57-1.76,1.81-1.84,4.54-.27,7.48l1,.24c-1.73-2.87-1.82-5.51-.19-7.18,1.32-1.36,3.84-2,7.12-1.35a20.29,20.29,0,0,1,6.87,3c6.61,4.31,8.36,3.21,10.89.89a10.92,10.92,0,0,1,7-3.36c2.84-.31,5,.24,6.47,1.66a7.93,7.93,0,0,1,2.06,5.4l.76-.25A8.56,8.56,0,0,0,259.16,283.78Z" style="fill:#a92f4b"/><path d="M217.06,273.06c-2.2-1.5-1.88-2.16-1.16-3.6a8.5,8.5,0,0,0,1-5.4,4.59,4.59,0,0,0-2-3.38c-2.64-1.79-6.88-.76-7.06-.72l-.06,0c-3.84,1.76-4.22,5.82-4.07,10,.2,5.35,2.79,9,7.29,10.27l.39.09c3,.62,6.11-1.07,7.07-3.12C219.22,275.68,218.69,274.17,217.06,273.06Zm.76,3.8c-.85,1.82-3.9,3.36-6.55,2.61-5.33-1.5-6.6-6-6.73-9.56-.2-5.27.84-8,3.58-9.22.39-.09,4.16-.9,6.41.62a3.91,3.91,0,0,1,1.64,2.85,7.77,7.77,0,0,1-1,5c-.82,1.67-1.2,2.78,1.42,4.57C218,274.6,218.37,275.69,217.82,276.86Z" style="fill:#a92f4b"/><path d="M267.07,287.09a6.75,6.75,0,0,1-1.84-5.52c.42-2.9,2.75-5.44,4.54-7,0-.34,0-.68,0-1-1.91,1.57-4.8,4.46-5.3,7.92a7.37,7.37,0,0,0,1.94,6l.71-.33Z" style="fill:#a92f4b"/><path d="M281.86,120.76s11.35-2.4,11.62-6.73c.24-4-4.48-3.58-4.48-3.58s5.51-9,2.35-10.81-7.15,3.29-7.15,3.29,2.89-10.72-1-10-4.36,6.66-4.36,6.66S266,95.07,258.75,97.26a9.34,9.34,0,0,0-6.14,6.28s-3-1.76-5.05-.68-.18,4.77-.18,4.77a6.51,6.51,0,0,0-2.25,6.44c1,4,3.82,11.78,3.82,11.78Z" style="fill:#39393b"/><path d="M265.84,152.26l-1.1,5.22a17.12,17.12,0,0,1-2.11.9c-10.21,3.53-18.56-5.26-18.56-5.26L247.88,135l15.82,15.17Z" style="fill:#ea9b7a"/><path d="M265.84,152.26l-1.1,5.22a17.12,17.12,0,0,1-2.11.9c-7.07-4.68-11-13.95-11-13.95l12,5.78Z" style="fill:#39393b"/><path d="M275.88,110s12.35,3.84,5,16.06C280.91,126.09,274.87,113.41,275.88,110Z" style="fill:#39393b"/><path d="M277.23,130.52s3.7-2.87,4.64,1-1.85,10.66-6.11,8.55Z" style="fill:#d46a43"/><path d="M277.8,143.46s-2.25,10.79-13.46,8.4-16.9-12.72-17.21-13.21v0l.36-2.29,1.85-11.89,1-6.36s1-11.62,12.16-11.42c8.17.15,15.27,3,18.12,7.89a9.81,9.81,0,0,1,1.27,6.2l-2,11.36-.5,2.79Z" style="fill:#ea9b7a"/><path d="M254.93,125.85s1.65,6.63,5.3,6.32,7.71.1,10.52,2.22c0,0,5.65-.85,8.32,2,1.79,1.88-2.41,15.94-10.23,16.45s-17.2-4.18-18.13-11.64a41.55,41.55,0,0,1,.47-13.35Z" style="fill:#39393b"/><path d="M273.05,137.54s-6.31-.64-9.4-2.41c0,0-1.39,6.16,4,6.69C271.88,142.24,273.05,137.54,273.05,137.54Z" style="fill:#fff"/><path d="M264.91,130.43c-.17.78-1.92,1.08-3.91.66s-3.48-1.4-3.31-2.18,1.91-1.08,3.91-.66S265.07,129.64,264.91,130.43Z" style="fill:#d46a43"/><path d="M279.33,134.91c-.28,0-.58-.08-.88-.14-2-.42-3.47-1.4-3.31-2.18s1.92-1.09,3.91-.67l.78.2Z" style="fill:#d46a43"/><path d="M265.7,126.08c-.23,1.08-.9,1.85-1.5,1.73s-.91-1.11-.68-2.19.9-1.85,1.5-1.72S265.93,125,265.7,126.08Z" style="fill:#39393b"/><path d="M276.37,128.33c-.23,1.08-.9,1.85-1.5,1.72s-.91-1.1-.69-2.18.91-1.85,1.51-1.72S276.6,127.25,276.37,128.33Z" style="fill:#39393b"/><path d="M269.74,132.6a.45.45,0,0,1-.35-.53.44.44,0,0,1,.54-.35,3.14,3.14,0,0,0,2.91-.68c-1-4-2-8.07-2-8.11a.46.46,0,0,1,.33-.55.45.45,0,0,1,.55.34s1,4.24,2,8.34a.43.43,0,0,1-.07.38A3.88,3.88,0,0,1,269.74,132.6Z" style="fill:#39393b"/><path d="M261.35,120c.48-1.09,1.88-3,5.56-2.42a1,1,0,0,1,.81.9h0a1,1,0,0,1-1,1,4.36,4.36,0,0,0-3.65,1.61,1,1,0,0,1-1.43.07l-.09-.09A1,1,0,0,1,261.35,120Z" style="fill:#39393b"/><path d="M280,123.93c0-1.19-.5-3.53-4.11-4.46a1,1,0,0,0-1.11.5h0a1,1,0,0,0,.49,1.35,4.36,4.36,0,0,1,2.69,2.94,1,1,0,0,0,1.27.64l.13,0A1,1,0,0,0,280,123.93Z" style="fill:#39393b"/><path d="M251.57,135c-.08.11-2.19,3.1-4.44,3.64v0l.35-2.29A7.93,7.93,0,0,0,251.57,135Z" style="fill:#39393b"/><path d="M251.17,127.11s-3.09-6.7-7.21-2.82c-3.39,3.2-.53,14,5.33,11.75Z" style="fill:#ea9b7a"/><path d="M249.07,134.17a.45.45,0,0,1-.36-.49,7.6,7.6,0,0,0-3.05-6.88.45.45,0,0,1-.12-.63.45.45,0,0,1,.62-.12,8.49,8.49,0,0,1,3.45,7.72.46.46,0,0,1-.5.41Z" style="fill:#39393b"/><path d="M245.49,130.61a.45.45,0,0,1-.11-.85c.21-.1,2.06-1,3.32-.4a.45.45,0,1,1-.4.81,3.63,3.63,0,0,0-2.51.4A.45.45,0,0,1,245.49,130.61Z" style="fill:#39393b"/><path d="M280.59,114.56a2,2,0,0,1-.69.86c-2.66,1.83-7.64-.07-12.1-2.55a8.57,8.57,0,0,0-8.55.28c.37,4.85-4.21,4.27-4,7.94a28.21,28.21,0,0,1-1.1,8.15l-2.72-1a6.91,6.91,0,0,0-2.13-3.84l1-6.36s1-11.62,12.16-11.42C270.64,106.82,277.74,109.68,280.59,114.56Z" style="fill:#39393b"/><path d="M197.05,267.51s-10.68,42.13,44.69,42.13c29.57,0,43.63-2.86,43.63-2.86s.71,26.12,2.08,37.13,6.25,38.47,6.25,38.47l23.3,1.8s3.72-95.6-10.56-104.4-34.8-9.06-70-12.45C236.4,267.33,204.76,262,197.05,267.51Z" style="fill:#39393b"/><path d="M296.89,374.74a.39.39,0,0,0,.15,0,.63.63,0,0,0,.47-.76c-3.22-13.45-4.5-32.71-5.52-48.19-1-15.26-1.62-23.29-3.21-24.69-1.75-1.55-6.93-1-15.52-.08-10.65,1.13-26.74,2.84-44.08.85-8.62-1-15.22-4.36-19.63-10-7.91-10.16-6.1-24.43-6.08-24.58a.64.64,0,0,0-.54-.71.65.65,0,0,0-.72.54c-.08.61-1.91,14.93,6.33,25.52,4.63,6,11.52,9.49,20.49,10.52,17.49,2,33.66.29,44.36-.85,7.39-.79,13.22-1.41,14.55-.23.3.26.9,1.57,1.52,7.36.45,4.28.83,9.93,1.26,16.46,1,15.53,2.31,34.85,5.56,48.41A.63.63,0,0,0,296.89,374.74Z" style="fill:#585859"/><path d="M316.74,376.64a.63.63,0,0,0,0-1.26L293,373.94a.63.63,0,1,0-.08,1.26l23.82,1.44Z" style="fill:#585859"/><rect x="252.38" y="270.4" width="70.35" height="9.17" rx="0.29" style="fill:#ced3e6"/><path d="M330.07,279.57a5.84,5.84,0,0,0,5.64-4.34L348.87,226a4.74,4.74,0,0,0-4.58-6h-31.5a4.73,4.73,0,0,0-4.56,3.46l-15.76,56.11Z" style="fill:#fff"/><path d="M308.22,223.46,292.6,279.1H289l15.63-55.64a4.74,4.74,0,0,1,4.56-3.47h3.6A4.76,4.76,0,0,0,308.22,223.46Z" style="fill:#ced3e6"/><path d="M317.12,250.58a4.31,4.31,0,0,0,4.31,5.6,7.49,7.49,0,0,0,6.9-5.6A4.31,4.31,0,0,0,324,245,7.49,7.49,0,0,0,317.12,250.58Z" style="fill:#ced3e6"/><path d="M274.16,259.49s14.28,1,18.84,5.35l-2.77,9.88s-8.54-3.49-10.91-3.15-3.77,4.22-11.68,1.86Z" style="fill:#ea9b7a"/><path d="M274.09,258.84l-1.61-.65-1.68-.7c-1.11-.48-2.23-1-3.34-1.46-2.23-1-4.45-2-6.64-3.07-4.39-2.11-8.7-4.34-12.86-6.72a124.74,124.74,0,0,1-11.83-7.6c-.91-.68-1.81-1.36-2.67-2.06s-1.69-1.4-2.49-2.11a37.47,37.47,0,0,1-4.14-4.3,20.09,20.09,0,0,1-1.42-2,13.06,13.06,0,0,1-.93-1.91,24,24,0,0,1-1.3-4.91A50.78,50.78,0,0,1,223,209a99.47,99.47,0,0,1,2.16-13.34c.51-2.24,1.09-4.48,1.72-6.69.31-1.11.64-2.21,1-3.29.17-.55.34-1.08.52-1.61l.27-.77.13-.37.06-.17,0-.08v0a12.62,12.62,0,1,0-22.75-10.91,13.22,13.22,0,0,0-.72,1.86L205,175l-.1.35-.08.28-.14.54-.27,1c-.18.69-.34,1.37-.5,2-.32,1.35-.62,2.69-.9,4-.55,2.69-1,5.39-1.45,8.1A123.15,123.15,0,0,0,200.13,208a83.43,83.43,0,0,0,.32,8.74,62.63,62.63,0,0,0,1.48,9.1,44.21,44.21,0,0,0,3.41,9.43,35.37,35.37,0,0,0,2.82,4.65,40.84,40.84,0,0,0,3.25,3.91,58.69,58.69,0,0,0,6.83,6.11c2.31,1.77,4.64,3.36,7,4.83a142.72,142.72,0,0,0,14.25,7.73c4.79,2.28,9.61,4.34,14.47,6.25,2.44,1,4.88,1.87,7.33,2.74,1.23.44,2.46.87,3.71,1.29l1.87.63,1.94.63A8.05,8.05,0,0,0,274.34,259Z" style="fill:#ea9b7a"/><path d="M215.66,231.73a.4.4,0,0,0,.15,0,36.11,36.11,0,0,1,10.36-1.23.5.5,0,0,0,.52-.48.5.5,0,0,0-.48-.52,36.56,36.56,0,0,0-10.69,1.28.49.49,0,0,0-.34.62A.51.51,0,0,0,215.66,231.73Z" style="fill:#d46a43"/><path d="M224.94,230.46a.49.49,0,0,0,.38-.18.5.5,0,0,0,0-.7,12.86,12.86,0,0,0-4.2-2.29.49.49,0,0,0-.62.34.5.5,0,0,0,.33.62,11.93,11.93,0,0,1,3.83,2.08A.48.48,0,0,0,224.94,230.46Z" style="fill:#d46a43"/><path d="M197.86,199.89l10.35,2.84.76.21,7.15,2,.87.24,9.2,2.52.71-3.26.16-.78,1.66-7.66.17-.77L232,180.74a30.61,30.61,0,0,0,.94-10.93,14.18,14.18,0,0,0-13.29-12,10.19,10.19,0,0,0-4.11.61,7.21,7.21,0,0,0-.77.3,16.43,16.43,0,0,0-6.45,5.83c-.15.21-.29.42-.42.64-3.5,5.32-5.89,12.76-7.49,19.72-.07.27-.13.54-.19.81-.74,3.31-1.3,6.5-1.72,9.26q-.11.65-.18,1.26C198.14,197.57,198,198.81,197.86,199.89Z" style="fill:#df615c"/><path d="M198.34,196.2a5.34,5.34,0,0,1,5.49-1.95c3.41.61,6.12-.54,7.24-3.07a5.63,5.63,0,0,0,.41-1.52,4.2,4.2,0,0,0-1.43-3.86c-2.46-1.88-6.12-1.82-9.62-.93-.07.27-.13.54-.19.81,3.41-.92,7-1.07,9.34.73a3.78,3.78,0,0,1,.78,4.46c-1,2.19-3.35,3.17-6.39,2.63a6,6,0,0,0-5.45,1.44Q198.41,195.59,198.34,196.2Z" style="fill:#a92f4b"/><path d="M208.21,178.87a3,3,0,0,0,1.63.87,8.49,8.49,0,0,0,5.68-1.39c1.4-.83,2.21-2.47,2.64-4.49a32.93,32.93,0,0,0,0-10.2,9.39,9.39,0,0,0-2.57-5.28,7.21,7.21,0,0,0-.77.3c.13.12.26.25.38.38a8.68,8.68,0,0,1,2.2,4.71c1,7.54.2,12.48-2.24,13.92-2.65,1.56-5.27,1.83-6.36.66s-.54-3.09,1.19-5.6c2.5-3.62.43-6.09-1.62-8.24-.15.21-.29.42-.42.64,1.94,2.06,3.53,4.09,1.41,7.16C207.38,175.15,207,177.54,208.21,178.87Z" style="fill:#a92f4b"/><path d="M228.7,195.28c1.7-10.11,3.85-19.57,3.87-19.67a.39.39,0,0,1,.45-.29.38.38,0,0,1,.29.45c0,.11-2.16,9.51-3.85,19.57C229.34,195.74,228.7,195.76,228.7,195.28Z" style="fill:#a92f4b"/><path d="M231.44,183.08a.36.36,0,0,0,.2-.06l3.91-2.5a.38.38,0,0,0-.41-.63l-3.9,2.5a.37.37,0,0,0-.12.52A.4.4,0,0,0,231.44,183.08Z" style="fill:#a92f4b"/><path d="M256.72,184.16a5.35,5.35,0,0,0,3.61-1.43c6.16-5.43,6.14-25.17,6.13-26a.71.71,0,0,0-.71-.72h0a.72.72,0,0,0-.71.72c0,.2,0,19.92-5.65,24.93a3.9,3.9,0,0,1-3.23,1c-7.58-1-11-23.09-11.73-31.52a.72.72,0,0,0-1.43.12A122.77,122.77,0,0,0,245.5,167c2.55,10.77,6.07,16.53,10.47,17.11A4.73,4.73,0,0,0,256.72,184.16Z" style="fill:#fff"/><path d="M199.39,368.54h74.78a3.17,3.17,0,1,0,0-6.33H199.39a3.17,3.17,0,0,0,0,6.33Z" style="fill:#084fc7"/><path d="M281.05,416.91l.42,0a3.16,3.16,0,0,0,2.72-3.56L270.57,311.62a3.16,3.16,0,0,0-3.14-2.74h-61a3.17,3.17,0,0,0-3.14,2.75l-13.41,101.7a3.17,3.17,0,1,0,6.29.83l13-99h55.46l13.25,99A3.17,3.17,0,0,0,281.05,416.91Z" style="fill:#0875f7"/><path d="M249.76,312H210.14c-12.55,0-26-6.87-27.92-19.27a235.1,235.1,0,0,1-2.5-47.39c.82-16.67,7.29-32.15,20.4-42.48h0s-5.66,64.29-.56,82.06C206.39,308.7,249.76,312,249.76,312Z" style="fill:#0875f7"/><path d="M371,179.63v19a4.55,4.55,0,0,1-4.55,4.55H331.93l-10.43,3.74a1.32,1.32,0,0,1-1.68-1.72L323.76,195v-15.4a4.56,4.56,0,0,1,4.56-4.56h38.15A4.56,4.56,0,0,1,371,179.63Z" style="fill:#0875f7"/><path d="M341,189.68a3.3,3.3,0,1,1-3.3-3.29A3.29,3.29,0,0,1,341,189.68Z" style="fill:#084fc7"/><path d="M351.45,189.68a3.3,3.3,0,1,1-3.3-3.29A3.29,3.29,0,0,1,351.45,189.68Z" style="fill:#084fc7"/><path d="M361.87,189.68a3.29,3.29,0,1,1-3.29-3.29A3.29,3.29,0,0,1,361.87,189.68Z" style="fill:#084fc7"/><rect x="336.61" y="95.77" width="9.67" height="41.24" rx="1.19" transform="translate(682.88 232.79) rotate(-180)" style="fill:#0875f7"/><rect x="338.08" y="114.98" width="6.73" height="2.82" rx="1.17" transform="translate(682.88 232.79) rotate(-180)" style="fill:#084fc7"/><rect x="336.61" y="99.1" width="9.67" height="1.59" transform="translate(682.88 199.8) rotate(-180)" style="fill:#084fc7"/><rect x="336.61" y="102.43" width="9.67" height="1.59" transform="translate(682.88 206.46) rotate(-180)" style="fill:#084fc7"/><rect x="336.61" y="127.01" width="9.67" height="1.59" transform="translate(682.88 255.61) rotate(-180)" style="fill:#084fc7"/><rect x="336.61" y="130.34" width="9.67" height="1.59" transform="translate(682.88 262.27) rotate(-180)" style="fill:#084fc7"/><rect x="355.95" y="95.77" width="9.67" height="41.24" rx="0.3" style="fill:#21b573"/><rect x="357.41" y="114.98" width="6.73" height="2.82" rx="1.17" transform="translate(721.56 232.79) rotate(-180)" style="fill:#217c58"/><rect x="355.95" y="99.1" width="9.67" height="1.59" transform="translate(721.56 199.8) rotate(-180)" style="fill:#217c58"/><rect x="355.95" y="102.43" width="9.67" height="1.59" transform="translate(721.56 206.46) rotate(-180)" style="fill:#217c58"/><rect x="355.95" y="127.01" width="9.67" height="1.59" transform="translate(721.56 255.61) rotate(-180)" style="fill:#217c58"/><rect x="355.95" y="130.34" width="9.67" height="1.59" transform="translate(721.56 262.27) rotate(-180)" style="fill:#217c58"/><rect x="346.28" y="95.77" width="9.67" height="41.24" rx="1.19" transform="translate(702.22 232.79) rotate(-180)" style="fill:#df615c"/><rect x="347.74" y="114.98" width="6.73" height="2.82" rx="1.17" transform="translate(702.22 232.79) rotate(-180)" style="fill:#a92f4b"/><rect x="346.28" y="99.1" width="9.67" height="1.59" transform="translate(702.22 199.8) rotate(-180)" style="fill:#a92f4b"/><rect x="346.28" y="102.43" width="9.67" height="1.59" transform="translate(702.22 206.46) rotate(-180)" style="fill:#a92f4b"/><rect x="346.28" y="127.01" width="9.67" height="1.59" transform="translate(702.22 255.61) rotate(-180)" style="fill:#a92f4b"/><rect x="346.28" y="130.34" width="9.67" height="1.59" transform="translate(702.22 262.27) rotate(-180)" style="fill:#a92f4b"/><rect x="308.05" y="111.09" width="41.24" height="9.67" rx="0.3" transform="translate(161.9 421.94) rotate(-80.84)" style="fill:#faaf3a"/><rect x="327.25" y="112.56" width="2.82" height="6.73" rx="0.26" transform="translate(161.91 421.95) rotate(-80.84)" style="fill:#c77e2e"/><rect x="330.49" y="94.81" width="1.59" height="9.67" transform="translate(180.19 410.85) rotate(-80.84)" style="fill:#c77e2e"/><rect x="329.96" y="98.09" width="1.59" height="9.67" transform="translate(176.5 413.09) rotate(-80.84)" style="fill:#c77e2e"/><rect x="326.05" y="122.36" width="1.59" height="9.67" transform="translate(149.26 429.63) rotate(-80.84)" style="fill:#c77e2e"/><rect x="325.52" y="125.64" width="1.59" height="9.67" transform="matrix(0.16, -0.99, 0.99, 0.16, 145.57, 431.87)" style="fill:#c77e2e"/><g style="opacity:0.8"><polygon points="296.04 148.06 383.61 148.06 385.53 142.97 293.85 142.97 296.04 148.06" style="fill:#ced3e6"/></g><rect x="293.85" y="136.92" width="91.68" height="6.05" style="fill:#39393b"/><polygon points="376.19 142.97 373.74 148.11 367.96 148.11 366.31 142.97 376.19 142.97" style="fill:#39393b"/><polygon points="303.19 142.97 305.64 148.11 311.42 148.11 313.06 142.97 303.19 142.97" style="fill:#39393b"/></svg>