<svg xmlns="http://www.w3.org/2000/svg" xmlns:xlink="http://www.w3.org/1999/xlink" viewBox="0 0 678 738.59"><defs><linearGradient id="a" x1="218.67" y1="254.97" x2="482.86" y2="254.97" gradientTransform="translate(701.53 509.95) rotate(-180)" gradientUnits="userSpaceOnUse"><stop offset="0" stop-color="#ff9f55"/><stop offset="1" stop-color="#ffd255"/></linearGradient></defs><path d="M407.33,309,29.87,311a28.45,28.45,0,0,1-28.59-28.3L0,34.22A28.45,28.45,0,0,1,28.3,5.63L405.76,3.69A28.43,28.43,0,0,1,434.35,32l1.28,248.45A28.45,28.45,0,0,1,407.33,309Z" style="fill:#8dbde3"/><rect x="164.86" y="0.27" width="105.92" height="23.92" transform="translate(-0.06 1.12) rotate(-0.29)" style="fill:#706865"/><path d="M112,64.93s.12,69.4-7.42,97.22L88.26,172.48l-57.72.3C41.36,143.54,41.21,65.3,41.21,65.3Z" style="fill:#fff"/><polygon points="88.26 172.48 88.21 162 104.58 161.91 88.26 172.48" style="fill:#c9c9c9"/><path d="M181.8,47.84s.08,48-5.14,67.26l-11.29,7.14-39.93.21c7.49-20.23,7.38-74.36,7.38-74.36Z" style="fill:#fff"/><polygon points="165.37 122.24 165.34 114.99 176.66 114.93 165.37 122.24" style="fill:#c9c9c9"/><path d="M179.28,152.3s0,35.41-4.34,49.6l-9.48,5.28-33.52.17c6.29-14.92,6.24-54.84,6.24-54.84Z" style="fill:#fff"/><polygon points="165.46 207.18 165.43 201.83 174.94 201.78 165.46 207.18" style="fill:#c9c9c9"/><rect x="33.25" y="234.58" width="100.97" height="5.25" style="fill:#fff"/><rect x="33.25" y="271" width="116.45" height="5.25" style="fill:#fff"/><rect x="33.25" y="252.79" width="71.72" height="5.25" style="fill:#fff"/><rect x="372.97" y="389.43" width="116.24" height="6.9" transform="translate(862.18 785.75) rotate(180)" style="fill:#e2d2ca"/><rect x="463.44" y="414.28" width="10.19" height="313.8" style="fill:#706865"/><rect x="310.37" y="387.47" width="80.8" height="9.85" transform="translate(701.53 784.79) rotate(180)" style="fill:#ccbdb7"/><rect x="335.47" y="303.4" width="30.6" height="92.93" transform="translate(701.53 699.72) rotate(180)" style="fill:#fa5"/><rect x="83.24" y="396.44" width="447.66" height="17.84" transform="translate(614.15 810.72) rotate(180)" style="fill:#b59074"/><path d="M616.82,288.45s4.9,68.66-8.52,76.88c-8.4,5.14-41.91,22.51-40.92,25.76s18.92,29,18.92,29,64.37-42.38,66.44-55.74c2-13.05-3.17-100.53-12-104.56-6.63-3-10.13-.53-18.48,5.67C610.53,274.14,616.82,288.45,616.82,288.45Z" style="fill:#d44040"/><path d="M499.51,308.05l-5.67-2.1s7.08-16.6,10.16-16.2a78,78,0,0,1,8,1.64Z" style="fill:#ead8cf"/><path d="M498.22,310.92c.72-.54,12.06-22.29,12.06-22.29l24.21,3.29-13.08,25.76Z" style="fill:#da9b5b"/><path d="M537.63,685.24s2,13.89,2.25,16S562.15,700,562.15,700l1.78-16.54S540.38,683.28,537.63,685.24Z" style="fill:#424773"/><path d="M539.65,699.45s-7,8.37-13.72,12-17.35,5.09-21.34,8.87c-2.88,2.73-10.49,14.47,17.53,14.23s41.53,1.66,44.53-2.84-4.34-33.22-4.34-33.22S555.67,700.9,539.65,699.45Z" style="fill:#292c47"/><path d="M396.58,685.37s2,13.89,2.25,16,22.27-1.23,22.27-1.23l1.78-16.54S399.33,683.41,396.58,685.37Z" style="fill:#424773"/><path d="M398.6,699.58s-7,8.37-13.73,12S353.3,718.25,349.31,722c-2.88,2.73-7.67,13.71,31.76,12.68,28-.73,41.53,1.66,44.53-2.84s-4.34-33.22-4.34-33.22S415,701.19,398.6,699.58Z" style="fill:#292c47"/><path d="M608.64,445.25s-80,13.55-98.12,16.39-116.1,27.23-128.36,34.66c-9.75,5.91,5.12,148,8.6,202.21h38.61l2.79-162.61c46.33,1.16,79.39-10.84,113.13-5.72s61.87,12.41,83.3-16.34C628.59,513.84,629.39,451.54,608.64,445.25Z" style="fill:#292c47"/><path d="M529.75,698.64l37.62-2.33L571,535.9c19.94.5,26.78-.77,42.92-2.73l30.38-70.61C617.71,467.89,532.42,489.4,521,496.3,511.28,502.22,526.27,644.43,529.75,698.64Z" style="fill:#292c47"/><path d="M571.79,145.24s-29.34-8.11-40.53,14.66-6.12,66,8.67,70,36.05-.61,42.19-14.79,11-34.32,9.56-47.36S579.58,148.35,571.79,145.24Z" style="fill:#eea886"/><path d="M547.59,225.38s.33,17.32-1.58,21,40.85,2.77,40.85,2.77-6.74-20.8-2.91-38.52C587.73,193.1,547.59,225.38,547.59,225.38Z" style="fill:#eea886"/><path d="M586.25,204.08s-2.29,4.65-13.36,3.9-25.67-14.11-30.37-15.3-5-3.87-5-3.87l-2.49,4.42-4.82.73s3.28-13.38-3.85-18.09,3.21-42.67,39.3-33.52c0,0,27.55,5.05,27.92,20.43S591.6,195.93,586.25,204.08Z" style="fill:#3a3f47"/><path d="M543.76,246s.12-7.06,3.32-7.73,33.61-4.86,37.54-3.32l1.68,9.32S578.74,248.87,543.76,246Z" style="fill:#e2d2ca"/><path d="M535,185.66c.82-5.79,7.39-12.43,11.16-3.42s-2.55,22.12-6.77,21.42S533.84,193.5,535,185.66Z" style="fill:#eea886"/><path d="M416.35,329.31h0C416.18,329.41,416.15,329.42,416.35,329.31Z" style="fill:#323657"/><path d="M580.35,149.37s35.78-1.69,6.25,54.16Z" style="fill:#3a3f47"/><polygon points="660.06 717.67 657.4 725.15 544.95 690.32 550.34 675.15 660.06 717.67" style="fill:#918783"/><rect x="541.1" y="562.73" width="12.78" height="122.25" transform="translate(1094.97 1247.71) rotate(180)" style="fill:#918783"/><rect x="509.8" y="556.23" width="75.38" height="7.2" transform="translate(1094.97 1119.67) rotate(180)" style="fill:#5e5854"/><polygon points="433.93 717.67 436.59 725.15 549.03 690.32 544.09 674.2 433.93 717.67" style="fill:#918783"/><polygon points="513.15 724.36 513.15 733.06 549.03 690.32 544.09 674.2 513.15 724.36" style="fill:#918783"/><path d="M423.42,728.08a10.51,10.51,0,1,0,10.51-10.51A10.5,10.5,0,0,0,423.42,728.08Z" style="fill:#bfb2ac"/><path d="M512.26,728.08a10.51,10.51,0,1,0,10.51-10.51A10.5,10.5,0,0,0,512.26,728.08Z" style="fill:#bfb2ac"/><path d="M649.55,728.08a10.51,10.51,0,1,0,10.51-10.51A10.51,10.51,0,0,0,649.55,728.08Z" style="fill:#bfb2ac"/><rect x="457.7" y="528.95" width="178.58" height="27.29" rx="13.47" transform="translate(1093.99 1085.18) rotate(180)" style="fill:#254380"/><rect x="140.52" y="414.28" width="10.19" height="313.8" transform="translate(291.22 1142.36) rotate(180)" style="fill:#706865"/><rect x="218.67" y="161.79" width="264.19" height="186.38" rx="13.44" transform="translate(701.53 509.95) rotate(180)" style="fill:url(#a)"/><rect x="229.01" y="171.86" width="243.5" height="147.09" transform="translate(701.53 490.81) rotate(180)" style="fill:#f5f7ff"/><path d="M296.07,396.68v-3.32s4.66-20.63,37.64-20.63S366,396.68,366,396.68Z" style="fill:#ffc655"/><path d="M366.43,375.8s-7.17-.56-9.79-2.14-18.33-12.15-22-10.46-28.24,9.21-27.39,12.8,3.13,3.25,4.86,2.61,19.56-4.37,21.13-3.74c0,0-17.51,6.38-17.58,11s3.66,5.8,5.32,7.56,3.66,6.14,8.17,6.48,26.53-7.33,31.06-7.68,12.93.28,13.5-.45S366.43,375.8,366.43,375.8Z" style="fill:#eea886"/><path d="M496.87,255.73c22.84-4,46.89-9.78,46.89-9.78l42.54-1.73s39.05,8.59,54.43,15.54c1.46.66,1.46,34.83,5.47,43.79l-12.75,26.9s-7.37,53.28-8.9,77c-.7,10.88,2,105.13,2,105.13s-3.82,1.89-32.86,5.09-101.59-1.16-102-4.59,14.05-127.7,14.7-134.14c1-9.88-2.86-55.52-2.86-55.52-5.47,7.35-19.41,40.54-34,56.33-8.56,9.29-50.9,15-58.88,15.25-17.37.58-49.07,4-50,2.35-.73-1-2.76-28.14-.77-28.8,1.74-.58,60.59-4,75.67-12,5.52-2.92,22-38.88,22-38.88S484.26,261.39,496.87,255.73Z" style="fill:#d44040"/><path d="M580.71,339.27h71.42A25.86,25.86,0,0,1,678,365.13V484a25.86,25.86,0,0,1-25.86,25.86H580.71A25.86,25.86,0,0,1,554.85,484V365.14A25.87,25.87,0,0,1,580.71,339.27Z" transform="translate(1232.85 849.11) rotate(180)" style="fill:#254380"/><path d="M576.67,549.44c18.15,0,32.88-6.09,43.78-18.12,24.61-27.18,20.19-75,20-77a6.85,6.85,0,0,0-13.64,1.35c.06.54,4,43.85-16.54,66.46-8.3,9.14-19.28,13.59-33.59,13.59a6.85,6.85,0,1,0,0,13.7Z" style="fill:#254380"/><rect x="383.92" y="183.58" width="71.33" height="7.77" rx="1.93" transform="translate(839.17 374.92) rotate(180)" style="fill:#dfe1e8"/><path d="M385.85,200.25h67.47a1.93,1.93,0,0,1,1.93,1.93v3.92a1.92,1.92,0,0,1-1.92,1.92H385.85a1.93,1.93,0,0,1-1.93-1.93v-3.92A1.93,1.93,0,0,1,385.85,200.25Z" transform="translate(839.17 408.26) rotate(180)" style="fill:#dfe1e8"/><rect x="383.92" y="219.36" width="71.33" height="87.88" rx="6.48" transform="translate(839.17 526.6) rotate(180)" style="fill:#dfe1e8"/><rect x="242.5" y="183.58" width="127.02" height="123.66" rx="10.25" transform="translate(612.02 490.81) rotate(180)" style="fill:#dfe1e8"/><path d="M138.18,297.23a28.82,28.82,0,1,0-24.65-13.89A28.83,28.83,0,0,0,138.18,297.23Z" style="fill:#36572b"/><path d="M167.46,294.65a20.18,20.18,0,0,0,20.17-20.18c0-.64,0-1.27-.09-1.9a20.17,20.17,0,1,0-20.08,22.08Z" style="fill:#45613c"/><path d="M137.71,269.92s-1.6,13.39-2.14,31.59,13.92,18.21,13.92,18.21V386.4h10s-.24-68,4.76-73.49,5-31.41,5-31.41l-2.86-1.67s4.29,30.7-15.23,35.22-12.14-43.79-12.14-43.79Z" style="fill:#925e2e"/><path d="M131,273.05c16.55-3.09,27.45-10.25,33.34-16.68a28.83,28.83,0,1,0-50.85,27C114.32,279.42,118.61,275.37,131,273.05Z" style="fill:#48753a"/><path d="M173.35,280c6.68-1.93,11.21-4.57,14.19-7.44a20.17,20.17,0,1,0-31.13,18.78C158.46,287.49,163.08,283,173.35,280Z" style="fill:#538742"/><polygon points="184.7 355.4 116.88 355.4 120.37 367.99 180.51 367.99 184.7 355.4" style="fill:#877670"/><polygon points="176.23 367.99 125.89 367.99 132.88 396.46 171.33 396.46 176.23 367.99" style="fill:#876455"/><path d="M169.29,256.84l1.74.53s2.73-7.43,2.91-8.45S169.29,256.84,169.29,256.84Z" style="fill:#538742"/><path d="M185.72,257.37,177.1,260s.06.77,1.19.77S185.72,257.37,185.72,257.37Z" style="fill:#538742"/><path d="M182.75,275.46h-2.2a11.69,11.69,0,0,0,2.2,5.36C184.53,282.9,182.75,275.46,182.75,275.46Z" style="fill:#538742"/><path d="M129.8,234.17c-.9.65,3.15,10.53,3.15,10.53h2S130.69,233.51,129.8,234.17Z" style="fill:#48753a"/><path d="M139.2,242.26c.35-2.68-1.73-7.2-1.73-7.2v6.78S138.84,244.94,139.2,242.26Z" style="fill:#48753a"/><path d="M123.25,281.18c1.25-1,1.31-10,1.31-10l-2,.71S122,282.21,123.25,281.18Z" style="fill:#48753a"/><path d="M159.55,368H125.89l7,28.47h11C137.68,373.55,159.55,368,159.55,368Z" style="fill:#715346"/><path d="M134.65,396.46c2.76-1.15,7.22-14.19,9.37-20.94.76-2.4,1.23-4,1.23-4H120c2.18,15.59,7.48,24.94,7.48,24.94Z" style="fill:#9e633a"/><path d="M136.68,363.75c0-.91,4-4.7,6.08-7.18s-.78-7.19-.78-7.19c-9,3.74-7.48,14.37-7.48,14.37S136.68,364.66,136.68,363.75Z" style="fill:#97a43c"/><path d="M131.53,364.15h1.09s.78-18.36-5.92-20.85-6.7-7.48-6.7-7.48-2,6.86,1.24,10.44,7,7.8,6.4,11.23S131.53,364.15,131.53,364.15Z" style="fill:#97a43c"/><path d="M144,375.52c.76-2.4,1.23-4,1.23-4H120c2.18,15.59,7.48,24.94,7.48,24.94h1.65C128.82,381.87,138.43,377.07,144,375.52Z" style="fill:#82522f"/><polygon points="145.25 363.75 119.8 363.75 118.36 371.52 146.28 371.52 145.25 363.75" style="fill:#c67b47"/></svg>